<?xml version="1.0" encoding="UTF-8" standalone="no"?>
<!-- Created with Inkscape (http://www.inkscape.org/) -->

<svg
   width="97.220551mm"
   height="100.00005mm"
   viewBox="0 0 97.22055 100.00005"
   version="1.1"
   id="svg5"
   xml:space="preserve"
   xmlns="http://www.w3.org/2000/svg"
   xmlns:svg="http://www.w3.org/2000/svg"><defs
     id="defs2"><rect
       x="1206.4102"
       y="945.0213"
       width="280.53824"
       height="112.98127"
       id="rect2501" /><rect
       x="1409.3934"
       y="2179.198"
       width="735.33569"
       height="279.58075"
       id="rect2445" /></defs><g
     id="layer1"
     transform="translate(-300.73886,-158.09715)"><g
       id="g1639"
       transform="translate(61.552209,53.890401)"><rect
         style="fill:#87aade;stroke:none;stroke-width:0.116;stroke-linecap:square"
         id="rect2610"
         width="197.64375"
         height="139.43541"
         x="-50.025742"
         y="4.9138799" /><path
         id="path2152"
         style="fill:#000000;stroke:none;stroke-width:0.0479012;stroke-linecap:square"
         d="m 82.495854,109.81136 h 13.165787 v 15.08799 H 0.68520232 V 109.81136 H 36.391476 c 0,0 0.424377,-0.46328 0.587757,-0.72936 0.162653,-0.2649 0.202791,-0.38275 0.382838,-0.85033 1.291676,-3.35442 1.253436,-6.06668 -0.11832,-8.393188 C 37.142894,99.66743 37.042037,99.496373 36.94118,99.32532 l -0.570349,-0.724538 c 0,0 -3.282936,2.010048 -4.686037,2.783208 -3.872988,2.13415 -9.716085,4.24619 -12.872909,4.65303 l -0.577775,0.0745 0.234509,-0.58823 c 2.529203,-6.344083 3.851664,-10.026457 4.044916,-11.263034 0.137324,-0.878694 -0.02746,-1.665656 -0.572448,-2.733766 -0.638204,-1.250824 -0.416236,-2.226116 0.679462,-2.985437 l 0.427279,-0.296103 -0.465517,-0.295225 c -1.134152,-0.719256 -1.278941,-1.2612 -0.735085,-2.751402 0.179877,-0.492874 0.306241,-0.916932 0.280812,-0.942369 -0.07318,-0.07319 -2.913919,1.223615 -4.630479,2.113817 -1.135208,0.588739 -1.549446,0.758767 -1.510084,0.619916 0.02981,-0.105242 0.252497,-0.928833 0.49481,-1.830205 0.242318,-0.901372 1.076154,-3.777575 1.852975,-6.391557 2.700825,-9.088199 4.407433,-14.81837 5.108777,-17.153404 0.958552,-3.191377 3.008421,-9.396132 3.104207,-9.396132 0.0427,0 0.379612,0.365078 0.748703,0.811284 0.369087,0.446207 1.248396,1.327427 1.954013,1.95827 0.179047,0.160073 0.656661,0.582826 0.656661,0.582826 l 0.64721,-0.661594 1.246661,-1.212479 c 2.731589,-2.656688 6.240768,-4.401377 10.368321,-5.15491 0.243764,-0.0445 0.554643,-0.08181 0.910307,-0.111904 l -0.0125,-0.03223 c 0,0 -0.140747,-0.625374 -0.282069,-0.899543 l -0.537333,-1.116697 -0.415657,-0.769336 c 0,0 -0.581771,-1.00643 -0.649984,-1.056039 -0.06838,-0.100964 -0.473046,-0.731741 -0.43016,-0.772123 0.05928,-0.05582 1.56121,-0.359521 1.56121,-0.359521 l -0.0041,-0.01566 0.27075,-0.04382 c 0.141026,-0.329074 -0.06675,-1.337221 -0.496465,-1.582775 l -0.311363,0.056 -0.12843,-0.380031 c -0.06861,-0.203024 -0.189488,-0.497474 -0.34743,-0.947855 -1.442784,-4.114154 -3.394426,-8.054142 -5.260128,-10.619184 -0.29963,-0.411948 -0.529477,-0.76095 -0.510767,-0.775564 0.07207,-0.05629 3.358042,-0.940466 4.240423,-1.140994 0.51078,-0.116077 1.444931,-0.29094 2.075889,-0.388583 0.630962,-0.09764 1.279659,-0.19841 1.441553,-0.223921 0.210616,-0.03319 0.309487,0.0069 0.347564,0.14086 0.183292,0.64499 0.667858,3.974113 0.996762,6.848111 0.09604,0.839173 0.189899,1.54106 0.208589,1.559746 0.01871,0.01869 0.0093,-1.928644 -0.02073,-4.327401 l -0.05472,-4.361378 1.299241,-0.08157 c 1.733544,-0.108837 6.354852,0.106068 6.553546,0.304761 0.03361,0.03363 -1.308569,9.107275 -1.442296,9.750369 -0.03749,0.180274 -0.04364,0.303189 -0.01367,0.273143 0.02998,-0.03004 0.378927,-1.283774 0.775462,-2.786062 0.905142,-3.429166 1.87631,-6.923563 1.942645,-6.989897 0.228666,-0.228663 7.15905,1.89553 7.670523,2.351049 0.05102,0.04544 -0.544211,1.25527 -1.32275,2.688507 -1.784092,3.284404 -2.824513,5.291952 -2.596219,5.009547 0.09715,-0.120183 1.287844,-1.755927 2.645983,-3.634986 2.080699,-2.878762 2.502886,-3.405824 2.682482,-3.348823 0.744418,0.23627 3.540711,1.984254 4.748944,2.968602 l 0.460574,0.375229 -1.065727,1.32833 c -0.586149,0.730583 -1.478618,1.869155 -1.983261,2.530162 -0.504648,0.661007 -1.165395,1.521409 -1.468328,1.912004 l -0.55079,0.710173 1.090165,-1.001754 c 0.599591,-0.550964 1.335993,-1.255579 1.636449,-1.565809 0.30046,-0.310232 1.17431,-1.15672 1.941889,-1.881084 l 1.395601,-1.317026 1.374909,1.353234 c 1.588135,1.563101 3.430662,3.780053 4.4513,5.355863 l 0.186455,0.28788 -2.0529,1.307905 c -2.649175,1.687796 -4.292677,2.765824 -4.292677,2.815713 0,0.02179 0.331873,-0.111222 0.737488,-0.295575 1.448929,-0.658537 6.282559,-2.718989 6.30494,-2.687635 0.197324,0.276406 0.944884,1.618513 1.447933,2.599497 0.618078,1.205303 1.819555,3.934908 1.755855,3.989076 -0.01685,0.01433 -1.136881,0.326183 -2.488941,0.693002 -2.673394,0.725296 -4.327636,1.243524 -3.714749,1.163727 0.800049,-0.104166 4.686651,-0.488761 5.64202,-0.5583 l 0.998586,-0.07268 0.169054,0.588367 c 0.405434,1.411051 0.759478,2.96955 0.999917,4.401609 0.281432,1.67622 0.455709,3.686157 0.336361,3.879261 -0.04548,0.0736 -0.239716,-0.08721 -0.494191,-0.40914 -0.627183,-0.793461 -1.16544,-1.187589 -2.134241,-1.562763 -0.804162,-0.311417 -2.777765,-0.794105 -2.869958,-0.701911 -0.02172,0.02173 0.221791,0.124894 0.541164,0.229243 1.016917,0.332262 1.92469,0.786379 2.580102,1.290706 0.794325,0.611221 1.783163,1.671374 2.162185,2.318122 l 0.288179,0.491742 -0.07495,1.990448 c -0.08598,2.283377 -0.204711,3.545511 -0.464769,4.940397 l -0.183326,0.983316 -0.09288,-0.546287 C 79.910349,66.520705 79.536831,65.394923 78.768724,64.123661 78.177173,63.14461 78.059109,63.077015 78.3982,63.911529 c 0.393012,0.967208 0.780549,2.673878 0.87214,3.840809 0.04397,0.5602 0.08667,3.42767 0.09484,6.372156 0.01292,4.645496 0.0396,5.454769 0.201709,6.118411 0.515817,2.111764 1.142328,3.484719 2.256005,4.943897 0.42424,0.555847 0.734643,1.007638 0.689785,1.004335 -0.04485,-0.0033 -0.344116,-0.125555 -0.665029,-0.271315 h -8e-6 C 80.269325,85.202913 78.701,83.783968 77.902739,82.350649 76.654938,80.110148 76.259373,77.357054 76.257721,70.9014 c -0.0012,-4.818693 -0.227406,-6.197559 -1.344094,-8.194301 -0.675114,-1.207163 -2.362474,-2.869636 -3.517479,-3.465596 l -0.879903,-0.465615 -0.0877,-0.319013 c -0.963249,-0.37207 -1.534774,-0.26318 -2.419475,0.129561 0,0 -0.02291,0.265879 -0.156838,0.34113 -0.525709,0.163401 -0.969088,0.540986 -1.413404,0.870862 -0.441658,0.327903 -0.834971,0.716963 -1.235106,1.094421 -0.195088,0.184031 -0.567777,0.570062 -0.567777,0.570062 L 64.158,64.42002 c 0.465802,2.921764 -0.02881,8.288299 -1.110033,11.878023 l -0.325575,1.080929 0.257564,0.503303 c 1.314413,2.568468 4.341689,6.103304 6.383473,7.453729 0.855478,0.565812 0.877401,0.59065 0.586645,0.664678 -0.897041,0.228385 -3.593361,0.535502 -5.21862,0.594421 -2.305574,0.08359 -4.037417,-0.06723 -6.458334,-0.562393 -1.008436,-0.20626 -1.849262,-0.359271 -1.868505,-0.340028 -0.06337,0.06337 2.516083,1.027141 3.52046,1.315358 1.198508,0.34393 2.552315,0.609786 3.105206,0.609786 0.388318,0 0.417364,0.02469 0.54621,0.464344 0.209072,0.713397 1.113071,2.371364 1.874216,3.437376 0.37709,0.528123 1.283549,1.555323 2.014352,2.282657 l 1.328738,1.322415 C 57.954822,98.096813 54.500821,108.01193 82.495851,109.8114 Z" /><path
         style="fill:#ff0000;stroke-width:0.109283"
         d="M 81.84604,85.917615 C 80.26733,85.200537 78.69862,83.781253 77.90017,82.34759 76.65207,80.106553 76.25642,77.352798 76.25476,70.895595 76.25376,66.075747 76.0273,64.69655 74.91034,62.699328 74.23507,61.491876 72.5473,59.829004 71.39202,59.232902 L 70.51775,58.781796 70.30634,58.035793 C 68.63797,52.14883 64.07118,46.842982 58.05881,43.80621 55.81926,42.675039 53.1643,41.844679 50.46422,41.430934 c -1.86194,-0.285313 -5.08201,-0.252311 -6.83022,0.07 -0.72127,0.132977 -1.43841,0.264926 -1.59363,0.293222 -0.05911,0.01078 -0.266479,0.04773 -0.266479,0.04773 0,0 -0.13177,-0.327182 -0.488621,-1.344762 -1.443123,-4.115143 -3.39524,-8.056074 -5.26139,-10.621732 -0.2997,-0.412046 -0.52961,-0.761133 -0.51089,-0.775749 0.0721,-0.05631 3.35885,-0.940692 4.24144,-1.141267 0.5109,-0.116106 1.44528,-0.29101 2.07639,-0.388677 0.63111,-0.09767 1.27996,-0.198456 1.44189,-0.223975 0.21067,-0.0332 0.30957,0.0069 0.34765,0.140894 0.18334,0.645145 0.66802,3.975066 0.997,6.849753 0.0961,0.839375 0.18995,1.541429 0.20864,1.560121 0.0187,0.01869 0.009,-1.929106 -0.0207,-4.328439 l -0.0547,-4.362424 1.29955,-0.08159 c 1.73396,-0.108863 6.35638,0.106094 6.55512,0.304834 0.0336,0.03363 -1.30888,9.109459 -1.44264,9.752708 -0.0375,0.180318 -0.0436,0.303262 -0.0137,0.273209 0.03,-0.03005 0.37901,-1.284082 0.77564,-2.786731 0.90536,-3.429988 1.87676,-6.925223 1.94312,-6.991573 0.22872,-0.228718 7.16076,1.895985 7.67236,2.351612 0.051,0.04545 -0.54434,1.255571 -1.32307,2.689152 -1.78452,3.285192 -2.82519,5.293221 -2.59684,5.010749 0.0972,-0.120212 1.28815,-1.756348 2.64662,-3.635858 2.0812,-2.879452 2.50348,-3.406641 2.68312,-3.349626 0.7446,0.236326 3.54156,1.984729 4.75009,2.969314 l 0.46068,0.375319 -1.06598,1.328649 c -0.58629,0.730757 -1.47898,1.869603 -1.98374,2.530769 -0.50477,0.661165 -1.16567,1.521774 -1.46868,1.912462 l -0.55092,0.710343 1.09042,-1.001993 c 0.59974,-0.551096 1.33632,-1.25588 1.63685,-1.566186 0.30053,-0.310306 1.17459,-1.156997 1.94235,-1.881535 l 1.39594,-1.317342 1.37523,1.353559 c 1.58852,1.563476 3.43149,3.78096 4.45237,5.357148 l 0.1865,0.287949 -2.05339,1.308219 c -2.64981,1.688201 -4.29371,2.766487 -4.29371,2.816388 0,0.02179 0.33196,-0.111248 0.73767,-0.295646 1.44927,-0.658694 6.28406,-2.719641 6.30645,-2.688279 0.19737,0.276472 0.94511,1.6189 1.44828,2.60012 0.61823,1.205591 1.81999,3.935852 1.75628,3.990033 -0.0169,0.01434 -1.13716,0.326261 -2.48954,0.693167 -2.67404,0.725471 -4.32868,1.243823 -3.71564,1.164006 0.80024,-0.104191 4.68777,-0.488878 5.64337,-0.558433 l 0.99883,-0.0727 0.16909,0.588508 c 0.40553,1.411389 0.75966,2.970262 1.00016,4.402664 0.2815,1.676622 0.45582,3.687042 0.33644,3.880192 -0.0455,0.07362 -0.23977,-0.08723 -0.49431,-0.409239 -0.62735,-0.79365 -1.16573,-1.187873 -2.13477,-1.563136 -0.80435,-0.311492 -2.77843,-0.794296 -2.87064,-0.70208 -0.0217,0.02174 0.22184,0.124924 0.54129,0.229298 1.01716,0.332342 1.92515,0.786568 2.58072,1.291016 0.79452,0.611368 1.78359,1.671775 2.16271,2.318677 l 0.28824,0.491861 -0.075,1.990925 c -0.086,2.283925 -0.20476,3.546362 -0.46488,4.941582 l -0.18337,0.983552 -0.0929,-0.546418 c -0.36409,-2.141434 -0.7377,-3.267486 -1.50599,-4.539053 -0.59169,-0.979287 -0.70978,-1.046897 -0.37061,-0.212183 0.39311,0.96744 0.78074,2.67452 0.87235,3.84173 0.044,0.560335 0.0867,3.428492 0.0949,6.373684 0.0129,4.646611 0.0396,5.456078 0.20175,6.11988 0.51594,2.112271 1.14261,3.485554 2.25655,4.945081 0.42434,0.55598 0.73482,1.00804 0.68995,1.004577 -0.0449,-0.0035 -0.3442,-0.125584 -0.66519,-0.271383 z M 41.88948,36.487147 c -0.57735,-2.277637 -1.57128,-4.742969 -2.25342,-5.589335 -0.12111,-0.150265 0.0512,0.276258 0.38292,0.947827 0.67301,1.362552 1.29754,3.093887 1.76712,4.898844 0.172,0.661165 0.32862,1.12222 0.34803,1.024565 0.0194,-0.09765 -0.0907,-0.674511 -0.24465,-1.281901 z"
         id="path1799" /><path
         id="path1645"
         style="fill:#ffffff;stroke-width:0.109283"
         d="m 37.045355,109.11632 c 0,-0.0204 0.14735,-0.41983 0.32744,-0.88752 1.29198,-3.35523 1.25374,-6.06814 -0.11835,-8.395191 l -0.30264,-0.513292 1.15381,-0.728595 c 3.14656,-1.986975 5.99338,-4.216414 10.59234,-8.295215 l 1.09867,-0.974407 -0.0518,-4.325845 c -0.0566,-4.72746 0.0152,-5.769027 0.46507,-6.751791 0.44761,-0.977718 1.26468,-2.099324 2.24443,-3.080984 0.94226,-0.944096 0.80693,-0.946602 -0.38249,-0.0071 -1.15854,0.915129 -2.35176,2.300293 -2.87558,3.338164 -0.43532,0.862494 -0.59716,2.608168 -0.63739,6.875042 l -0.0371,3.934208 -1.06634,0.974614 c -1.40919,1.287988 -3.83547,3.306115 -5.3284,4.432058 -2.51387,1.895934 -7.15603,4.863333 -10.43289,6.668984 -3.87392,2.13466 -9.71842,4.24721 -12.875996,4.65415 l -0.57791,0.0745 0.23457,-0.58837 c 2.529806,-6.345599 3.852576,-10.028857 4.045876,-11.265731 0.13736,-0.878904 -0.0275,-1.666055 -0.57258,-2.734421 -0.63836,-1.251124 -0.41634,-2.22665 0.67962,-2.986156 l 0.42738,-0.296175 -0.46563,-0.295291 c -1.13442,-0.719432 -1.27924,-1.261507 -0.73526,-2.752065 0.17992,-0.492993 0.30632,-0.917162 0.28088,-0.942597 -0.0732,-0.0732 -2.914616,1.223908 -4.631586,2.114326 -1.13548,0.588859 -1.54982,0.758951 -1.51044,0.620063 0.0298,-0.105265 0.25255,-0.929054 0.49493,-1.830644 0.24237,-0.901589 1.07641,-3.778479 1.85341,-6.393088 2.701476,-9.090379 4.408486,-14.821924 5.110006,-17.157518 0.95878,-3.192142 3.00914,-9.398386 3.10495,-9.398386 0.0427,0 0.3797,0.365165 0.74888,0.811478 0.36918,0.446314 1.2487,1.327746 1.95448,1.958741 5.03973,4.505645 10.85874,7.557809 17.53924,9.199607 2.62094,0.644122 5.48663,1.051884 7.18534,1.02241 l 0.71034,-0.01232 -0.9694,-0.151165 c -5.13295,-0.800414 -10.28234,-2.468469 -15.16504,-4.912443 -3.13737,-1.570372 -5.43998,-3.012232 -7.0868,-4.437652 l -0.90949,-0.787219 1.24696,-1.21277 c 2.73224,-2.657326 6.24226,-4.402433 10.3708,-5.156146 1.50521,-0.274794 5.56889,-0.275135 6.93555,-5.45e-4 5.72805,1.150725 10.61598,5.088293 13.45153,10.836139 0.8882,1.800452 1.25575,2.932029 1.59737,4.91776 0.49767,2.892878 -0.004,8.36777 -1.10128,12.009544 l -0.32565,1.081188 0.25762,0.503423 c 1.31473,2.569084 4.34273,6.104768 6.38501,7.45552 0.85568,0.565946 0.87761,0.590789 0.58678,0.664831 -0.89725,0.228439 -3.59422,0.535636 -5.21987,0.59457 -2.30613,0.0836 -4.03838,-0.06724 -6.45988,-0.562528 -1.00868,-0.20631 -1.84971,-0.359361 -1.86896,-0.340112 -0.0634,0.06339 2.51669,1.027386 3.52131,1.315675 1.19879,0.344013 2.55293,0.609929 3.10595,0.609929 0.38841,0 0.41746,0.0247 0.54634,0.464456 0.20912,0.713571 1.11334,2.371934 1.87467,3.438201 0.37718,0.528254 1.28385,1.555696 2.01483,2.283204 l 1.32906,1.322737 -2.14094,0.06555 c -1.22425,0.0375 -2.75306,0.158005 -3.57054,0.281467 -3.796,0.573299 -8.05056,2.047837 -11.48618,3.980853 -1.90388,1.07119 -6.33699,4.10056 -10.1977,6.96861 -1.99136,1.47935 -2.8437,2.06529 -3.44243,2.36652 -0.45334,0.22808 -0.92891,0.39949 -0.92891,0.3348 z m -12.91366,-9.649138 c 1.62193,-4.821712 2.63808,-10.791552 2.64142,-15.518264 l 10e-4,-1.639254 1.61115,-0.777104 c 3.78132,-1.823841 6.44198,-4.249537 7.89809,-7.200595 0.29657,-0.60106 0.56792,-1.219567 0.60299,-1.374461 l 0.0638,-0.281624 -0.79782,0.09529 c -0.43879,0.05241 -0.83214,0.154549 -0.87411,0.226982 -1.16202,2.005475 -2.21207,3.142689 -4.02867,4.36308 -1.02552,0.688948 -1.40273,0.776363 -3.09177,0.716507 -1.38042,-0.04892 -1.40054,-0.04623 -1.3361,0.178669 0.036,0.125585 0.12238,0.602236 0.192,1.059223 0.15467,1.015377 0.0575,1.312103 -0.6666,2.036229 l -0.50171,0.501708 -0.0145,2.905497 c -0.019,3.804906 -0.26733,6.419118 -0.98197,10.33678 -0.28322,1.552601 -0.97392,4.456374 -1.36095,5.721575 -0.50966,1.66606 -0.0386,0.67779 0.64361,-1.350234 z m -1.46459,-19.061573 c 0.63522,-1.107336 1.15494,-2.051217 1.15494,-2.097514 0,-0.132429 -0.91677,-0.644923 -0.9972,-0.557452 -0.10892,0.118465 -0.92598,2.46375 -1.23498,3.544909 -0.14981,0.524146 -0.35326,1.114277 -0.45211,1.311403 l -0.17974,0.358411 0.27708,-0.273209 c 0.15239,-0.150265 0.79679,-1.179211 1.43201,-2.286548 z m 1.97062,-5.212806 c 1.98919,-0.482068 4.89715,-2.097755 8.20021,-4.55611 2.18231,-1.62421 4.31723,-2.390665 6.65228,-2.388213 0.59335,6.61e-4 1.03594,-0.03944 0.98355,-0.08902 -0.17684,-0.167352 -1.92516,-0.663634 -2.73436,-0.776185 -0.54971,-0.07646 -1.0597,-0.07607 -1.61536,0.0012 -1.34435,0.186981 -1.94738,0.486285 -3.47234,1.723432 -3.64668,2.958424 -4.58143,3.61701 -6.29665,4.436353 -0.92243,0.440635 -1.28544,0.556054 -1.88341,0.598839 -0.69464,0.0497 -0.75928,0.03447 -1.03851,-0.244766 -0.28891,-0.288903 -0.2958,-0.324291 -0.23165,-1.188834 0.0363,-0.490087 0.26463,-1.799519 0.50726,-2.90985 0.60318,-2.760266 0.58705,-2.780963 -0.21286,-0.273055 -1.01298,3.175947 -1.2812,4.525572 -1.00278,5.045791 0.0689,0.128817 0.30726,0.384164 0.5296,0.567436 0.43237,0.356394 0.37125,0.35439 1.61502,0.05297 z M 64.269015,60.41279 c -1.02725,-2.960641 -3.06423,-6.160278 -5.23992,-8.230733 -1.77921,-1.693145 -4.60566,-3.358078 -6.73868,-3.969449 -2.32512,-0.666431 -3.57112,-0.852142 -5.79203,-0.863275 -1.14201,-0.0057 -2.44808,0.02767 -2.90236,0.07421 l -0.82597,0.08462 -0.55985,-1.122812 c -0.30792,-0.617548 -0.799038,-1.430911 -1.05521,-1.831662 -0.234741,-0.367225 -0.501176,-0.689277 -0.41735,-0.78229 0.09338,-0.103614 2.11436,-0.488852 3.30186,-0.645065 1.30965,-0.172279 4.10071,-0.144841 5.5062,0.05413 4.99461,0.707079 9.36525,2.876088 13.11282,6.507471 2.41342,2.338596 4.19576,5.078369 5.01319,7.706122 0.4637,1.490663 0.46672,1.403118 -0.0573,1.658857 -0.61941,0.302293 -1.67561,1.107993 -2.39329,1.825674 l -0.58687,0.586872 z" /><path
         style="fill:#cf191a;stroke-width:0.109283"
         d="m 4.6549348,123.14706 c -1.39141,-0.36292 -2.04836,-1.21136 -2.13808,-2.76129 l -0.0497,-0.85899 h 1.05223 1.05224 v 0.386 c 0,0.48408 0.22388,1.02353 0.54281,1.3079 0.18716,0.16688 0.39969,0.21856 0.89881,0.21856 0.58074,0 0.68313,-0.0342 0.91744,-0.30662 0.20266,-0.23561 0.26375,-0.43302 0.26375,-0.85238 0,-0.9571 -0.29933,-1.26971 -2.24032,-2.33975 -1.06829,-0.58893 -1.84758,-1.39298 -2.06735,-2.13302 -0.32502,-1.09445 -0.20428,-2.19216 0.32516,-2.95614 1.07132,-1.54591 4.21489,-1.75884 5.55838,-0.37649 0.53228,0.54768 0.71908,1.07095 0.71908,2.01436 v 0.67444 l -0.99904,-0.0314 -0.99903,-0.0314 -0.13235,-0.52224 c -0.19394,-0.7653 -0.51796,-1.06237 -1.15875,-1.06237 -0.72188,0 -1.19146,0.38944 -1.19146,0.98812 0,0.8183 0.24619,1.06724 2.13103,2.15485 1.60529,0.92629 2.29215,1.83653 2.42014,3.20716 0.16858,1.8052 -0.84234,3.06818 -2.69664,3.36902 -0.94975,0.15409 -1.33871,0.13855 -2.20832,-0.0883 z m 67.2059902,0.0978 c -1.20245,-0.2174 -2.12596,-0.98141 -2.432,-2.01196 -0.20991,-0.70684 -0.23572,-6.95178 -0.0315,-7.63324 0.18336,-0.61201 0.95148,-1.42303 1.64272,-1.73445 0.48314,-0.21767 0.75465,-0.26006 1.66979,-0.26073 1.42262,-8.2e-4 2.09013,0.2211 2.80124,0.93221 0.83754,0.83755 0.88028,1.1001 0.83948,5.15711 l -0.0344,3.41756 -0.29677,0.56268 c -0.35524,0.67355 -0.93743,1.17971 -1.61223,1.40169 -0.63224,0.20799 -1.87492,0.29052 -2.54633,0.16913 z m 1.6504,-2.04572 c 0.51018,-0.31893 0.56463,-0.68289 0.56444,-3.77259 -2.1e-4,-3.25747 -0.0441,-3.47188 -0.78572,-3.83438 -0.33221,-0.16238 -0.47862,-0.17693 -0.82959,-0.0824 -0.23441,0.0631 -0.51468,0.21255 -0.62284,0.33205 -0.28091,0.3104 -0.41323,1.98693 -0.36426,4.61524 0.0367,1.97092 0.0593,2.18008 0.26608,2.45888 0.40189,0.542 1.16328,0.6637 1.77189,0.28322 z m 15.25052,2.00559 c -1.34754,-0.34473 -2.08703,-1.13486 -2.18453,-2.33411 -0.0283,-0.34844 -0.0711,-0.79336 -0.095,-0.9887 l -0.0435,-0.35518 h 1.01873 1.01873 l 0.0752,0.60219 c 0.10028,0.80264 0.44593,1.21829 1.0939,1.31546 1.27965,0.1919 1.92115,-0.68192 1.37828,-1.87742 -0.21744,-0.47886 -0.61864,-0.79745 -1.88344,-1.49564 -1.72256,-0.95088 -2.38417,-1.80254 -2.47178,-3.1818 -0.0928,-1.46095 0.38413,-2.34227 1.5751,-2.91066 1.30547,-0.62305 3.03394,-0.53732 4.13745,0.2052 0.61208,0.41185 1.02885,1.27515 1.06515,2.20635 l 0.0277,0.71034 -1.01272,0.0314 c -1.09727,0.0341 -1.0499,0.0603 -1.16709,-0.64758 -0.0363,-0.21916 -0.199,-0.53075 -0.36262,-0.69437 -0.26674,-0.26675 -0.35693,-0.29183 -0.89014,-0.24761 -0.74283,0.0616 -1.1027,0.41035 -1.1027,1.06863 0,0.53973 0.38692,1.00104 1.27325,1.51804 2.71598,1.58426 3.32395,2.34698 3.31187,4.15493 -0.009,1.31878 -0.46735,2.09077 -1.56187,2.62961 -0.57633,0.28373 -0.85342,0.34811 -1.66603,0.38712 -0.60056,0.0288 -1.18936,-0.008 -1.53387,-0.0962 z m -77.63324,-5.80901 v -5.73739 h 1.76691 c 2.14555,0 2.95285,0.12687 3.71623,0.58404 0.45509,0.27254 0.64302,0.47635 0.89604,0.97174 0.30412,0.59543 0.32072,0.6996 0.33097,2.07639 0.0103,1.38037 -0.004,1.47951 -0.29798,2.07832 -0.51544,1.04966 -1.37692,1.50826 -3.01411,1.60451 l -1.04846,0.0616 -0.0297,2.04906 -0.0297,2.04907 h -1.14507 -1.14506 z m 3.73319,-0.44723 c 0.32879,-0.0962 0.55926,-0.60777 0.61316,-1.36118 0.0994,-1.38959 -0.312,-1.96188 -1.41043,-1.96188 h -0.64096 v 1.6863 c 0,1.6609 0.004,1.68705 0.24589,1.73688 0.24595,0.0506 0.85062,-2.2e-4 1.19234,-0.10012 z m 3.15168,6.12151 c 0,-0.0347 0.44419,-1.94034 0.98709,-4.23474 0.5429,-2.2944 1.14187,-4.84782 1.33104,-5.67428 l 0.34395,-1.50265 h 1.45569 c 0.80063,0 1.45569,0.0195 1.45569,0.0434 0,0.0238 0.58421,2.44584 1.29825,5.38221 0.71404,2.93637 1.33266,5.49868 1.37473,5.69402 l 0.0765,0.35517 h -1.20305 -1.20306 l -0.12663,-0.62838 c -0.0697,-0.34561 -0.18484,-0.89885 -0.25597,-1.22944 l -0.12933,-0.60106 -1.27331,-0.0307 c -1.14332,-0.0276 -1.2788,-0.0108 -1.32714,0.16393 -0.0296,0.10705 -0.14078,0.67412 -0.24705,1.26016 l -0.19322,1.06551 h -1.18208 c -0.65014,0 -1.18207,-0.0284 -1.18207,-0.0631 z m 4.97089,-4.44484 c -0.0332,-0.13524 -0.24954,-1.22944 -0.4808,-2.43156 -0.23125,-1.20212 -0.44775,-2.11191 -0.48109,-2.02175 -0.0787,0.2127 -0.70827,3.50487 -0.79941,4.1801 l -0.0701,0.51909 h 0.94585 c 0.9259,0 0.94457,-0.005 0.88553,-0.24588 z m 4.53678,-1.22944 v -5.73739 h 1.94703 c 2.70559,0 3.59138,0.19478 4.30301,0.94622 0.56155,0.59296 0.73912,1.17799 0.74109,2.44157 8.3e-4,0.63111 -0.0508,1.33704 -0.11518,1.56873 -0.13742,0.49494 -0.84194,1.30044 -1.30524,1.49234 -0.17881,0.0741 -0.3251,0.15869 -0.3251,0.18806 0,0.0294 0.4426,1.10258 0.98355,2.38491 0.54095,1.28234 0.98355,2.35884 0.98355,2.39223 0,0.0334 -0.53173,0.0607 -1.18162,0.0607 h -1.18162 l -0.92209,-2.23925 c -0.90895,-2.20736 -1.05621,-2.4391 -1.4531,-2.2868 -0.15813,0.0607 -0.17933,0.33221 -0.17933,2.29743 v 2.22862 h -1.14748 -1.14747 z m 4.23693,-0.90544 c 0.37544,-0.35072 0.52446,-0.97627 0.4117,-1.7282 -0.12978,-0.8655 -0.69368,-1.23661 -1.88922,-1.24332 l -0.46446,-0.002 v 1.63925 1.63925 h 0.80807 c 0.73316,0 0.83828,-0.0282 1.13391,-0.30438 z m 5.92644,1.88899 v -4.75384 h -1.25676 -1.25676 v -0.98355 -0.98355 h 3.55171 3.55172 v 0.97985 0.97986 l -1.1748,0.031 -1.1748,0.031 v 4.72653 4.72653 l -1.12016,-2e-5 -1.12015,-2e-5 z m 4.43633,4.56259 c 0.59614,-2.56084 2.58116,-10.95369 2.62346,-11.09228 0.0516,-0.16918 0.22026,-0.19125 1.46118,-0.19125 h 1.40281 l 0.39609,1.63807 c 0.21784,0.90095 0.8373,3.43707 1.37655,5.63583 0.53926,2.19876 0.98047,4.04345 0.98047,4.09931 0,0.0564 -0.53152,0.10156 -1.19437,0.10156 h -1.19437 l -0.12664,-0.62838 c -0.0696,-0.34561 -0.18484,-0.89886 -0.25597,-1.22944 l -0.12933,-0.60106 -1.26689,-0.0306 -1.26688,-0.0306 -0.24764,1.2601 -0.24763,1.2601 h -1.17769 c -1.0657,0 -1.17344,-0.0182 -1.13315,-0.19124 z m 4.92101,-4.26206 c -0.0307,-0.10519 -0.24009,-1.16251 -0.46537,-2.3496 -0.22528,-1.18709 -0.43709,-2.15817 -0.47069,-2.15794 -0.0336,2.1e-4 -0.26091,1.05754 -0.50514,2.34959 l -0.44404,2.34919 h 0.97051 c 0.87268,0 0.96488,-0.0193 0.91473,-0.19124 z m 4.52167,-1.28408 v -5.73739 h 1.14053 1.14052 l 0.47679,1.01087 c 0.26224,0.55598 0.99074,2.14877 1.61889,3.53952 l 1.14209,2.52865 0.0288,-3.53952 0.0288,-3.53952 h 0.98206 0.98206 v 5.73739 5.73738 h -1.07951 -1.0795 l -1.11872,-2.43156 c -0.6153,-1.33735 -1.34667,-2.94192 -1.62527,-3.56569 l -0.50654,-1.13414 -0.0288,3.5657 -0.0288,3.56569 h -1.0367 -1.0367 z m 9.61695,-0.0114 v -5.74879 l 2.15835,0.0467 c 1.90806,0.0413 2.23081,0.075 2.78319,0.29113 0.72845,0.28503 1.39792,0.96907 1.59624,1.63101 0.19192,0.64056 0.16572,2.94806 -0.0401,3.53176 -0.39889,1.13129 -1.46058,1.74801 -3.13722,1.82239 l -1.06551,0.0473 v 2.06368 2.06368 h -1.14748 -1.14748 z m 3.72879,-0.4922 c 0.35622,-0.13961 0.52067,-0.48974 0.60295,-1.2837 0.13951,-1.34639 -0.30858,-1.98298 -1.39582,-1.98298 h -0.64096 v 1.68588 c 0,1.51245 0.0197,1.69136 0.19125,1.73916 0.24247,0.0675 0.87035,-0.0125 1.24258,-0.15836 z m 13.31945,0.5036 v -5.73739 l 1.61193,0.002 c 2.65374,0.004 3.75446,0.26288 4.54232,1.07011 0.71828,0.73593 0.7706,1.01919 0.81534,4.41396 0.033,2.50227 0.01,3.14673 -0.13384,3.71564 -0.31702,1.25596 -1.02841,1.91201 -2.34378,2.16146 -0.32317,0.0613 -1.46608,0.11144 -2.53978,0.11144 h -1.95219 z m 4.32727,3.40773 0.26264,-0.30534 v -3.0391 c 0,-2.89616 -0.0105,-3.05248 -0.22354,-3.3233 -0.25766,-0.32756 -0.80964,-0.50879 -1.55232,-0.50966 l -0.51909,-4.2e-4 v 3.78186 3.78185 l 0.88484,-0.0402 c 0.80906,-0.0368 0.90733,-0.0663 1.14747,-0.34551 z"
         id="path1643" /><path
         style="fill:#000000;stroke-width:0.264583"
         d="m -679.68135,60.098695 v -135.46666 h 135.46666 135.46666 V 60.098695 195.56536 h -135.46666 -135.46666 z m 34.12327,114.282855 c 4.4894,-0.72837 6.9369,-3.78613 6.52877,-8.15666 -0.30987,-3.31838 -1.97283,-5.52213 -5.85933,-7.76476 -4.56334,-2.63318 -5.15938,-3.23588 -5.15938,-5.21703 0,-1.44946 1.13688,-2.39232 2.8846,-2.39232 1.5514,0 2.33588,0.71922 2.80542,2.57208 l 0.32042,1.26438 2.41874,0.0761 2.41874,0.0761 v -1.63288 c 0,-2.28406 -0.45225,-3.55094 -1.74095,-4.87691 -3.25268,-3.34676 -10.8635,-2.83124 -13.45724,0.91152 -1.2818,1.84964 -1.57412,4.50727 -0.78723,7.15701 0.53207,1.7917 2.4188,3.73836 5.00521,5.16421 4.69926,2.59063 5.42396,3.34749 5.42396,5.66471 0,1.0153 -0.14789,1.49323 -0.63855,2.06366 -0.56729,0.65952 -0.81516,0.74236 -2.22118,0.74236 -1.20842,0 -1.72296,-0.12512 -2.17609,-0.52917 -0.77214,-0.68848 -1.31418,-1.99452 -1.31418,-3.1665 v -0.93454 h -2.54754 -2.54753 l 0.12039,2.07968 c 0.21722,3.75249 1.80776,5.80663 5.17644,6.68528 2.1054,0.54915 3.04711,0.58679 5.34651,0.21373 z m 163.52885,-0.38633 c 1.63375,-0.53744 3.04327,-1.76289 3.90333,-3.39361 l 0.7185,-1.36229 0.0832,-8.27415 c 0.0988,-9.82231 -0.005,-10.45797 -2.03246,-12.48572 -1.72165,-1.72165 -3.33772,-2.25946 -6.78199,-2.25695 -2.21563,0.002 -2.87296,0.10425 -4.04268,0.63124 -1.67354,0.75398 -3.53322,2.7175 -3.97716,4.19923 -0.49431,1.64987 -0.43183,16.76931 0.0764,18.48062 0.74095,2.49504 2.97682,4.34475 5.88804,4.8711 1.62554,0.2939 4.63415,0.0941 6.16484,-0.40947 z m -5.01068,-4.18189 c -0.49569,-0.17018 -1.14743,-0.64141 -1.4483,-1.04718 -0.50051,-0.675 -0.55531,-1.18138 -0.6442,-5.95312 -0.11856,-6.36333 0.2018,-10.42232 0.88191,-11.17382 0.26185,-0.28934 0.94042,-0.65111 1.50793,-0.80392 0.84973,-0.22881 1.20419,-0.19359 2.0085,0.19955 1.79546,0.87763 1.90183,1.39672 1.9023,9.28329 2.6e-4,5.40112 -0.0833,7.15409 -0.37436,7.85078 -0.62679,1.50011 -2.23941,2.19181 -3.83378,1.64442 z m 47.51138,3.78996 c 2.64992,-1.30455 3.76005,-3.17361 3.78139,-6.36647 0.0292,-4.37718 -1.44267,-6.22378 -8.01826,-10.05937 -2.14586,-1.25169 -3.08263,-2.36856 -3.08263,-3.67529 0,-1.59375 0.87127,-2.4381 2.66972,-2.58724 1.29094,-0.10705 1.50928,-0.0463 2.15508,0.59948 0.39614,0.39615 0.7901,1.15052 0.87793,1.68114 0.28372,1.71395 0.16905,1.65032 2.82561,1.56783 l 2.45187,-0.0761 -0.067,-1.71979 c -0.0879,-2.25451 -1.0969,-4.34462 -2.57879,-5.34174 -2.67168,-1.79769 -6.85642,-2.00524 -10.01707,-0.4968 -2.88343,1.37613 -4.0381,3.50987 -3.81343,7.04693 0.21211,3.33929 1.81391,5.40121 5.98436,7.70336 3.06216,1.69036 4.0335,2.4617 4.55995,3.62104 1.31433,2.89439 -0.2388,5.00998 -3.33693,4.54538 -1.56878,-0.23525 -2.40561,-1.24158 -2.64841,-3.18482 l -0.18215,-1.45794 h -2.46642 -2.46643 l 0.10542,0.8599 c 0.058,0.47294 0.16154,1.55012 0.23012,2.39373 0.32511,3.99881 3.60591,6.14315 9.00253,5.88406 1.96739,-0.0945 2.63824,-0.25033 4.03358,-0.93726 z m -190.08627,-4.43011 0.072,-4.96094 2.5384,-0.14924 c 3.96374,-0.23303 6.04946,-1.34333 7.29737,-3.88464 0.7119,-1.44975 0.74632,-1.68978 0.72144,-5.03174 -0.0248,-3.33332 -0.065,-3.58552 -0.8013,-5.02709 -0.6126,-1.19939 -1.06759,-1.69282 -2.16938,-2.35265 -1.84821,-1.10684 -3.80274,-1.41402 -8.99727,-1.41402 h -4.2778 v 13.89063 13.89062 h 2.77228 2.77229 z m 0.53501,-9.77006 c -0.58635,-0.12063 -0.59531,-0.18395 -0.59531,-4.20512 v -4.08264 h 1.55182 c 2.65938,0 3.65547,1.38554 3.41475,4.74986 -0.13051,1.82404 -0.68848,3.06269 -1.48451,3.29551 -0.82732,0.24198 -2.29128,0.3649 -2.88675,0.24239 z m 16.70876,12.15131 c 0.25729,-1.41883 0.52644,-2.79175 0.59813,-3.05093 0.11704,-0.42314 0.44504,-0.46365 3.2131,-0.39688 l 3.08277,0.0744 0.31312,1.45521 c 0.17221,0.80036 0.45109,2.13981 0.61972,2.97656 l 0.3066,1.52135 h 2.91268 2.91268 l -0.18515,-0.85989 c -0.10184,-0.47295 -1.59958,-6.67648 -3.32832,-13.78564 -1.72873,-7.10915 -3.14315,-12.97298 -3.14315,-13.03072 0,-0.0577 -1.58595,-0.105 -3.52434,-0.105 h -3.52432 l -0.83272,3.63803 c -0.458,2.00091 -1.90814,8.18294 -3.22255,13.73784 -1.3144,5.55491 -2.38982,10.16858 -2.38982,10.2526 0,0.084 1.28785,0.15278 2.86189,0.15278 h 2.86189 z m 1.57907,-8.99584 c 0.22067,-1.63476 1.745,-9.60536 1.93543,-10.12031 0.0807,-0.21828 0.60488,1.98438 1.16477,4.89479 0.5599,2.91042 1.08372,5.55956 1.16404,5.88698 0.14295,0.58276 0.0977,0.59531 -2.14393,0.59531 h -2.28996 z m 20.80436,6.17987 c 0,-4.75794 0.0513,-5.41534 0.43415,-5.56225 0.96092,-0.36874 1.31744,0.19232 3.51807,5.5365 l 2.23244,5.4214 h 2.86079 c 1.57344,0 2.86079,-0.0661 2.86079,-0.14698 0,-0.0808 -1.07156,-2.68713 -2.38124,-5.79176 -1.30969,-3.10462 -2.38125,-5.70294 -2.38125,-5.77404 0,-0.0711 0.35419,-0.27598 0.7871,-0.4553 1.12168,-0.46461 2.82736,-2.41479 3.16008,-3.61307 0.15576,-0.56094 0.28125,-2.27004 0.27886,-3.79801 -0.005,-3.05922 -0.43469,-4.47561 -1.79425,-5.91121 -1.72291,-1.81929 -3.86747,-2.29088 -10.41789,-2.29088 h -4.7139 v 13.89063 13.89062 h 2.77812 2.77813 z m 0,-13.91893 v -3.96875 l 1.12447,0.006 c 2.89449,0.0163 4.25973,0.91473 4.57396,3.01017 0.273,1.82049 -0.0878,3.33499 -0.99677,4.1841 -0.71575,0.66861 -0.97024,0.73692 -2.74527,0.73692 l -1.95639,-1e-5 z m 24.47395,7.8714 v -11.44327 l 2.84427,-0.0751 2.84427,-0.0751 v -2.3723 -2.3723 h -8.59895 -8.59896 v 2.38125 2.38125 h 3.04271 3.0427 v 11.50938 11.50937 l 2.71198,5e-5 2.71198,4e-5 z m 11.51097,8.39239 0.59954,-3.05079 3.06722,0.0742 3.06722,0.0742 0.31312,1.45521 c 0.17221,0.80036 0.45109,2.13981 0.61972,2.97656 l 0.3066,1.52135 h 2.89166 c 1.60481,0 2.89166,-0.10942 2.89166,-0.24588 0,-0.13524 -1.0682,-4.60137 -2.37378,-9.92473 -1.30558,-5.32336 -2.80532,-11.46349 -3.33274,-13.64474 l -0.95896,-3.9659 h -3.39631 c -3.00435,0 -3.41261,0.0534 -3.53761,0.46303 -0.10241,0.33555 -4.90828,20.65523 -6.3516,26.8552 -0.0975,0.419 0.16331,0.46302 2.74346,0.46302 h 2.85125 z m 2.23063,-12.95552 c 0.59129,-3.12815 1.14162,-5.688 1.22297,-5.68854 0.0813,-5.3e-4 0.59415,2.35051 1.13957,5.22454 0.54542,2.87404 1.05243,5.43388 1.1267,5.68854 0.12142,0.41635 -0.10181,0.46302 -2.21464,0.46302 h -2.34967 z m 19.52614,7.37351 0.0698,-8.63281 1.22638,2.74583 c 0.67451,1.5102 2.44521,5.39497 3.93489,8.6328 l 2.7085,5.88698 h 2.61355 2.61356 v -13.89062 -13.89063 h -2.37764 -2.37763 l -0.0698,8.56944 -0.0698,8.56943 -2.76508,-6.12204 c -1.5208,-3.36712 -3.28454,-7.22336 -3.91944,-8.56943 l -1.15435,-2.4474 h -2.76129 -2.76129 v 13.89063 13.89062 h 2.50992 2.50993 z m 23.74997,3.63649 v -4.99631 l 2.57969,-0.11444 c 4.05927,-0.18008 6.62969,-1.67322 7.59542,-4.41214 0.49829,-1.41319 0.56171,-6.99981 0.0971,-8.55065 -0.48015,-1.6026 -2.10098,-3.25872 -3.86461,-3.94878 -1.33735,-0.52326 -2.11875,-0.605 -6.7383,-0.70486 l -5.22552,-0.11297 v 13.91823 13.91823 h 2.77812 2.77813 z m 0.46302,-9.73017 c -0.41539,-0.11572 -0.46302,-0.54887 -0.46302,-4.21062 v -4.08165 h 1.55182 c 1.91685,0 2.80203,0.6014 3.23373,2.197 0.33006,1.21993 0.16527,3.7148 -0.315,4.76887 -0.42871,0.94091 -2.69671,1.69156 -4.00753,1.3264 z m 46.13112,14.45669 c 3.1846,-0.60395 4.90692,-2.1923 5.67445,-5.23307 0.34767,-1.37737 0.40387,-2.93764 0.32403,-8.99583 -0.10831,-8.21897 -0.23499,-8.90478 -1.97399,-10.68652 -1.90747,-1.95435 -4.57239,-2.58217 -10.99728,-2.59079 l -3.9026,-0.005 v 13.89063 13.89062 h 4.72638 c 2.59952,0 5.36657,-0.1214 6.14901,-0.26979 z m -5.31914,-13.59281 v -9.15615 l 1.25677,0.002 c 1.79808,0.002 3.13445,0.44088 3.75827,1.23394 0.51575,0.65567 0.54121,1.03412 0.54121,8.04593 v 7.3579 l -0.63587,0.73923 c -0.5814,0.67593 -0.81932,0.74757 -2.77812,0.83652 l -2.14226,0.0972 z m -102.82335,-20.82717 c 1.91138,-0.97102 1.93109,-0.98442 7.6542,-5.2039 3.99902,-2.94836 7.19138,-5.22976 15.33951,-10.96225 10.69237,-7.52245 20.36922,-12.09879 31.14631,-14.72962 5.65433,-1.38029 12.11529,-2.1478 18.08043,-2.1478 h 2.62883 l -3.04504,-2.97656 c -4.44744,-4.347437 -7.84035,-9.187797 -9.35898,-13.351606 -0.67676,-1.855555 -0.73561,-1.928077 -1.56458,-1.928077 -1.32383,0 -4.86084,-0.727562 -7.86489,-1.617808 -2.75544,-0.816568 -8.24052,-2.863977 -8.08617,-3.018319 0.0465,-0.04651 1.03655,0.145875 2.20009,0.42753 5.79292,1.402286 8.39219,1.680982 15.60926,1.673635 5.76628,-0.0059 7.48729,-0.101714 10.63818,-0.592447 5.35036,-0.83329 5.24442,-0.757023 3.07477,-2.213533 -5.53732,-3.717274 -12.45653,-11.717536 -15.6323,-18.074682 -0.63202,-1.265166 -0.74263,-1.721805 -0.54476,-2.248958 0.62848,-1.674357 1.83184,-6.500788 2.30887,-9.260416 1.00653,-5.822844 1.21358,-8.30558 1.21358,-14.552083 0,-6.711965 -0.29221,-8.833897 -1.88796,-13.709641 -2.11838,-6.472645 -7.44627,-14.617602 -13.1089,-20.0401184 -6.49124,-6.2159907 -14.76194,-10.3774337 -23.10314,-11.6244737 -7.09361,-1.060521 -16.45301,-0.192259 -23.25904,2.157714 -7.10197,2.452159 -13.04338,6.0914707 -18.00713,11.0299787 l -2.37243,2.360361 1.57868,1.4694564 c 3.2434,3.019018 7.47455,5.845032 14.01409,9.360106 12.74191,6.848922 24.64794,11.022348 38.76145,13.587068 l 3.57188,0.649087 -3.04271,-0.144407 c -11.4762,-0.544658 -25.29046,-4.411163 -37.30966,-10.442675 -9.16422,-4.598824 -20.60162,-13.186156 -25.64048,-19.2511754 l -1.59737,-1.92268 -0.36715,0.878705 c -0.80144,1.918121 -5.55561,16.6214984 -7.67491,23.7364454 -3.33417,11.193557 -10.41079,34.877741 -11.46298,38.364581 -1.36335,4.518009 -5.81766,20.107621 -6.03023,21.105206 l -0.18424,0.864579 4.71841,-2.359943 c 5.10865,-2.555129 10.16545,-4.858287 10.32234,-4.701397 0.0539,0.05385 -0.13802,0.648295 -0.42637,1.32099 -0.28835,0.672695 -0.66043,1.72875 -0.82686,2.346791 -0.67251,2.497529 -0.2413,3.634972 1.9332,5.09937 l 1.29669,0.873236 -0.99304,0.756314 c -1.32595,1.009851 -2.48651,2.879809 -2.48651,4.006399 0,0.49363 0.43631,1.86931 0.96959,3.05705 2.23366,4.974927 2.05283,6.503477 -2.08651,17.637657 -1.056,2.84046 -6.13574,15.95368 -6.73892,17.39636 -0.20692,0.4949 0.88004,0.41719 4.54564,-0.32501 6.65734,-1.34796 18.0889,-5.57657 25.63888,-9.48398 5.28301,-2.73417 11.49435,-6.4218 17.88798,-10.61996 8.38546,-5.50603 12.97119,-9.00384 20.73344,-15.814647 l 4.53427,-3.97848 -0.0884,-6.512667 c -0.0917,-6.755786 0.22101,-12.792297 0.87066,-16.805496 0.27788,-1.716567 0.60765,-2.713612 1.25268,-3.787394 1.29682,-2.158833 3.55699,-4.754253 5.71603,-6.563894 3.03069,-2.540228 3.75517,-2.782832 1.43714,-0.481246 -3.20545,3.182702 -5.55407,7.027259 -6.12184,10.021056 -0.43467,2.292028 -0.60454,11.380615 -0.33118,17.718897 0.23858,5.531709 0.22239,6.130864 -0.17796,6.584964 -1.54605,1.75357 -13.62285,12.000337 -18.28075,15.510607 -3.70448,2.79177 -11.14673,7.81982 -11.95344,8.07586 -0.29159,0.0925 -0.49384,0.24746 -0.44945,0.34426 0.0444,0.0968 0.58554,1.18801 1.20256,2.42494 0.61701,1.23693 1.30349,2.96333 1.5255,3.83646 0.53594,2.10774 0.53713,6.85685 0.002,9.38516 -0.34796,1.64508 -1.67598,5.94943 -2.39006,7.74661 -0.2665,0.67072 0.2274,0.58558 2.08887,-0.36009 z m -35.15191,-18.62377 c 0.0975,-0.29104 0.81021,-3.02948 1.58391,-6.08541 2.89047,-11.41678 4.36427,-23.430995 4.36427,-35.577084 v -5.240189 l 0.66671,-0.436845 c 0.36669,-0.240263 1.02153,-0.926667 1.45521,-1.525337 0.92689,-1.279543 1.03945,-2.84486 0.38518,-5.356783 -0.22183,-0.851646 -0.37066,-1.57871 -0.33073,-1.615696 0.0399,-0.03699 1.19957,0.03796 2.577,0.166539 2.90515,0.271195 5.12393,-0.0051 6.71923,-0.836562 2.11179,-1.10073 6.04585,-4.301265 7.663,-6.234199 1.37125,-1.639028 3.3763,-4.584883 3.6712,-5.393793 0.0438,-0.120169 0.95618,-0.30393 2.02749,-0.408356 l 1.94784,-0.189867 -0.18524,0.632415 c -0.10187,0.347829 -0.69955,1.70576 -1.32816,3.017625 -3.5301,7.366992 -10.74294,13.849022 -20.10936,18.07184 l -2.91041,1.312151 -0.16554,5.122693 c -0.33482,10.361241 -1.86265,20.703558 -4.45533,30.159328 -1.08458,3.95558 -3.03889,9.85869 -3.49255,10.54944 -0.20125,0.30641 -0.22039,0.27625 -0.0837,-0.13191 z m -5.15981,-45.696561 c 0.26412,-0.769602 0.85383,-2.626315 1.31046,-4.126032 0.45664,-1.499719 1.19244,-3.675252 1.63513,-4.834524 l 0.80488,-2.107764 0.96678,0.577387 c 0.53173,0.317564 1.06824,0.665745 1.19224,0.773735 0.23469,0.204385 -5.37243,10.272214 -6.02049,10.810054 -0.28008,0.232449 -0.25329,-0.03136 0.111,-1.092856 z m 3.79759,-17.486465 c -1.00184,-0.91874 -1.02362,-0.978067 -1.00735,-2.744671 0.009,-0.993101 0.22071,-2.579542 0.47016,-3.525428 0.76949,-2.917872 3.17405,-10.58257 3.2851,-10.471512 0.0578,0.05778 -0.32962,2.050556 -0.8609,4.428387 -1.0893,4.875339 -1.43591,8.266491 -0.93969,9.193691 0.51415,0.960699 1.85877,1.385043 3.43911,1.085337 4.10657,-0.778793 9.38783,-4.033539 17.60834,-10.851703 3.90403,-3.238034 5.67561,-4.38972 7.72727,-5.023413 3.28334,-1.014121 8.39561,-0.575257 12.00606,1.030666 l 1.16876,0.519861 -1.5875,-0.138261 c -2.09757,-0.182684 -6.53497,0.511802 -9.25031,1.447739 -2.89525,0.997951 -4.82585,2.113018 -9.33346,5.390777 -8.56845,6.230638 -15.66907,9.888558 -20.2376,10.425498 -1.41007,0.165727 -1.50175,0.137462 -2.48799,-0.766968 z m 144.49534,26.604379 c -2.75891,-2.730648 -5.52493,-7.78896 -6.62015,-12.106452 -1.13957,-4.49231 -1.24552,-6.325197 -1.05517,-18.254484 0.14831,-9.295077 0.10927,-11.658576 -0.2387,-14.451438 -0.39349,-3.158273 -1.27121,-6.796677 -2.14289,-8.88289 -0.53506,-1.280586 -0.49047,-1.420439 0.15247,-0.478171 1.03433,1.51588 2.58548,4.798851 3.13146,6.627635 0.45145,1.512189 1.28192,5.645322 1.37327,6.834626 0.0571,0.743607 0.55095,-1.608791 1.02093,-4.863303 0.49746,-3.444766 1.02659,-11.892327 0.85947,-13.721349 -0.10883,-1.191107 -1.09929,-2.705076 -3.20244,-4.89513 -2.35598,-2.45332 -4.50917,-3.942495 -7.32519,-5.066199 -2.02069,-0.806337 -2.18639,-0.915776 -1.16509,-0.76953 1.72109,0.246454 5.18245,1.37396 6.94679,2.262849 1.07828,0.54325 1.92704,1.261078 2.9075,2.458987 0.76158,0.930476 1.47529,1.635775 1.58603,1.567333 0.5269,-0.325644 0.0661,-5.606304 -0.98318,-11.2661354 -0.52831,-2.849766 -2.35484,-10.18908565 -2.59244,-10.4168597 -0.0327,-0.03137 -2.97652,0.22500705 -6.54178,0.56971905 -3.56526,0.34471 -7.13714,0.688007 -7.9375,0.7628787 l -1.45521,0.1361334 1.98437,-0.6585271 c 1.09141,-0.36219 4.41367,-1.31025905 7.3828,-2.10681805 2.96913,-0.79656 5.44444,-1.494309 5.50068,-1.550551 0.48135,-0.481349 -7.13638,-16.0442979 -7.85333,-16.0442979 -0.224,0 -14.43237,6.131848 -15.53419,6.704028 -2.79837,1.453194 0.3307,-0.688102 9.31342,-6.373413 2.18281,-1.381535 4.12177,-2.654617 4.30878,-2.829067 0.70425,-0.656918 -5.7159,-8.897824 -10.77896,-13.835872 -1.82567,-1.780598 -3.39626,-3.239114 -3.4902,-3.241146 -0.0939,-0.0021 -2.41566,2.158855 -5.15938,4.801973 -7.64323,7.362992 -9.2369,8.866034 -8.79114,8.291206 0.2257,-0.291042 1.64083,-2.136511 3.14474,-4.101042 1.50392,-1.964531 4.03822,-5.21394 5.63179,-7.22091 1.59358,-2.006968 2.85276,-3.685185 2.79818,-3.729371 -3.14638,-2.547328 -7.56208,-5.448379 -10.91906,-7.173676 l -2.05924,-1.058334 -0.63335,0.79375 c -1.00451,1.258917 -8.67358,11.793418 -10.4278,14.323986 -0.87563,1.263168 -1.59207,2.222854 -1.59207,2.132639 0,-0.17155 4.3073,-8.256889 7.77694,-14.598297 1.11281,-2.033857 1.9732,-3.828447 1.91198,-3.987978 -0.40456,-1.054264 -18.03599,-6.480721 -18.6926,-5.753056 -0.30228,0.334988 -6.07757,21.497026 -6.07757,22.26966 0,0.21209 -0.0612,0.324437 -0.13595,0.249666 -0.0748,-0.07477 0.27522,-2.803289 0.77776,-6.063369 1.99496,-12.941709 2.57121,-16.957798 2.45054,-17.078471 -0.5549,-0.554899 -13.13626,-1.127087 -16.92811,-0.769874 l -2.0618,0.194233 0.0774,9.501525 c 0.0426,5.225838 0.0103,9.501454 -0.0716,9.501367 -0.082,-8.5e-5 -0.36165,-1.87539 -0.62147,-4.167343 -0.54138,-4.775425 -1.9219,-14.000907 -2.15047,-14.37075 -0.37515,-0.606996 -10.12406,1.271558 -16.77812,3.233036 -1.53476,0.452416 -2.83516,0.861488 -2.88978,0.909047 -0.0546,0.04756 0.49976,0.895067 1.23195,1.883351 4.26273,5.75368 8.93097,15.148462 12.41484,24.984693 0.81411,2.298523 1.57389,4.121227 1.68841,4.050454 0.11451,-0.07077 1.95172,-0.42404 4.0827,-0.785038 3.18227,-0.539091 4.75707,-0.655492 8.81441,-0.65151 7.22105,0.0071 11.99224,0.783543 18.89649,3.075186 14.30857,4.74927 27.47478,16.0565929 33.73608,28.9729976 1.42245,2.9343724 3.00268,6.9882044 3.51096,9.0068214 0.2989,1.187088 0.40578,1.292564 2.50202,2.469076 4.73565,2.65788 8.55096,7.255719 10.31486,12.430444 1.10849,3.251994 1.23058,4.703313 1.45777,17.330208 0.23526,13.074845 0.53132,16.436265 1.8643,21.166665 1.19774,4.250452 3.78643,8.267917 6.911,10.725393 1.49904,1.178997 6.29129,3.82669 6.9262,3.82669 0.13847,0 -0.079,-0.327422 -0.48337,-0.727604 z M -560.72087,-35.20468 c -0.97664,-3.845846 -2.55651,-8.235963 -3.99032,-11.088317 -1.51869,-3.021214 -1.87295,-3.950916 -0.89624,-2.352053 1.27069,2.080101 2.86019,5.571157 3.61399,7.9375 1.00338,3.149843 1.95565,6.855751 1.8461,7.184403 -0.0457,0.137202 -0.30382,-0.619488 -0.57353,-1.681533 z m 7.26665,-2.746793 c 0.0127,-0.308226 0.0754,-0.370919 0.15985,-0.159853 0.0764,0.190995 0.067,0.419198 -0.0209,0.507119 -0.0879,0.08792 -0.15045,-0.06835 -0.13897,-0.347266 z m 53.8427,57.836692 c 1.08031,-0.705234 2.09911,-1.327211 2.26399,-1.382173 0.54553,-0.181843 -1.05003,-4.939133 -2.95395,-8.8074744 -9.15846,-18.6078957 -31.22895,-31.0791626 -52.24058,-29.5193246 -3.96281,0.294187 -10.98721,1.501777 -10.98721,1.888849 0,0.121412 0.52402,0.970595 1.16448,1.887072 0.64047,0.916477 1.78212,2.902281 2.53701,4.412895 l 1.37254,2.7465709 1.49788,-0.170794 c 3.5549,-0.405347 9.04346,-0.492646 11.5715,-0.184052 6.0672,0.740614 11.9697,2.399961 16.11774,4.531116 7.72926,3.97109405 13.3128,9.2231897 18.13694,17.0603201 1.57172,2.553351 4.01596,7.759297 4.87725,10.387951 l 0.71844,2.192684 1.97989,-1.8807 c 1.08894,-1.034384 2.86377,-2.457709 3.94408,-3.16294 z"
         id="path1641" /><rect
         style="fill:#00ff00;stroke:#00ff00;stroke-width:0.0371751;stroke-linecap:square"
         id="rect2054"
         width="2.0280261"
         height="2.0280261"
         x="-1.4222347"
         y="125.04814" /><path
         style="fill:#cf191a;stroke-width:0.109257"
         d="m 4.5593373,123.14029 c -1.391067,-0.36283 -2.047866,-1.21107 -2.137565,-2.76063 l -0.04971,-0.85878 h 1.05198 1.051984 v 0.38591 c 0,0.48395 0.223831,1.02327 0.542679,1.30757 0.187116,0.16685 0.399591,0.21852 0.898597,0.21852 0.580604,0 0.68296,-0.0342 0.917217,-0.30655 0.202614,-0.23556 0.263684,-0.43291 0.263684,-0.85217 0,-0.95688 -0.299259,-1.26942 -2.239777,-2.33919 -1.068035,-0.5888 -1.847144,-1.39265 -2.066857,-2.13252 -0.324939,-1.09419 -0.204229,-2.19163 0.32508,-2.95542 1.071062,-1.54554 4.213883,-1.75842 5.557048,-0.37641 0.532158,0.54755 0.71891,1.0707 0.71891,2.01388 v 0.67428 l -0.998797,-0.0314 -0.998797,-0.0314 -0.132315,-0.52211 c -0.193893,-0.76512 -0.517837,-1.06212 -1.158474,-1.06212 -0.721705,0 -1.19117,0.38935 -1.19117,0.98789 0,0.8181 0.24613,1.06698 2.130521,2.15433 1.604896,0.92607 2.2916,1.83609 2.419559,3.20638 0.168533,1.80478 -0.84214,3.06745 -2.695999,3.36823 -0.949517,0.15405 -1.338387,0.1385 -2.207794,-0.0883 z m 67.1898787,0.0978 c -1.202164,-0.21735 -2.125446,-0.98117 -2.431415,-2.01148 -0.209861,-0.70667 -0.235662,-6.95011 -0.03155,-7.63141 0.183321,-0.61187 0.951259,-1.42268 1.642334,-1.73403 0.483025,-0.21762 0.754464,-0.26 1.669389,-0.26067 1.422281,-8.2e-4 2.089623,0.22105 2.800563,0.93199 0.837342,0.83734 0.880069,1.09983 0.839287,5.15587 l -0.03436,3.41673 -0.296699,0.56255 c -0.355154,0.67339 -0.937203,1.17943 -1.611845,1.40136 -0.632085,0.20793 -1.874464,0.29045 -2.545717,0.16909 z m 1.65001,-2.04523 c 0.510048,-0.31886 0.564486,-0.68273 0.564305,-3.77169 -2.19e-4,-3.25669 -0.04412,-3.47105 -0.785539,-3.83346 -0.332132,-0.16234 -0.478503,-0.17688 -0.829392,-0.0824 -0.234348,0.0631 -0.514558,0.2125 -0.622686,0.33198 -0.280846,0.31032 -0.413136,1.98645 -0.364177,4.61413 0.03671,1.97044 0.05933,2.17955 0.266016,2.45829 0.401792,0.54186 1.163004,0.66354 1.771473,0.28315 z m 15.246862,2.00511 c -1.347216,-0.34465 -2.086534,-1.13458 -2.184013,-2.33355 -0.02833,-0.34836 -0.07108,-0.79317 -0.09503,-0.98847 l -0.04353,-0.35508 h 1.01849 1.018487 l 0.07522,0.60204 c 0.100262,0.80244 0.445824,1.218 1.093638,1.31514 1.279345,0.19185 1.920697,-0.68176 1.377956,-1.87697 -0.217393,-0.47874 -0.6185,-0.79726 -1.882992,-1.49528 -1.72215,-0.95065 -2.383599,-1.8021 -2.471188,-3.18103 -0.09278,-1.4606 0.384035,-2.34171 1.574722,-2.90997 1.305163,-0.6229 3.033214,-0.53719 4.136461,0.20515 0.611933,0.41175 1.028603,1.27484 1.064888,2.20582 l 0.02767,0.71017 -1.012479,0.0314 c -1.097003,0.0341 -1.049651,0.0603 -1.16681,-0.64742 -0.03626,-0.21911 -0.198951,-0.53062 -0.362534,-0.69421 -0.266677,-0.26668 -0.356839,-0.29175 -0.889921,-0.24755 -0.742654,0.0616 -1.102438,0.41025 -1.102438,1.06838 0,0.5396 0.386831,1.0008 1.272945,1.51768 2.715332,1.58387 3.323149,2.34641 3.31107,4.15393 -0.0088,1.31846 -0.46723,2.09027 -1.561491,2.62897 -0.576194,0.28367 -0.853215,0.34804 -1.665632,0.38704 -0.600416,0.0288 -1.189076,-0.008 -1.533502,-0.0962 z m -77.614624,-5.80762 v -5.73601 h 1.76648 c 2.145035,0 2.952141,0.12684 3.715343,0.5839 0.454974,0.27247 0.642859,0.47623 0.895826,0.97151 0.304041,0.59529 0.320641,0.69943 0.33089,2.07589 0.01028,1.38003 -0.0041,1.47915 -0.297912,2.07781 -0.515314,1.04942 -1.376593,1.5079 -3.013385,1.60413 l -1.04821,0.0616 -0.02973,2.04858 -0.02973,2.04857 h -1.144793 -1.144789 z m 3.73229,-0.44712 c 0.328714,-0.0961 0.559123,-0.60763 0.613016,-1.36085 0.0994,-1.38927 -0.311924,-1.96141 -1.410091,-1.96141 h -0.640811 v 1.68589 c 0,1.6605 0.0037,1.68665 0.245828,1.73647 0.245894,0.0506 0.850424,-2.2e-4 1.192058,-0.1001 z m 3.150923,6.12004 c 0,-0.0347 0.444086,-1.93987 0.986855,-4.23372 0.542774,-2.29385 1.141597,-4.84666 1.330724,-5.67292 l 0.343864,-1.50229 h 1.455337 c 0.800442,0 1.455346,0.0195 1.455346,0.0434 0,0.0238 0.584072,2.44526 1.297936,5.38092 0.713868,2.93566 1.332347,5.49735 1.3744,5.69265 l 0.07646,0.35509 h -1.202765 -1.202765 l -0.126608,-0.62823 c -0.06963,-0.34553 -0.184796,-0.89864 -0.255908,-1.22914 l -0.1293,-0.60092 -1.273003,-0.0307 c -1.143046,-0.0276 -1.278491,-0.0108 -1.326822,0.16389 -0.02961,0.10702 -0.140747,0.67396 -0.246992,1.25985 l -0.19317,1.06526 h -1.181792 c -0.649986,0 -1.181793,-0.0284 -1.181793,-0.0631 z m 4.969698,-4.44378 c -0.03316,-0.1352 -0.249474,-1.22914 -0.48068,-2.43097 -0.231202,-1.20183 -0.447645,-2.1114 -0.480982,-2.02126 -0.07864,0.21264 -0.708095,3.50403 -0.799218,4.17909 l -0.07006,0.51897 h 0.945619 c 0.925674,0 0.944347,-0.005 0.885317,-0.24583 z m 4.535693,-1.22914 v -5.73601 h 1.946563 c 2.704939,0 3.590516,0.19473 4.301976,0.94599 0.561418,0.59282 0.73895,1.17771 0.74092,2.44099 8.26e-4,0.63096 -0.05083,1.33672 -0.115153,1.56835 -0.137394,0.49482 -0.841739,1.30013 -1.304927,1.49199 -0.178766,0.074 -0.325026,0.15865 -0.325026,0.18801 0,0.0294 0.442491,1.10231 0.983316,2.38434 0.540821,1.28203 0.983312,2.35827 0.983312,2.39166 0,0.0334 -0.5316,0.0607 -1.181338,0.0607 h -1.181338 l -0.921866,-2.23872 c -0.908731,-2.20683 -1.055953,-2.43852 -1.452756,-2.28625 -0.158091,0.0607 -0.179279,0.33213 -0.179279,2.29688 v 2.22809 h -1.147204 -1.1472 z m 4.235913,-0.90522 c 0.375356,-0.35063 0.524341,-0.97603 0.411608,-1.72779 -0.129759,-0.86529 -0.693523,-1.23631 -1.888777,-1.24302 l -0.46434,-0.002 v 1.63886 1.63886 h 0.807874 c 0.732983,0 0.838073,-0.0282 1.133635,-0.30431 z m 5.925017,1.88853 v -4.75269 h -1.256456 -1.256461 v -0.98332 -0.98331 h 3.550865 3.550861 v 0.97962 0.97962 l -1.174516,0.031 -1.174517,0.031 v 4.72539 4.7254 l -1.119888,-10e-6 -1.119888,-3e-5 z m 4.435265,4.5615 c 0.596006,-2.56023 2.580548,-10.95106 2.622837,-11.08962 0.05162,-0.16914 0.220205,-0.1912 1.460825,-0.1912 h 1.402476 l 0.395995,1.63768 c 0.217793,0.90073 0.837097,3.43624 1.376225,5.63447 0.539128,2.19824 0.980232,4.04249 0.980232,4.09833 0,0.0564 -0.531394,0.10154 -1.194086,0.10154 h -1.194085 l -0.126608,-0.62823 c -0.06963,-0.34553 -0.184795,-0.89864 -0.255908,-1.22914 l -0.1293,-0.60092 -1.266582,-0.0306 -1.266581,-0.0306 -0.247575,1.2598 -0.247579,1.2598 h -1.177398 c -1.065451,0 -1.173166,-0.0182 -1.132888,-0.1912 z m 4.919835,-4.26104 c -0.03068,-0.10516 -0.240034,-1.16222 -0.465261,-2.34903 -0.225226,-1.18681 -0.436987,-2.15765 -0.470575,-2.15743 -0.03357,2.2e-4 -0.260847,1.05729 -0.505015,2.34903 l -0.443941,2.34863 h 0.970276 c 0.872475,0 0.964655,-0.0193 0.914516,-0.1912 z m 4.520587,-1.28377 v -5.73601 h 1.140251 1.14025 l 0.476679,1.01063 c 0.262176,0.55585 0.990497,2.14825 1.618498,3.53867 l 1.141815,2.52804 0.02882,-3.53867 0.02882,-3.53867 h 0.981821 0.981826 v 5.73601 5.73601 h -1.079247 -1.079242 l -1.118452,-2.43098 c -0.61515,-1.33703 -1.346345,-2.94121 -1.624878,-3.56484 l -0.506423,-1.13386 -0.02882,3.56484 -0.02882,3.56484 H 52.493129 51.45668 Z m 9.614646,-0.0114 v -5.74741 l 2.157833,0.0466 c 1.907603,0.0412 2.230275,0.075 2.782522,0.29106 0.728275,0.28496 1.397583,0.96884 1.595857,1.63062 0.191869,0.6404 0.16568,2.94735 -0.0401,3.53091 -0.39879,1.13102 -1.460222,1.7476 -3.136462,1.82196 l -1.065261,0.0473 v 2.06318 2.06318 h -1.147204 -1.1472 z m 3.727893,-0.49208 c 0.356133,-0.13958 0.520546,-0.48963 0.6028,-1.2834 0.139479,-1.34606 -0.308505,-1.9825 -1.395477,-1.9825 h -0.640811 v 1.68548 c 0,1.51209 0.01966,1.69095 0.1912,1.73874 0.242417,0.0675 0.870146,-0.0125 1.242288,-0.15832 z m 13.316257,0.50348 v -5.73601 l 1.611544,0.002 c 2.653102,0.004 3.753557,0.26281 4.54123,1.06984 0.718105,0.73576 0.770416,1.01896 0.815142,4.41291 0.03295,2.50167 0.0097,3.14597 -0.133806,3.71475 -0.316944,1.25566 -1.028161,1.91155 -2.343214,2.16094 -0.323101,0.0613 -1.46573,0.11141 -2.539179,0.11141 h -1.951717 z m 4.326232,3.40691 0.262577,-0.30526 v -3.03838 c 0,-2.89546 -0.01053,-3.05174 -0.223488,-3.3225 -0.257601,-0.32748 -0.809443,-0.50867 -1.551944,-0.50954 l -0.518973,-4.1e-4 v 3.78095 3.78094 l 0.884628,-0.0402 c 0.808869,-0.0367 0.907116,-0.0663 1.1472,-0.34543 z"
         id="path1643-1" /><rect
         style="fill:#800080;stroke:#800080;stroke-width:0.0371662;stroke-linecap:square"
         id="rect2054-2"
         width="2.0275397"
         height="2.0275397"
         x="-1.4213609"
         y="125.04883" /><path
         id="path2152-2"
         style="fill:#000000;stroke:#00ff00;stroke-width:0.0479012;stroke-linecap:square"
         d="m 323.21747,186.93111 h 13.16579 v 15.08799 h -94.97645 v -15.08799 h 35.70628 c 0,0 0.42437,-0.46328 0.58775,-0.72936 0.16266,-0.2649 0.20279,-0.38275 0.38284,-0.85033 1.29168,-3.35442 1.25344,-6.06668 -0.11832,-8.39319 -0.10086,-0.17105 -0.20171,-0.34211 -0.30257,-0.51316 l -0.57035,-0.72454 c 0,0 -3.28294,2.01005 -4.68604,2.7832 -3.87298,2.13415 -9.71608,4.2462 -12.87291,4.65304 l -0.57777,0.0745 0.23451,-0.58823 c 2.5292,-6.34408 3.85166,-10.02646 4.04491,-11.26304 0.13733,-0.87869 -0.0275,-1.66565 -0.57244,-2.73376 -0.63821,-1.25083 -0.41624,-2.22612 0.67946,-2.98544 l 0.42728,-0.2961 -0.46552,-0.29523 c -1.13415,-0.71925 -1.27894,-1.2612 -0.73509,-2.7514 0.17988,-0.49287 0.30625,-0.91693 0.28082,-0.94237 -0.0732,-0.0732 -2.91392,1.22362 -4.63048,2.11382 -1.13521,0.58874 -1.54945,0.75877 -1.51009,0.61991 0.0298,-0.10524 0.2525,-0.92883 0.49481,-1.8302 0.24232,-0.90137 1.07616,-3.77758 1.85298,-6.39156 2.70082,-9.0882 4.40743,-14.81837 5.10877,-17.15341 0.95856,-3.19137 3.00843,-9.39613 3.10421,-9.39613 0.0427,0 0.37962,0.36508 0.74871,0.81129 0.36908,0.4462 1.24839,1.32742 1.95401,1.95827 0.17905,0.16007 0.65666,0.58282 0.65666,0.58282 l 0.64721,-0.66159 1.24666,-1.21248 c 2.73159,-2.65669 6.24077,-4.40138 10.36832,-5.15491 0.24377,-0.0445 0.55465,-0.0818 0.91031,-0.11191 l -0.0125,-0.0322 c 0,0 -0.18895,-0.58814 -0.30959,-0.87202 -0.16353,-0.38481 -0.36198,-0.75413 -0.55972,-1.12254 -0.33314,-0.6207 -0.71328,-1.21517 -1.05495,-1.83123 -0.14331,-0.25839 -0.46014,-0.74171 -0.41725,-0.7821 0.0593,-0.0558 1.58752,-0.36536 1.58752,-0.36536 l -0.014,-0.0537 -0.65563,-1.91265 c -0.083,-0.19757 -0.18948,-0.49747 -0.34743,-0.94785 -1.44278,-4.11416 -3.39442,-8.05414 -5.26012,-10.61919 -0.29963,-0.41195 -0.52948,-0.76095 -0.51077,-0.77556 0.0721,-0.0563 3.35804,-0.94047 4.24042,-1.141 0.51078,-0.11607 1.44493,-0.29094 2.07589,-0.38858 0.63096,-0.0976 1.27966,-0.19841 1.44155,-0.22392 0.21062,-0.0332 0.30949,0.007 0.34757,0.14086 0.18329,0.64499 0.66786,3.97411 0.99676,6.84811 0.096,0.83917 0.1899,1.54106 0.20859,1.55975 0.0187,0.0187 0.009,-1.92865 -0.0207,-4.3274 l -0.0547,-4.36138 1.29924,-0.0816 c 1.73354,-0.10884 6.35485,0.10606 6.55354,0.30476 0.0336,0.0336 -1.30857,9.10727 -1.44229,9.75037 -0.0375,0.18027 -0.0436,0.30319 -0.0137,0.27314 0.03,-0.0301 0.37893,-1.28377 0.77546,-2.78606 0.90514,-3.42917 1.87631,-6.92357 1.94265,-6.9899 0.22866,-0.22866 7.15905,1.89553 7.67052,2.35105 0.051,0.0454 -0.54421,1.25527 -1.32275,2.68851 -1.78409,3.2844 -2.82451,5.29195 -2.59622,5.00954 0.0971,-0.12018 1.28785,-1.75592 2.64598,-3.63498 2.0807,-2.87876 2.50289,-3.40583 2.68249,-3.34882 0.74441,0.23626 3.54071,1.98425 4.74894,2.9686 l 0.46058,0.37522 -1.06573,1.32834 c -0.58615,0.73058 -1.47862,1.86915 -1.98326,2.53016 -0.50465,0.66101 -1.1654,1.52141 -1.46833,1.912 l -0.55079,0.71018 1.09016,-1.00176 c 0.59959,-0.55096 1.336,-1.25557 1.63645,-1.56581 0.30046,-0.31023 1.17431,-1.15672 1.94189,-1.88108 l 1.3956,-1.31703 1.37491,1.35324 c 1.58814,1.5631 3.43066,3.78005 4.4513,5.35586 l 0.18646,0.28788 -2.0529,1.3079 c -2.64918,1.6878 -4.29268,2.76583 -4.29268,2.81572 0,0.0218 0.33187,-0.11122 0.73749,-0.29558 1.44893,-0.65853 6.28256,-2.71899 6.30494,-2.68763 0.19732,0.2764 0.94488,1.61851 1.44793,2.5995 0.61808,1.2053 1.81956,3.9349 1.75586,3.98907 -0.0168,0.0143 -1.13688,0.32619 -2.48894,0.693 -2.6734,0.7253 -4.32764,1.24353 -3.71475,1.16373 0.80004,-0.10417 4.68665,-0.48876 5.64202,-0.5583 l 0.99858,-0.0727 0.16906,0.58836 c 0.40543,1.41105 0.75947,2.96955 0.99991,4.40161 0.28144,1.67622 0.45571,3.68616 0.33637,3.87927 -0.0455,0.0736 -0.23972,-0.0872 -0.4942,-0.40915 -0.62719,-0.79346 -1.16545,-1.18758 -2.13425,-1.56276 -0.80416,-0.31142 -2.77777,-0.7941 -2.86996,-0.70191 -0.0217,0.0217 0.22179,0.12489 0.54117,0.22924 1.01691,0.33227 1.92469,0.78639 2.5801,1.29071 0.79432,0.61122 1.78316,1.67138 2.16218,2.31812 l 0.28818,0.49174 -0.075,1.99045 c -0.086,2.28338 -0.20471,3.54551 -0.46477,4.9404 l -0.18332,0.98332 -0.0929,-0.54629 c -0.36401,-2.14092 -0.73753,-3.26671 -1.50563,-4.53797 -0.59155,-0.97905 -0.70962,-1.04664 -0.37053,-0.21213 0.39302,0.96721 0.78055,2.67388 0.87214,3.84081 0.044,0.5602 0.0867,3.42767 0.0949,6.37216 0.0129,4.6455 0.0396,5.45477 0.20171,6.11841 0.51581,2.11176 1.14232,3.48472 2.256,4.9439 0.42424,0.55584 0.73464,1.00764 0.68979,1.00433 -0.0449,-0.003 -0.34412,-0.12555 -0.66503,-0.27131 h -10e-6 c -1.57834,-0.71691 -3.14667,-2.13585 -3.94493,-3.56917 -1.2478,-2.2405 -1.64336,-4.9936 -1.64502,-11.44925 -0.001,-4.8187 -0.2274,-6.19756 -1.34409,-8.19431 -0.67511,-1.20716 -2.36247,-2.86963 -3.51748,-3.46559 0,0 -0.55344,-0.38254 -0.87406,-0.451 -0.87263,-0.18634 -1.81108,-0.0829 -2.67278,0.14876 -0.0913,0.0245 -0.14741,0.0769 -0.25287,0.12836 -0.61926,0.30222 -1.74129,1.06239 -2.39272,1.82524 -0.73814,0.88224 -1.02854,2.30845 -1.03435,3.52199 0.4658,2.92176 -0.0402,8.29347 -1.1214,11.88319 l -0.32558,1.08093 0.25757,0.5033 c 1.31441,2.56847 4.34169,6.10331 6.38347,7.45373 0.85548,0.56581 0.8774,0.59065 0.58665,0.66468 -0.89704,0.22838 -3.59337,0.5355 -5.21862,0.59442 -2.30558,0.0836 -4.03742,-0.0672 -6.45834,-0.56239 -1.00843,-0.20626 -1.84926,-0.35927 -1.8685,-0.34003 -0.0634,0.0634 2.51608,1.02714 3.52046,1.31536 1.1985,0.34393 2.55231,0.60978 3.1052,0.60978 0.38832,0 0.41737,0.0247 0.54621,0.46435 0.20907,0.7134 1.11307,2.37136 1.87422,3.43737 0.37709,0.52813 1.28355,1.55533 2.01435,2.28266 l 1.32874,1.32242 c -6.53594,13.44917 -6.90297,14.47756 13.70205,14.68679 z" /><rect
         style="fill:#800080;stroke:#800080;stroke-width:0.0371662;stroke-linecap:square"
         id="rect2054-2-4"
         width="2.0275402"
         height="2.0275402"
         x="239.20523"
         y="202.16068" /><text
         xml:space="preserve"
         transform="matrix(0.26458333,0,0,0.26458333,-69.604908,-36.625703)"
         id="text2443"
         style="font-size:24px;font-family:Grinched;-inkscape-font-specification:'Grinched, Normal';white-space:pre;shape-inside:url(#rect2445);fill:#000000;stroke:#00ff00;stroke-width:0.438425;stroke-linecap:square"><tspan
           x="1409.3926"
           y="2201.0932"
           id="tspan2688">EDGE CUTS</tspan></text><text
         xml:space="preserve"
         transform="matrix(0.26458333,0,0,0.26458333,-48.831834,-41.692306)"
         id="text2499"
         style="font-size:24px;font-family:Grinched;-inkscape-font-specification:'Grinched, Normal';white-space:pre;shape-inside:url(#rect2501);fill:#000000;stroke:#00ff00;stroke-width:0.438425;stroke-linecap:square"><tspan
           x="1206.4102"
           y="966.91741"
           id="tspan2690">EDGE CUTS
</tspan></text></g></g></svg>
