<?xml version="1.0" encoding="UTF-8" standalone="no"?>
<!-- Created with Inkscape (http://www.inkscape.org/) -->

<svg
   width="97.220551mm"
   height="100.00005mm"
   viewBox="0 0 97.22055 100.00005"
   version="1.1"
   id="svg5"
   xml:space="preserve"
   inkscape:version="1.2.2 (732a01da63, 2022-12-09)"
   sodipodi:docname="drawing.svg"
   xmlns:inkscape="http://www.inkscape.org/namespaces/inkscape"
   xmlns:sodipodi="http://sodipodi.sourceforge.net/DTD/sodipodi-0.dtd"
   xmlns="http://www.w3.org/2000/svg"
   xmlns:svg="http://www.w3.org/2000/svg"><sodipodi:namedview
     id="namedview7"
     pagecolor="#ffffff"
     bordercolor="#000000"
     borderopacity="0.25"
     inkscape:showpageshadow="2"
     inkscape:pageopacity="0.0"
     inkscape:pagecheckerboard="0"
     inkscape:deskcolor="#d1d1d1"
     inkscape:document-units="mm"
     showgrid="false"
     inkscape:zoom="2.8284271"
     inkscape:cx="439.46686"
     inkscape:cy="379.71634"
     inkscape:window-width="1920"
     inkscape:window-height="1009"
     inkscape:window-x="1912"
     inkscape:window-y="-8"
     inkscape:window-maximized="1"
     inkscape:current-layer="g1639" /><defs
     id="defs2" /><g
     inkscape:label="Layer 1"
     inkscape:groupmode="layer"
     id="layer1"
     transform="translate(-300.73886,-158.09715)"><g
       id="g1639"
       transform="translate(61.552209,53.890401)"><path
         id="path2152-2"
         style="fill:#000000;stroke:#00ff00;stroke-width:0.0479012;stroke-linecap:square"
         d="m 323.21747,186.93111 h 13.16579 v 15.08799 h -94.97645 v -15.08799 h 35.70628 c 0,0 0.42437,-0.46328 0.58775,-0.72936 0.16266,-0.2649 0.20279,-0.38275 0.38284,-0.85033 1.29168,-3.35442 1.25344,-6.06668 -0.11832,-8.39319 -0.10086,-0.17105 -0.20171,-0.34211 -0.30257,-0.51316 l -0.57035,-0.72454 c 0,0 -3.28294,2.01005 -4.68604,2.7832 -3.87298,2.13415 -9.71608,4.2462 -12.87291,4.65304 l -0.57777,0.0745 0.23451,-0.58823 c 2.5292,-6.34408 3.85166,-10.02646 4.04491,-11.26304 0.13733,-0.87869 -0.0275,-1.66565 -0.57244,-2.73376 -0.63821,-1.25083 -0.41624,-2.22612 0.67946,-2.98544 l 0.42728,-0.2961 -0.46552,-0.29523 c -1.13415,-0.71925 -1.27894,-1.2612 -0.73509,-2.7514 0.17988,-0.49287 0.30625,-0.91693 0.28082,-0.94237 -0.0732,-0.0732 -2.91392,1.22362 -4.63048,2.11382 -1.13521,0.58874 -1.54945,0.75877 -1.51009,0.61991 0.0298,-0.10524 0.2525,-0.92883 0.49481,-1.8302 0.24232,-0.90137 1.07616,-3.77758 1.85298,-6.39156 2.70082,-9.0882 4.40743,-14.81837 5.10877,-17.15341 0.95856,-3.19137 3.00843,-9.39613 3.10421,-9.39613 0.0427,0 0.37962,0.36508 0.74871,0.81129 0.36908,0.4462 1.24839,1.32742 1.95401,1.95827 0.17905,0.16007 0.65666,0.58282 0.65666,0.58282 l 0.64721,-0.66159 1.24666,-1.21248 c 2.73159,-2.65669 6.24077,-4.40138 10.36832,-5.15491 0.24377,-0.0445 0.55465,-0.0818 0.91031,-0.11191 l -0.0125,-0.0322 c 0,0 -0.18895,-0.58814 -0.30959,-0.87202 -0.16353,-0.38481 -0.36198,-0.75413 -0.55972,-1.12254 -0.33314,-0.6207 -0.71328,-1.21517 -1.05495,-1.83123 -0.14331,-0.25839 -0.46014,-0.74171 -0.41725,-0.7821 0.0593,-0.0558 1.58752,-0.36536 1.58752,-0.36536 l -0.014,-0.0537 -0.65563,-1.91265 c -0.083,-0.19757 -0.18948,-0.49747 -0.34743,-0.94785 -1.44278,-4.11416 -3.39442,-8.05414 -5.26012,-10.61919 -0.29963,-0.41195 -0.52948,-0.76095 -0.51077,-0.77556 0.0721,-0.0563 3.35804,-0.94047 4.24042,-1.141 0.51078,-0.11607 1.44493,-0.29094 2.07589,-0.38858 0.63096,-0.0976 1.27966,-0.19841 1.44155,-0.22392 0.21062,-0.0332 0.30949,0.007 0.34757,0.14086 0.18329,0.64499 0.66786,3.97411 0.99676,6.84811 0.096,0.83917 0.1899,1.54106 0.20859,1.55975 0.0187,0.0187 0.009,-1.92865 -0.0207,-4.3274 l -0.0547,-4.36138 1.29924,-0.0816 c 1.73354,-0.10884 6.35485,0.10606 6.55354,0.30476 0.0336,0.0336 -1.30857,9.10727 -1.44229,9.75037 -0.0375,0.18027 -0.0436,0.30319 -0.0137,0.27314 0.03,-0.0301 0.37893,-1.28377 0.77546,-2.78606 0.90514,-3.42917 1.87631,-6.92357 1.94265,-6.9899 0.22866,-0.22866 7.15905,1.89553 7.67052,2.35105 0.051,0.0454 -0.54421,1.25527 -1.32275,2.68851 -1.78409,3.2844 -2.82451,5.29195 -2.59622,5.00954 0.0971,-0.12018 1.28785,-1.75592 2.64598,-3.63498 2.0807,-2.87876 2.50289,-3.40583 2.68249,-3.34882 0.74441,0.23626 3.54071,1.98425 4.74894,2.9686 l 0.46058,0.37522 -1.06573,1.32834 c -0.58615,0.73058 -1.47862,1.86915 -1.98326,2.53016 -0.50465,0.66101 -1.1654,1.52141 -1.46833,1.912 l -0.55079,0.71018 1.09016,-1.00176 c 0.59959,-0.55096 1.336,-1.25557 1.63645,-1.56581 0.30046,-0.31023 1.17431,-1.15672 1.94189,-1.88108 l 1.3956,-1.31703 1.37491,1.35324 c 1.58814,1.5631 3.43066,3.78005 4.4513,5.35586 l 0.18646,0.28788 -2.0529,1.3079 c -2.64918,1.6878 -4.29268,2.76583 -4.29268,2.81572 0,0.0218 0.33187,-0.11122 0.73749,-0.29558 1.44893,-0.65853 6.28256,-2.71899 6.30494,-2.68763 0.19732,0.2764 0.94488,1.61851 1.44793,2.5995 0.61808,1.2053 1.81956,3.9349 1.75586,3.98907 -0.0168,0.0143 -1.13688,0.32619 -2.48894,0.693 -2.6734,0.7253 -4.32764,1.24353 -3.71475,1.16373 0.80004,-0.10417 4.68665,-0.48876 5.64202,-0.5583 l 0.99858,-0.0727 0.16906,0.58836 c 0.40543,1.41105 0.75947,2.96955 0.99991,4.40161 0.28144,1.67622 0.45571,3.68616 0.33637,3.87927 -0.0455,0.0736 -0.23972,-0.0872 -0.4942,-0.40915 -0.62719,-0.79346 -1.16545,-1.18758 -2.13425,-1.56276 -0.80416,-0.31142 -2.77777,-0.7941 -2.86996,-0.70191 -0.0217,0.0217 0.22179,0.12489 0.54117,0.22924 1.01691,0.33227 1.92469,0.78639 2.5801,1.29071 0.79432,0.61122 1.78316,1.67138 2.16218,2.31812 l 0.28818,0.49174 -0.075,1.99045 c -0.086,2.28338 -0.20471,3.54551 -0.46477,4.9404 l -0.18332,0.98332 -0.0929,-0.54629 c -0.36401,-2.14092 -0.73753,-3.26671 -1.50563,-4.53797 -0.59155,-0.97905 -0.70962,-1.04664 -0.37053,-0.21213 0.39302,0.96721 0.78055,2.67388 0.87214,3.84081 0.044,0.5602 0.0867,3.42767 0.0949,6.37216 0.0129,4.6455 0.0396,5.45477 0.20171,6.11841 0.51581,2.11176 1.14232,3.48472 2.256,4.9439 0.42424,0.55584 0.73464,1.00764 0.68979,1.00433 -0.0449,-0.003 -0.34412,-0.12555 -0.66503,-0.27131 h -10e-6 c -1.57834,-0.71691 -3.14667,-2.13585 -3.94493,-3.56917 -1.2478,-2.2405 -1.64336,-4.9936 -1.64502,-11.44925 -0.001,-4.8187 -0.2274,-6.19756 -1.34409,-8.19431 -0.67511,-1.20716 -2.36247,-2.86963 -3.51748,-3.46559 0,0 -0.55344,-0.38254 -0.87406,-0.451 -0.87263,-0.18634 -1.81108,-0.0829 -2.67278,0.14876 -0.0913,0.0245 -0.14741,0.0769 -0.25287,0.12836 -0.61926,0.30222 -1.74129,1.06239 -2.39272,1.82524 -0.73814,0.88224 -1.02854,2.30845 -1.03435,3.52199 0.4658,2.92176 -0.0402,8.29347 -1.1214,11.88319 l -0.32558,1.08093 0.25757,0.5033 c 1.31441,2.56847 4.34169,6.10331 6.38347,7.45373 0.85548,0.56581 0.8774,0.59065 0.58665,0.66468 -0.89704,0.22838 -3.59337,0.5355 -5.21862,0.59442 -2.30558,0.0836 -4.03742,-0.0672 -6.45834,-0.56239 -1.00843,-0.20626 -1.84926,-0.35927 -1.8685,-0.34003 -0.0634,0.0634 2.51608,1.02714 3.52046,1.31536 1.1985,0.34393 2.55231,0.60978 3.1052,0.60978 0.38832,0 0.41737,0.0247 0.54621,0.46435 0.20907,0.7134 1.11307,2.37136 1.87422,3.43737 0.37709,0.52813 1.28355,1.55533 2.01435,2.28266 l 1.32874,1.32242 c -15.73021,5.71011 -6.73761,14.14683 13.70205,14.68679 z"
         sodipodi:nodetypes="csssssssssscsccssscssssssssssssscsscssscssssscssscssssscsscssscssscsssssssssccscccsssssscscccssssccssccssssssccssscsssscssccssaccccccccc"
         inkscape:export-filename="Edge.CutsV2.svg"
         inkscape:export-xdpi="96"
         inkscape:export-ydpi="96" /><rect
         style="fill:#800080;stroke:#800080;stroke-width:0.0371662;stroke-linecap:square"
         id="rect2054-2-4"
         width="2.0275402"
         height="2.0275402"
         x="239.20523"
         y="202.16068"
         inkscape:export-filename="Edge.Cuts.svg"
         inkscape:export-xdpi="96"
         inkscape:export-ydpi="96" /></g></g></svg>
