<?xml version="1.0" encoding="UTF-8" standalone="no"?>
<!-- Created with Inkscape (http://www.inkscape.org/) -->

<svg
   width="83.955505mm"
   height="100.00027mm"
   viewBox="0 0 83.955505 100.00027"
   version="1.1"
   id="svg5"
   xml:space="preserve"
   inkscape:version="1.2.2 (732a01da63, 2022-12-09)"
   sodipodi:docname="drawing.svg"
   xmlns:inkscape="http://www.inkscape.org/namespaces/inkscape"
   xmlns:sodipodi="http://sodipodi.sourceforge.net/DTD/sodipodi-0.dtd"
   xmlns="http://www.w3.org/2000/svg"
   xmlns:svg="http://www.w3.org/2000/svg"><sodipodi:namedview
     id="namedview7"
     pagecolor="#ffffff"
     bordercolor="#000000"
     borderopacity="0.25"
     inkscape:showpageshadow="2"
     inkscape:pageopacity="0.0"
     inkscape:pagecheckerboard="0"
     inkscape:deskcolor="#d1d1d1"
     inkscape:document-units="mm"
     showgrid="false"
     inkscape:zoom="2.8284271"
     inkscape:cx="439.46686"
     inkscape:cy="379.71634"
     inkscape:window-width="1920"
     inkscape:window-height="1009"
     inkscape:window-x="1912"
     inkscape:window-y="-8"
     inkscape:window-maximized="1"
     inkscape:current-layer="g1639" /><defs
     id="defs2" /><g
     inkscape:label="Layer 1"
     inkscape:groupmode="layer"
     id="layer1"
     transform="translate(-570.68209,-143.47705)"><g
       id="g1639"
       transform="translate(61.552209,53.890401)"><path
         style="fill:#ff0000;stroke-width:0.109283"
         d="m 592.41581,148.40958 c -1.57871,-0.71708 -3.14742,-2.13636 -3.94587,-3.57002 -1.2481,-2.24104 -1.64375,-4.9948 -1.64541,-11.452 -10e-4,-4.81985 -0.22746,-6.19904 -1.34442,-8.19626 -0.67527,-1.20746 -2.36304,-2.87033 -3.51832,-3.46643 l -0.87427,-0.45111 -0.21141,-0.746 c -1.66837,-5.88696 -6.23516,-11.19281 -12.24753,-14.22958 -2.23955,-1.13117 -4.89451,-1.96153 -7.59459,-2.37528 -1.86194,-0.28531 -5.08201,-0.25231 -6.83022,0.07 -0.72127,0.13298 -1.43841,0.26493 -1.59363,0.29322 -0.0591,0.0108 -0.26648,0.0477 -0.26648,0.0477 0,0 -0.13177,-0.32718 -0.48862,-1.34476 -1.44312,-4.115145 -3.39524,-8.056076 -5.26139,-10.621734 -0.2997,-0.412046 -0.52961,-0.761133 -0.51089,-0.775749 0.0721,-0.05631 3.35885,-0.940692 4.24144,-1.141267 0.5109,-0.116106 1.44528,-0.29101 2.07639,-0.388677 0.63111,-0.09767 1.27996,-0.198456 1.44189,-0.223975 0.21067,-0.0332 0.30957,0.0069 0.34765,0.140894 0.18334,0.645145 0.66802,3.975066 0.997,6.849753 0.0961,0.839375 0.18995,1.541429 0.20864,1.560121 0.0187,0.01869 0.009,-1.929106 -0.0207,-4.328439 l -0.0547,-4.362424 1.29955,-0.08159 c 1.73396,-0.108863 6.35638,0.106094 6.55512,0.304834 0.0336,0.03363 -1.30888,9.10946 -1.44264,9.75271 -0.0375,0.18032 -0.0436,0.30326 -0.0137,0.27321 0.03,-0.03 0.37901,-1.284085 0.77564,-2.786734 0.90536,-3.429988 1.87676,-6.925223 1.94312,-6.991573 0.22872,-0.228718 7.16076,1.895985 7.67236,2.351612 0.051,0.04545 -0.54434,1.255571 -1.32307,2.689152 -1.78452,3.285192 -2.82519,5.293226 -2.59684,5.010756 0.0972,-0.12022 1.28815,-1.756355 2.64662,-3.635865 2.0812,-2.879452 2.50348,-3.406641 2.68312,-3.349626 0.7446,0.236326 3.54156,1.984729 4.75009,2.969314 l 0.46068,0.375319 -1.06598,1.328649 c -0.58629,0.730757 -1.47898,1.869606 -1.98374,2.530769 -0.50477,0.66117 -1.16567,1.52178 -1.46868,1.91246 l -0.55092,0.71035 1.09042,-1.002 c 0.59974,-0.55109 1.33632,-1.25587 1.63685,-1.56618 0.30053,-0.31031 1.17459,-1.157003 1.94235,-1.881539 l 1.39594,-1.317342 1.37523,1.353559 c 1.58852,1.563482 3.43149,3.780962 4.45237,5.357152 l 0.1865,0.28795 -2.05339,1.30822 c -2.64981,1.6882 -4.29371,2.76648 -4.29371,2.81638 0,0.0218 0.33196,-0.11124 0.73767,-0.29564 1.44927,-0.65869 6.28406,-2.71964 6.30645,-2.68828 0.19737,0.27647 0.94511,1.6189 1.44828,2.60012 0.61823,1.20559 1.81999,3.93585 1.75628,3.99003 -0.0169,0.0143 -1.13716,0.32626 -2.48954,0.69317 -2.67404,0.72547 -4.32868,1.24382 -3.71564,1.16401 0.80024,-0.1042 4.68777,-0.48888 5.64337,-0.55844 l 0.99883,-0.0727 0.16909,0.58851 c 0.40553,1.41139 0.75966,2.97026 1.00016,4.40266 0.2815,1.67663 0.45582,3.68705 0.33644,3.8802 -0.0455,0.0736 -0.23977,-0.0872 -0.49431,-0.40924 -0.62735,-0.79365 -1.16573,-1.18788 -2.13477,-1.56314 -0.80435,-0.31149 -2.77843,-0.79429 -2.87064,-0.70208 -0.0217,0.0217 0.22184,0.12493 0.54129,0.2293 1.01716,0.33234 1.92515,0.78657 2.58072,1.29102 0.79452,0.61136 1.78359,1.67177 2.16271,2.31867 l 0.28824,0.49186 -0.075,1.99093 c -0.086,2.28392 -0.20476,3.54636 -0.46488,4.94158 l -0.18337,0.98355 -0.0929,-0.54642 c -0.36409,-2.14143 -0.7377,-3.26748 -1.50599,-4.53905 -0.59169,-0.97929 -0.70978,-1.0469 -0.37061,-0.21218 0.39311,0.96744 0.78074,2.67452 0.87235,3.84173 0.044,0.56033 0.0867,3.42849 0.0949,6.37368 0.0129,4.64661 0.0396,5.45608 0.20175,6.11988 0.51594,2.11227 1.14261,3.48556 2.25655,4.94508 0.42434,0.55598 0.73482,1.00804 0.68995,1.00458 -0.0449,-0.004 -0.3442,-0.12558 -0.66519,-0.27138 z M 552.45925,98.979107 c -0.57735,-2.277633 -1.57128,-4.742965 -2.25342,-5.589331 -0.12111,-0.150265 0.0512,0.276258 0.38292,0.947827 0.67301,1.362552 1.29754,3.093887 1.76712,4.898844 0.172,0.66117 0.32862,1.122223 0.34803,1.024573 0.0194,-0.0977 -0.0907,-0.674523 -0.24465,-1.281913 z"
         id="path1799-8"
         sodipodi:nodetypes="sscsscssssscssssssscsccssscsssssssscssscssscsscssssssssscssssssssscsscsssssssssscssssc"
         inkscape:export-filename="F.Mask.svg"
         inkscape:export-xdpi="96"
         inkscape:export-ydpi="96" /><rect
         style="fill:#800080;stroke:#800080;stroke-width:0.0371662;stroke-linecap:square"
         id="rect2054-2-47"
         width="2.0275397"
         height="2.0275397"
         x="509.14844"
         y="187.54079" /></g></g></svg>
