<?xml version="1.0" encoding="UTF-8" standalone="no"?>
<!-- Created with Inkscape (http://www.inkscape.org/) -->

<svg
   xml:space="preserve"
   id="svg5"
   version="1.1"
   viewBox="0 0 49.999984 15.100404"
   height="15.100404mm"
   width="49.999985mm"
   xmlns="http://www.w3.org/2000/svg"
   xmlns:svg="http://www.w3.org/2000/svg"><defs
     id="defs2" /><g
     id="layer1"
     transform="translate(-123.0038,-339.50858)"><g
       id="g1639"
       transform="translate(61.552209,53.890401)"><g
         id="g1788"><path
           d="m 80.813522,300.55573 c 0.325843,-0.22439 0.392897,-0.47544 0.374133,-1.4008 l -0.01707,-0.84389 -0.275884,-0.0199 -0.275877,-0.0199 -7.98e-4,0.76648 c -0.0016,1.00735 -0.103625,1.20908 -0.55595,1.09555 -0.155889,-0.0391 -0.157157,-0.046 -0.158138,-0.86586 -5.19e-4,-0.45453 -0.02537,-0.86482 -0.05513,-0.91177 -0.03502,-0.0551 -0.155195,-0.0781 -0.339804,-0.065 l -0.285682,0.0204 -0.01859,0.77896 c -0.02585,1.08223 0.133144,1.47179 0.648877,1.5896 0.300369,0.0686 0.768298,0.008 0.960143,-0.12388 z m 8.304976,0.002 c 0.32238,-0.22964 0.422375,-0.44096 0.447905,-0.94648 0.02872,-0.56931 -0.05361,-0.85611 -0.318679,-1.11007 -0.173847,-0.16657 -0.251839,-0.19092 -0.680613,-0.21258 l -0.48426,-0.0244 -0.250371,0.25055 c -0.311913,0.31214 -0.422559,0.73781 -0.333693,1.28382 0.08989,0.55231 0.299954,0.78617 0.812297,0.90437 0.217334,0.0501 0.639925,-0.0258 0.807414,-0.14515 z m -0.868645,-0.54111 c -0.137707,-0.19661 -0.136087,-0.88035 0.0024,-1.07829 0.142335,-0.20321 0.475796,-0.17294 0.596135,0.0541 0.100538,0.18968 0.06119,0.93635 -0.0568,1.07856 -0.117419,0.14148 -0.426412,0.11047 -0.541885,-0.0544 z m -16.342045,0.3877 -0.01995,-0.27589 -0.503088,-0.019 -0.50308,-0.019 v -0.19202 -0.19201 h 0.421945 0.421936 v -0.25965 -0.25966 l -0.843884,0.002 v -0.16372 -0.16715 h 0.269027 0.737144 l 0.03992,-0.57994 h -0.851349 -0.778965 v 1.20091 1.20091 h 0.815153 0.815161 z m 0.88405,0 c 0.05983,-0.24212 0.06199,-0.24342 0.395442,-0.24342 0.334946,0 0.335385,0 0.413098,0.25965 0.07715,0.25757 0.08038,0.25965 0.399758,0.25965 0.177078,0 0.321662,-0.0219 0.321295,-0.0487 -3.91e-4,-0.0268 -0.171542,-0.55989 -0.380388,-1.18469 l -0.379725,-1.13599 -0.325372,-0.0193 -0.325372,-0.0193 -0.106106,0.26518 c -0.0584,0.14585 -0.162814,0.46127 -0.232118,0.70093 -0.06933,0.23966 -0.200565,0.63425 -0.291673,0.87687 -0.09111,0.24262 -0.165654,0.47061 -0.165654,0.50665 0,0.0376 0.131093,0.0571 0.308347,0.0457 0.29701,-0.0191 0.310549,-0.0287 0.368468,-0.26322 z m 0.236921,-0.81142 c 0.0024,-0.0268 0.04324,-0.15093 0.09001,-0.27589 0.05832,-0.15579 0.09699,-0.1966 0.122964,-0.12983 0.181474,0.46634 0.18212,0.4544 -0.02481,0.4544 -0.106226,0 -0.190911,-0.0219 -0.188199,-0.0487 z m 2.253789,0.61668 c 0.01261,-0.28849 0.04587,-0.43782 0.09737,-0.43717 0.043,6.5e-4 0.181921,0.19773 0.308714,0.43816 0.225345,0.42732 0.236857,0.43764 0.510516,0.4575 0.428183,0.0311 0.499466,-0.0152 0.35706,-0.23195 -0.0643,-0.0978 -0.202871,-0.316 -0.308004,-0.48484 l -0.191151,-0.307 0.145127,-0.1175 c 0.09909,-0.0803 0.154229,-0.20935 0.173831,-0.40708 0.05983,-0.60376 -0.267732,-0.84105 -1.161339,-0.84121 h -0.568005 v 1.20447 1.20446 c 0,0 0.205565,0.006 0.308347,0 0.10278,-0.006 0.308339,0 0.308339,0 l 0.01923,-0.47774 z m 0.01324,-1.18057 c 0,-0.25416 0.129913,-0.30804 0.351683,-0.14588 0.184298,0.13476 0.105843,0.33296 -0.141241,0.35685 -0.201746,0.0195 -0.210442,0.0108 -0.210442,-0.21097 z m 3.30654,1.42807 c 0.260823,-0.25011 0.2836,-0.6849 0.04691,-0.89571 -0.147496,-0.13139 -0.148438,-0.13877 -0.03247,-0.25475 0.146531,-0.14653 0.155642,-0.49326 0.01811,-0.6896 -0.183412,-0.26186 -0.431996,-0.33864 -1.096366,-0.33864 h -0.619909 v 1.2065 1.20649 l 0.742426,-0.0218 c 0.71976,-0.0211 0.748505,-0.0276 0.94126,-0.21247 z m -1.034545,-0.52712 v -0.23094 l 0.275884,0.0199 c 0.229278,0.0166 0.279387,0.0446 0.296612,0.16591 0.01532,0.10787 -0.02385,0.16292 -0.150281,0.21097 -0.328355,0.12485 -0.422215,0.088 -0.422215,-0.16591 z m 0.01189,-0.9213 c 0.01795,-0.15609 0.045,-0.17592 0.215276,-0.15788 0.397437,0.0421 0.39545,0.33639 -0.0024,0.33639 -0.216481,0 -0.232046,-0.013 -0.213003,-0.17851 z m 5.691629,1.48338 c 0.274433,-0.19574 0.411279,-0.51801 0.415619,-0.9788 0.0056,-0.55889 -0.111867,-0.8259 -0.458867,-1.04596 -0.273914,-0.17371 -0.346418,-0.1889 -0.901833,-0.1889 h -0.603977 v 1.20682 1.20681 l 0.665375,-0.0221 c 0.577682,-0.0192 0.694136,-0.0427 0.883683,-0.17784 z m -0.899918,-1.01275 V 298.863 h 0.217143 c 0.321216,0 0.431997,0.16103 0.431997,0.62796 0,0.45222 -0.112161,0.6054 -0.443277,0.6054 h -0.205863 z m 4.278069,1.11881 c 0.207912,-0.10685 0.384895,-0.35704 0.435563,-0.61573 l 0.04133,-0.21096 h -0.318447 c -0.294226,0 -0.324047,0.0148 -0.391963,0.19474 -0.08445,0.22371 -0.293165,0.26126 -0.485386,0.0873 -0.160037,-0.14483 -0.172387,-0.99807 -0.01667,-1.15376 0.174357,-0.17436 0.418266,-0.12931 0.502083,0.0927 0.0659,0.17461 0.102245,0.19474 0.351387,0.19474 0.259929,0 0.277872,-0.0116 0.27764,-0.17851 -3.27e-4,-0.24693 -0.223757,-0.58994 -0.437956,-0.67237 -0.28936,-0.11134 -0.797418,-0.0814 -0.985801,0.0581 -0.344702,0.2552 -0.458507,0.51236 -0.458507,1.03607 0,0.84101 0.315607,1.25053 0.962465,1.24885 0.202552,-6.6e-4 0.438483,-0.037 0.524301,-0.0812 z m 3.998466,-0.60965 c 0,-0.64809 0.03989,-0.78262 0.127128,-0.42863 0.02425,0.0985 0.118935,0.3909 0.210354,0.64975 l 0.166212,0.47062 h 0.246861 c 0.200485,0 0.254632,-0.0274 0.288195,-0.14605 0.02274,-0.0803 0.119637,-0.39435 0.215348,-0.69783 l 0.174015,-0.55177 0.03247,0.68161 0.03247,0.68159 0.275885,0.0199 0.275884,0.0199 v -1.20464 -1.20464 h -0.420053 -0.420046 l -0.201706,0.66537 c -0.110941,0.36595 -0.210634,0.69457 -0.221531,0.73028 -0.02353,0.0771 -0.03423,0.0488 -0.282611,-0.74651 l -0.192563,-0.61668 -0.429021,-0.0192 -0.429029,-0.0192 v 1.20761 1.20761 l 0.275885,-0.0199 0.275884,-0.0199 z m 3.213246,0.26981 v -0.42195 h 0.375034 c 0.234791,0 0.429133,-0.0379 0.519683,-0.10131 0.227658,-0.15945 0.357658,-0.46861 0.318822,-0.75817 -0.06749,-0.50345 -0.414821,-0.69845 -1.243911,-0.69845 h -0.55386 v 1.20091 1.2009 h 0.29212 0.292112 z m 0,-1.16453 c 0,-0.22666 0.0048,-0.23112 0.261692,-0.23112 0.454878,0 0.432228,0.4032 -0.02481,0.44209 -0.231951,0.0197 -0.236849,0.0153 -0.236849,-0.21097 z m 2.040012,1.31058 c 0.05976,-0.24198 0.06215,-0.24342 0.394261,-0.24342 0.332137,0 0.334483,0.002 0.394262,0.24342 0.05904,0.23904 0.0663,0.24378 0.40093,0.26306 0.187442,0.0108 0.340802,-0.006 0.340802,-0.0377 0,-0.0533 -0.463765,-1.44738 -0.691463,-2.07863 l -0.100658,-0.27905 -0.327007,0.0194 -0.327008,0.0194 -0.220924,0.64914 c -0.121512,0.35703 -0.275765,0.83069 -0.342788,1.05259 -0.06701,0.2219 -0.140539,0.43368 -0.163372,0.47063 -0.08015,0.12969 0.04555,0.20369 0.312902,0.18421 0.252518,-0.0184 0.273803,-0.0353 0.330063,-0.2631 z m 0.231974,-0.80389 c 0,-0.0227 0.03502,-0.15806 0.07786,-0.30096 l 0.07787,-0.25979 0.07954,0.21981 c 0.117388,0.32453 0.10641,0.38209 -0.07292,0.38209 -0.08926,0 -0.162287,-0.0185 -0.162287,-0.0412 z m 2.19334,0.4029 0.01875,-0.64442 0.370815,0.64442 c 0.370152,0.64326 0.371308,0.64445 0.644505,0.66428 0.350558,0.0255 0.352839,0.0163 0.328993,-1.31814 l -0.01859,-1.03862 -0.273492,-0.0199 -0.273491,-0.0199 -0.01859,0.63652 -0.01859,0.63653 -0.254584,-0.4544 c -0.454375,-0.81099 -0.464148,-0.82065 -0.807023,-0.79847 l -0.30159,0.0196 -0.01787,1.10115 c -0.0098,0.60564 -0.0024,1.14044 0.01564,1.18844 0.02258,0.059 0.123331,0.0808 0.309975,0.0673 l 0.276475,-0.02 z m 3.064689,0.17955 c 0,-0.49302 0.003,-0.50289 0.38949,-1.14118 0.21422,-0.35412 0.38948,-0.67073 0.38948,-0.70358 0,-0.0329 -0.14575,-0.0598 -0.3239,-0.0598 h -0.3239 l -0.20764,0.42585 -0.20763,0.42584 -0.13383,-0.22725 c -0.0736,-0.12498 -0.1836,-0.31661 -0.24441,-0.42584 -0.1006,-0.18068 -0.14014,-0.1986 -0.43817,-0.1986 -0.18018,0 -0.327594,0.0242 -0.327594,0.0537 0,0.0295 0.167674,0.32897 0.372604,0.66538 0.36241,0.59488 0.37326,0.62631 0.39615,1.14718 l 0.0235,0.53553 h 0.31792 0.3179 z m -37.260715,-3.62462 c 0.267532,-0.25632 0.332177,-0.54994 0.310572,-1.41062 l -0.01835,-0.73163 -0.275884,-0.0199 -0.275885,-0.0199 -0.004,0.60418 c -0.0064,1.07304 -0.07044,1.28579 -0.385741,1.28579 -0.279243,0 -0.321359,-0.12479 -0.339581,-1.00617 l -0.01747,-0.84388 -0.308347,-0.0198 -0.308339,-0.0198 v 0.90275 c 0,0.83222 0.01157,0.91992 0.148006,1.12237 0.210945,0.31303 0.40066,0.39281 0.873264,0.36724 0.342014,-0.0185 0.435037,-0.0511 0.601488,-0.21054 z m 46.355305,0.0802 c 0.23984,-0.15975 0.48228,-0.57831 0.42358,-0.73129 -0.0239,-0.0624 -0.12806,-0.0955 -0.29995,-0.0955 -0.21937,0 -0.27334,0.0264 -0.3235,0.15834 -0.11493,0.30228 -0.44841,0.35788 -0.58753,0.098 -0.11367,-0.21239 -0.0769,-0.9389 0.0558,-1.10277 0.16487,-0.20361 0.42724,-0.13519 0.5218,0.13607 0.0631,0.18093 0.0919,0.19732 0.31483,0.17891 0.20732,-0.0171 0.24813,-0.0455 0.26297,-0.18255 0.0252,-0.2332 -0.21094,-0.57672 -0.47131,-0.6855 -0.49132,-0.2053 -1.00216,-0.0443 -1.24821,0.39338 -0.20563,0.3658 -0.20659,1.0574 -0.002,1.46304 0.25286,0.50144 0.89334,0.67648 1.35359,0.36993 z m -44.992021,-0.58012 c 0,-0.39718 0.02353,-0.63746 0.05872,-0.60046 0.03231,0.0339 0.211806,0.33187 0.398896,0.66212 l 0.340147,0.60046 h 0.282706 0.282706 v -1.16846 -1.16845 h -0.289679 -0.289678 l -0.01867,0.59378 -0.01867,0.59376 -0.348197,-0.59376 -0.348196,-0.59378 h -0.317171 -0.317171 v 1.16845 1.16846 h 0.292112 0.292112 z m 3.509355,0.44442 c 0.301008,-0.24982 0.379095,-0.44806 0.382558,-0.97125 0.0032,-0.47487 -0.05473,-0.63987 -0.307669,-0.87695 -0.240343,-0.22529 -0.41861,-0.27101 -1.05682,-0.27101 h -0.580004 v 1.17436 1.17436 l 0.669373,-0.0221 c 0.624855,-0.0207 0.684211,-0.0345 0.892562,-0.20737 z m -0.977711,-0.95925 v -0.65763 l 0.243431,0.039 c 0.315575,0.0505 0.470865,0.24413 0.46974,0.58565 -0.0016,0.4168 -0.05864,0.54622 -0.274959,0.62164 -0.429955,0.14988 -0.438212,0.13879 -0.438212,-0.58864 z m 3.493048,0.93352 -0.02018,-0.24343 -0.503088,-0.019 -0.50308,-0.019 v -0.18891 c 0,-0.18641 0.0056,-0.18917 0.405709,-0.20825 l 0.405718,-0.0193 0.0201,-0.24343 0.02018,-0.24342 h -0.425854 -0.425862 v -0.19474 -0.19475 h 0.486853 0.486853 v -0.25965 -0.25966 h -0.77896 -0.778965 v 1.16845 1.16846 h 0.815337 0.815344 z m 1.167634,-0.19475 c 0.02258,-0.474 0.147464,-0.54612 0.302627,-0.17474 0.05305,0.12703 0.1577,0.3169 0.232493,0.42194 0.11903,0.16716 0.175913,0.19098 0.456138,0.19098 0.176081,0 0.32009,-0.0219 0.320018,-0.0487 -6.3e-5,-0.0268 -0.127814,-0.24293 -0.28387,-0.48034 l -0.283743,-0.43166 0.156056,-0.15605 c 0.334419,-0.33442 0.224842,-1.007 -0.187473,-1.15073 -0.109553,-0.0382 -0.457726,-0.0694 -0.773716,-0.0694 h -0.574538 v 1.17201 1.17201 l 0.308339,-0.0198 0.308339,-0.0198 z m 0.01316,-1.15222 c 0,-0.18069 0.02545,-0.2272 0.124511,-0.2272 0.220598,0 0.32988,0.0753 0.32988,0.2272 0,0.15194 -0.109282,0.2272 -0.32988,0.2272 -0.09903,0 -0.124511,-0.0465 -0.124511,-0.2272 z m 2.562088,1.50925 c 0.01452,-0.0446 0.09256,-0.37325 0.173456,-0.73028 l 0.147081,-0.64914 0.108388,0.4544 c 0.248808,1.04306 0.229996,1.00617 0.513013,1.00617 0.139326,0 0.273778,-0.0331 0.298781,-0.0736 0.03949,-0.0639 0.204746,-0.68672 0.510093,-1.92255 l 0.08421,-0.3408 h -0.285634 c -0.171637,0 -0.29579,0.0324 -0.311099,0.0811 -0.01404,0.0446 -0.07547,0.31483 -0.13659,0.60045 -0.123682,0.57805 -0.127001,0.57607 -0.353223,-0.21097 l -0.135274,-0.47063 H 75.59705 75.319553 l -0.113773,0.50308 c -0.168446,0.74486 -0.176081,0.74752 -0.325404,0.1136 l -0.137611,-0.58422 -0.348691,-0.0199 c -0.337419,-0.0193 -0.347247,-0.0151 -0.303848,0.12983 0.05058,0.16895 0.556445,2.14696 0.556445,2.17586 0,0.0653 0.592752,0.005 0.614676,-0.0625 z m 2.468746,-0.17851 c 0.07076,-0.21211 0.09619,-0.22852 0.382469,-0.24714 0.304159,-0.0198 0.307494,-0.0178 0.410106,0.24343 0.101128,0.25744 0.110534,0.26337 0.418179,0.26337 0.173097,0 0.314721,-0.01 0.314721,-0.0211 0,-0.0262 -0.40247,-1.21278 -0.625876,-1.84518 l -0.16626,-0.47063 -0.33422,0.002 -0.334211,0.002 -0.350024,1.08562 c -0.192515,0.59709 -0.363482,1.12386 -0.379941,1.17059 -0.0225,0.064 0.04651,0.08 0.279659,0.0649 0.289591,-0.0188 0.314466,-0.0347 0.385398,-0.24726 z m 0.248903,-0.80682 c 0.01955,-0.051 0.05656,-0.20437 0.08221,-0.3408 l 0.04659,-0.24803 0.08208,0.2272 c 0.130766,0.36196 0.115049,0.45439 -0.07731,0.45439 -0.12002,0 -0.15888,-0.027 -0.13363,-0.0928 z m 2.44502,0.15768 v -0.9088 h 0.324574 0.324566 v -0.25965 -0.25966 H 80.09945 79.125743 v 0.25966 0.25965 h 0.324566 0.324567 v 0.9088 0.9088 h 0.324574 0.324566 z m 2.59656,0.65187 v -0.25692 l -0.50308,-0.019 c -0.495206,-0.0187 -0.503407,-0.0218 -0.523623,-0.19748 l -0.02058,-0.17851 h 0.426252 0.426253 v -0.25966 -0.25965 h -0.421937 -0.421944 v -0.19474 -0.19475 h 0.519315 0.519307 v -0.25965 -0.25966 H 82.209117 81.39769 v 1.12518 c 0,0.61884 0.01947,1.14465 0.04324,1.16844 0.02378,0.0238 0.388948,0.0433 0.811427,0.0433 h 0.768147 z m 1.103539,-0.16502 c 0,-0.3619 0.01651,-0.42194 0.116007,-0.42194 0.07459,0 0.2026,0.15058 0.35868,0.42194 l 0.242673,0.42195 h 0.322922 c 0.177597,0 0.322915,-0.0183 0.322915,-0.0408 0,-0.0412 -0.330749,-0.61526 -0.468097,-0.81245 -0.05991,-0.0861 -0.04069,-0.14671 0.09951,-0.31332 0.300537,-0.35717 0.206812,-0.88357 -0.190927,-1.0723 -0.160093,-0.076 -0.371429,-0.0981 -0.806393,-0.0843 l -0.589434,0.0187 -0.01404,1.12345 c -0.008,0.61789 -7.98e-4,1.13638 0.01476,1.15222 0.0158,0.0158 0.155363,0.0288 0.310071,0.0288 h 0.281293 z m 0.02489,-1.03483 c -0.08095,-0.21095 0.0032,-0.32836 0.235612,-0.32836 0.189149,0 0.229908,0.0254 0.248218,0.15494 0.01205,0.0852 -0.01715,0.17971 -0.06494,0.20998 -0.137411,0.0871 -0.379581,0.066 -0.418921,-0.0365 z m 3.099513,1.19411 0.07866,-0.26266 0.327478,0.0192 c 0.32072,0.0188 0.328666,0.0243 0.385493,0.2658 l 0.058,0.24657 0.333605,-0.0194 c 0.183484,-0.0107 0.327215,-0.0486 0.319412,-0.0843 -0.01811,-0.0827 -0.628645,-1.82237 -0.724539,-2.06442 -0.06765,-0.17072 -0.09273,-0.18071 -0.407569,-0.16229 l -0.335496,0.0196 -0.115919,0.38948 c -0.06374,0.21421 -0.219592,0.6962 -0.346322,1.07108 -0.126729,0.37488 -0.23045,0.71811 -0.230498,0.76274 -5.6e-5,0.0528 0.101048,0.0811 0.289423,0.0811 0.282068,0 0.29153,-0.006 0.368205,-0.26266 z m 0.216226,-0.82465 c 0.02417,-0.0625 0.06015,-0.19392 0.07998,-0.29211 0.01978,-0.0982 0.05792,-0.17851 0.08471,-0.17851 0.02681,0 0.06486,0.0803 0.08471,0.17851 0.01978,0.0982 0.05577,0.22964 0.07997,0.29211 0.0363,0.0937 0.0072,0.1136 -0.164681,0.1136 -0.172163,0 -0.200956,-0.0199 -0.164688,-0.1136 z m 2.177376,0.42195 3.27e-4,-0.66537 0.372075,0.66537 0.372075,0.66537 h 0.276706 0.276707 v -1.16846 -1.16845 h -0.292112 -0.292112 l -0.0024,0.60045 -0.0024,0.60046 -0.154157,-0.25966 c -0.613535,-1.03339 -0.535343,-0.94997 -0.870217,-0.92833 l -0.302276,0.0196 -0.01173,1.10081 c -0.0064,0.60545 0.0024,1.12395 0.02002,1.15222 0.01747,0.0283 0.161498,0.0514 0.320051,0.0514 h 0.288282 l 3.27e-4,-0.66537 z m 3.508909,0.43816 c 0.113749,-0.1071 0.247044,-0.28873 0.296196,-0.40363 0.134508,-0.31436 0.11225,-0.83887 -0.04978,-1.17362 -0.196887,-0.40673 -0.490332,-0.52917 -1.272695,-0.53102 l -0.600451,-0.002 v 1.17419 1.1742 l 0.709964,-0.0219 c 0.686166,-0.0212 0.716897,-0.0285 0.916792,-0.21672 z m -0.977616,-0.94974 v -0.65763 l 0.238931,0.0388 c 0.358257,0.0582 0.442664,0.17929 0.442664,0.63541 0,0.33459 -0.02274,0.41132 -0.153248,0.51699 -0.08429,0.0683 -0.237647,0.12409 -0.340802,0.12409 h -0.187545 z m 3.278179,0.91729 c 0.07188,-0.21541 0.09289,-0.2282 0.403978,-0.24657 l 0.328125,-0.0194 0.05792,0.24656 c 0.05329,0.22682 0.07787,0.24822 0.306129,0.26713 0.448192,0.0371 0.448583,0.0344 0.129386,-0.90958 -0.160619,-0.47501 -0.33654,-0.98781 -0.390926,-1.13954 l -0.09889,-0.27588 h -0.346506 c -0.338272,0 -0.347582,0.005 -0.392195,0.21097 -0.02513,0.11603 -0.176136,0.59071 -0.335575,1.05484 -0.159431,0.46414 -0.305723,0.89677 -0.325085,0.9614 -0.03103,0.10374 0.0016,0.11514 0.276284,0.0974 0.291752,-0.0189 0.316285,-0.0345 0.387328,-0.24734 z m 0.227171,-0.80174 c 0,-0.0482 0.03423,-0.18595 0.07611,-0.30605 l 0.07611,-0.21837 0.08122,0.22492 c 0.11919,0.33003 0.108675,0.38718 -0.07116,0.38718 -0.09301,0 -0.162287,-0.0374 -0.162287,-0.0877 z m 2.596561,0.15616 v -0.90524 l 0.308339,-0.0198 c 0.305371,-0.0196 0.308538,-0.0221 0.328491,-0.26321 l 0.02018,-0.24343 h -0.977623 -0.977631 v 0.2561 0.2561 l 0.308339,0.0198 0.308347,0.0198 0.01803,0.89257 0.01803,0.89257 h 0.322739 0.322739 z m 1.609587,0.43461 0.01923,-0.43817 h 0.321613 0.32159 v 0.4544 0.4544 h 0.32458 0.32456 v -1.16846 -1.16845 h -0.32456 -0.32458 v 0.42194 0.42194 h -0.32456 -0.324579 v -0.42194 -0.42194 h -0.324566 -0.324566 v 1.17201 1.17201 l 0.308339,-0.0198 0.308339,-0.0198 z m 3.430283,0.37311 c 0.0206,-0.0536 0.0191,-0.17048 -0.003,-0.25966 -0.0385,-0.15354 -0.0647,-0.16214 -0.49386,-0.16214 h -0.45316 v -0.91235 -0.91235 l -0.30834,0.0198 -0.30834,0.0198 -0.0179,1.06858 c -0.01,0.58773 -0.003,1.10623 0.0142,1.15223 0.0503,0.13124 1.51999,0.11824 1.57069,-0.0139 z m 2.03575,-0.16214 v -0.25966 h -0.51931 -0.5193 v -0.19474 -0.19474 h 0.41499 c 0.43632,0 0.47374,-0.0261 0.46571,-0.32457 -0.004,-0.15467 -0.0249,-0.16319 -0.44253,-0.18148 -0.43627,-0.0192 -0.43817,-0.02 -0.43817,-0.20824 v -0.18904 l 0.50307,-0.019 0.5031,-0.019 0.0202,-0.24343 0.0202,-0.24342 h -0.81533 -0.81535 v 1.16844 1.16846 h 0.81142 0.81143 z m 1.55794,-0.64914 v -0.9088 h 0.32457 0.32458 v -0.25965 -0.25966 h -0.97764 -0.97763 l 0.0202,0.24343 c 0.0199,0.24108 0.0231,0.24362 0.32848,0.26321 l 0.30835,0.0198 v 0.90524 0.90524 h 0.32457 0.32457 z m 1.62284,-0.25966 v -1.16845 h -0.32456 -0.32458 v 1.16845 1.16846 h 0.32458 0.32456 z m -44.288105,-3.31064 c 0.478763,-0.16827 0.767923,-0.40759 1.009854,-0.83582 0.174046,-0.30806 0.195786,-0.40698 0.199432,-0.90717 0.0032,-0.46864 -0.02114,-0.60937 -0.148397,-0.85154 -0.309823,-0.58949 -0.516156,-0.76753 -1.693252,-1.46106 -0.23207,-0.13672 -0.471408,-0.29096 -0.531864,-0.34275 -0.141832,-0.12148 -0.206046,-0.42003 -0.152139,-0.70738 0.03415,-0.182 0.08898,-0.24643 0.276419,-0.32474 0.272007,-0.11365 0.602238,-0.0728 0.749215,0.0926 0.05489,0.0618 0.124895,0.27299 0.155578,0.46936 l 0.05576,0.35702 h 0.583618 0.583609 l 0.01939,-0.40914 c 0.01556,-0.32866 -0.01324,-0.48052 -0.146683,-0.77196 -0.289646,-0.63266 -0.663899,-0.85994 -1.502962,-0.91268 -1.379312,-0.0867 -2.117358,0.51551 -2.128455,1.73676 -0.0056,0.59947 0.139925,0.95282 0.554649,1.34808 0.278518,0.26544 0.482338,0.40699 1.348661,0.93658 0.446445,0.27291 0.653871,0.56104 0.654222,0.90872 3.27e-4,0.3354 -0.214614,0.56926 -0.566632,0.61647 -0.525666,0.0705 -0.861233,-0.22437 -0.861233,-0.75681 v -0.19683 H 62.077006 61.4516 l 0.03215,0.44969 c 0.06007,0.8395 0.493563,1.39059 1.283553,1.63176 0.329209,0.10051 1.095697,0.0646 1.476244,-0.0692 z m 36.594375,-0.005 c 0.4884,-0.18273 0.70711,-0.38294 0.94402,-0.86417 l 0.20027,-0.4068 -0.0196,-2.07214 c -0.0188,-1.98376 -0.0257,-2.0834 -0.16085,-2.3359 -0.37381,-0.69832 -0.96768,-0.9794 -1.948741,-0.92233 -0.923748,0.0538 -1.300083,0.27957 -1.607553,0.9647 l -0.171645,0.38248 0.01963,2.06161 0.01963,2.0616 0.187026,0.33748 c 0.244125,0.44051 0.39928,0.57915 0.860197,0.76866 0.501301,0.2061 1.166876,0.21595 1.677736,0.0248 z m -1.234879,-1.19291 -0.159336,-0.15934 v -1.90549 c 0,-1.44327 0.02011,-1.93301 0.08288,-2.01886 0.191758,-0.26223 0.877065,-0.24468 1.022025,0.0262 0.0373,0.0697 0.0636,0.89995 0.0636,2.00846 v 1.88971 l -0.15934,0.15934 c -0.11723,0.11723 -0.22949,0.15933 -0.42489,0.15933 -0.195391,0 -0.307649,-0.0421 -0.424885,-0.15933 z m 10.654889,1.19011 c 0.46493,-0.17395 0.84772,-0.5168 1.04212,-0.93341 0.11901,-0.25502 0.15147,-0.43586 0.15147,-0.84387 0,-0.93886 -0.33669,-1.38257 -1.64171,-2.1635 -0.37757,-0.22596 -0.71881,-0.44974 -0.75828,-0.4973 -0.0986,-0.11886 -0.15519,-0.50966 -0.10355,-0.71548 0.0847,-0.33751 0.77809,-0.45564 1.03141,-0.17573 0.0597,0.0661 0.11074,0.26129 0.12251,0.46936 l 0.0202,0.35626 h 0.61668 0.61668 l 0.0207,-0.35702 c 0.0439,-0.75713 -0.38415,-1.42557 -1.05465,-1.64702 -0.67286,-0.22224 -1.69078,-0.0876 -2.16693,0.28659 -0.55208,0.43388 -0.74345,1.5004 -0.39018,2.17445 0.21914,0.41814 0.59741,0.76477 1.30924,1.19976 0.87931,0.53733 1.02627,0.68595 1.06373,1.07578 0.0267,0.27782 0.008,0.35427 -0.12388,0.50764 -0.17864,0.20768 -0.61507,0.29042 -0.91691,0.17386 -0.20307,-0.0784 -0.37012,-0.4036 -0.37012,-0.72046 v -0.19926 l -0.60046,0.0187 -0.60045,0.0187 0.0147,0.44413 c 0.0251,0.75993 0.43034,1.32966 1.10614,1.55505 0.45425,0.1515 1.16621,0.13951 1.61166,-0.0271 z m -42.724758,-0.0316 c 0.08818,-0.0338 0.102676,-0.19879 0.102676,-1.16846 v -1.12903 l 0.567996,-6.6e-4 c 0.461444,-5.1e-4 0.628892,-0.0294 0.892571,-0.15407 0.641577,-0.30331 0.927666,-0.80377 0.987516,-1.72751 0.05417,-0.83579 -0.131883,-1.43745 -0.576118,-1.86327 -0.389012,-0.37288 -0.562684,-0.40899 -1.967254,-0.40899 h -1.2679 v 3.20784 c 0,2.50551 0.01779,3.21499 0.08114,3.24056 0.117243,0.0473 1.057985,0.0502 1.179377,0.004 z m 0.102676,-4.37475 v -0.9737 h 0.34984 c 0.443365,0 0.616686,0.13063 0.692141,0.52167 0.187266,0.9706 -0.05106,1.42575 -0.746646,1.42575 h -0.295335 z m 3.739167,4.36447 c 0.03933,-0.0262 0.122541,-0.33343 0.184889,-0.68267 l 0.113358,-0.63498 0.71767,0.0183 0.717671,0.0183 0.119916,0.58423 c 0.06598,0.32132 0.133575,0.62073 0.150265,0.66536 0.03359,0.0899 1.303433,0.12041 1.351804,0.0325 0.01476,-0.0268 -0.09674,-0.55988 -0.247699,-1.18467 -0.15095,-0.62479 -0.398274,-1.6618 -0.549592,-2.30444 -0.151317,-0.64265 -0.359365,-1.51899 -0.462321,-1.94742 -0.102963,-0.42843 -0.187289,-0.83009 -0.187401,-0.89257 -2e-4,-0.10233 -0.08357,-0.1136 -0.840259,-0.1136 -0.462026,0 -0.856511,0.0266 -0.876631,0.0592 -0.02011,0.0326 -0.09484,0.34232 -0.166045,0.68838 -0.07116,0.34606 -0.214175,0.98398 -0.317721,1.41761 -0.103545,0.43362 -0.310469,1.31421 -0.45984,1.95685 -0.149362,0.64266 -0.329711,1.39743 -0.400771,1.67728 -0.07108,0.27986 -0.113382,0.55007 -0.09404,0.60046 0.02665,0.0694 0.173592,0.0914 0.60519,0.0906 0.313517,-5.1e-4 0.602222,-0.0224 0.641561,-0.0487 z m 0.580713,-2.72538 c 0.04005,-0.23517 0.303976,-1.49888 0.41013,-1.96365 l 0.05194,-0.2272 0.06813,0.35702 c 0.0375,0.19637 0.131125,0.70086 0.208152,1.12111 0.07707,0.42024 0.156638,0.80729 0.176902,0.86011 0.03056,0.0796 -0.04811,0.096 -0.459887,0.096 H 71.91443 Z m 4.600481,2.73566 c 0.08887,-0.0342 0.102684,-0.21309 0.102684,-1.33073 v -1.29134 h 0.16062 c 0.200397,0 0.230665,0.0604 0.715859,1.42811 0.208982,0.58909 0.407561,1.10759 0.441283,1.15222 0.0899,0.11893 1.270701,0.11285 1.316614,-0.007 0.01859,-0.0483 -0.02896,-0.24554 -0.105692,-0.43817 -0.07667,-0.19263 -0.220701,-0.55472 -0.320019,-0.80463 -0.09932,-0.24993 -0.271903,-0.67056 -0.383522,-0.93474 l -0.202951,-0.48036 0.262586,-0.22475 c 0.144416,-0.12362 0.341176,-0.37484 0.437238,-0.55827 0.156998,-0.29979 0.174788,-0.40246 0.175921,-1.01512 0.0016,-0.65768 -0.0064,-0.69617 -0.225951,-1.09686 -0.147831,-0.27021 -0.325731,-0.48563 -0.509279,-0.61669 l -0.282083,-0.20141 -1.421907,-0.0207 -1.421914,-0.0207 v 3.20696 c 0,1.76382 0.01947,3.22643 0.04324,3.25023 0.05409,0.0541 1.07785,0.0574 1.217232,0.004 z m 0.102684,-4.47967 v -0.88391 l 0.423301,0.027 c 0.579963,0.0369 0.700119,0.16007 0.732326,0.75057 0.01316,0.24118 -0.008,0.52025 -0.04611,0.62016 -0.08591,0.22276 -0.410488,0.37012 -0.815296,0.37012 h -0.294202 z m 5.502178,1.81135 0.01691,-2.67528 0.599741,-0.0187 0.599733,-0.0187 0.01883,-0.53554 0.01883,-0.53554 h -1.91759 -1.917591 v 0.55177 0.55177 h 0.616686 0.616685 v 2.65606 c 0,2.06554 0.01803,2.66274 0.08114,2.68612 0.0446,0.0165 0.344048,0.0262 0.665375,0.0216 l 0.584224,-0.008 z m 2.545948,2.00989 0.161075,-0.66536 h 0.69443 0.694431 l 0.07268,0.37325 c 0.03997,0.2053 0.08934,0.46089 0.109657,0.568 0.07914,0.41738 0.101367,0.42935 0.773348,0.41682 0.337698,-0.006 0.628581,-0.035 0.646404,-0.0639 0.01779,-0.0289 -0.08608,-0.54362 -0.230905,-1.14394 -0.421426,-1.74683 -0.920047,-3.89788 -1.118235,-4.82405 l -0.09029,-0.42193 -0.850726,-0.0181 -0.850727,-0.0181 -0.07531,0.37509 c -0.04141,0.20631 -0.129905,0.5942 -0.196656,0.86196 -0.06677,0.26777 -0.194239,0.82279 -0.283328,1.23338 -0.08908,0.41057 -0.28289,1.24309 -0.430681,1.85005 -0.401473,1.6487 -0.499681,2.10541 -0.461052,2.14403 0.01923,0.0192 0.313907,0.0266 0.654852,0.0165 l 0.619901,-0.0184 z m 0.390695,-1.88835 c 0,-0.0921 0.323729,-1.71276 0.403261,-2.01878 l 0.07491,-0.28819 0.08232,0.38556 c 0.128428,0.6015 0.348308,1.79459 0.348308,1.88994 0,0.0632 -0.120419,0.086 -0.454399,0.086 -0.249916,0 -0.454391,-0.0246 -0.454391,-0.0546 z m 4.441297,2.54678 c 0.0903,-0.0346 0.103187,-0.27139 0.106913,-1.96364 l 0.004,-1.92424 0.228456,0.48685 c 0.125645,0.26777 0.286679,0.63291 0.357858,0.81143 0.07116,0.17851 0.178012,0.4268 0.237424,0.55177 0.05943,0.12495 0.283735,0.63614 0.498516,1.13598 l 0.390512,0.9088 0.476721,0.0216 c 0.262195,0.0119 0.546783,0.004 0.632411,-0.0175 l 0.155681,-0.0391 v -3.212 -3.21201 h -0.584224 -0.584224 l -0.0048,1.96365 c -0.004,1.69985 -0.01604,1.93253 -0.08989,1.73202 -0.04691,-0.1274 -0.158561,-0.3903 -0.248081,-0.58423 -0.268793,-0.58225 -0.604328,-1.35269 -0.888614,-2.04035 -0.147592,-0.35703 -0.310238,-0.74408 -0.361432,-0.86012 l -0.09307,-0.21097 h -0.682647 -0.682647 v 3.20243 c 0,1.76132 0.01947,3.22189 0.04332,3.24568 0.05409,0.0541 0.948209,0.0573 1.087407,0.004 z m 5.410895,-1.14528 0.01771,-1.15221 h 0.569983 c 0.482449,0 0.621552,-0.0257 0.905774,-0.16734 0.365158,-0.18196 0.592816,-0.41609 0.808308,-0.83127 0.118153,-0.22765 0.139326,-0.38255 0.142956,-1.04618 0.0048,-0.91856 -0.06462,-1.16688 -0.442496,-1.57851 -0.451423,-0.49169 -0.593717,-0.52813 -2.068661,-0.52977 l -1.282053,-0.002 v 3.20243 c 0,1.76132 0.0205,3.22288 0.04548,3.24788 0.02497,0.025 0.324422,0.0372 0.665367,0.027 l 0.619901,-0.0184 z m 0.01476,-3.22947 v -0.9737 h 0.328834 c 0.411996,0 0.566353,0.0814 0.682823,0.36016 0.129594,0.31016 0.117938,0.98335 -0.02178,1.26082 -0.122517,0.24323 -0.270539,0.30957 -0.71396,0.31997 l -0.275877,0.006 z m 10.845444,4.24208 c 0.35552,-0.16175 0.65889,-0.46902 0.85557,-0.86655 0.13469,-0.27223 0.14613,-0.39686 0.16811,-1.83121 0.0356,-2.32252 -0.0721,-2.81837 -0.71902,-3.31181 -0.36443,-0.27796 -0.62942,-0.31811 -1.95941,-0.29689 l -1.22801,0.0196 0.006,0.24342 c 0.003,0.13388 0.008,1.59019 0.0109,3.23625 l 0.006,2.9928 1.28205,-0.0253 c 1.12695,-0.0222 1.31797,-0.0416 1.57897,-0.16035 z m -1.56275,-3.10607 v -2.10971 h 0.4075 c 0.80684,0 0.8399,0.0909 0.81377,2.23619 l -0.0203,1.67008 -0.18213,0.15657 c -0.15174,0.13043 -0.25194,0.15656 -0.60045,0.15656 h -0.41833 z"
           style="fill:#000000;fill-opacity:1;stroke-width:0.064914"
           id="path1806" /></g></g></g></svg>
