<?xml version="1.0" encoding="UTF-8" standalone="no"?>
<!-- Created with Inkscape (http://www.inkscape.org/) -->

<svg
   width="62.606857mm"
   height="18.879272mm"
   viewBox="0 0 62.606857 18.879272"
   version="1.1"
   id="svg5"
   xml:space="preserve"
   xmlns="http://www.w3.org/2000/svg"
   xmlns:svg="http://www.w3.org/2000/svg"><defs
     id="defs2" /><g
     id="layer1"
     transform="translate(-148.52716,-307.18832)"><g
       id="g1639"
       transform="translate(61.552209,53.890401)"><g
         id="g1320"
         transform="translate(-124.52584,96.308333)"><path
           d="m 224.54458,175.51718 0.025,-0.30175 -0.67598,-0.0237 -0.67599,-0.0237 v -0.2441 c 0,-0.24201 0.005,-0.24445 0.52888,-0.28478 l 0.52889,-0.0407 v -0.28479 -0.28478 l -0.55426,-0.0242 c -0.54932,-0.0239 -0.55404,-0.0261 -0.52889,-0.2441 0.0246,-0.21295 0.0447,-0.22122 0.63563,-0.26061 l 0.61025,-0.0407 v -0.28479 -0.28478 l -0.95606,-0.0229 -0.95606,-0.0229 v 1.51037 1.51039 l 0.99674,-0.0229 0.99675,-0.0229 z m 1.0992,-0.003 c 0.0716,-0.30473 0.0723,-0.30513 0.49883,-0.30513 0.42272,0 0.4284,0.003 0.55494,0.32547 0.11963,0.30456 0.14886,0.32547 0.45506,0.32547 0.17996,0 0.34385,-0.0275 0.36419,-0.061 0.0377,-0.0622 -0.82783,-2.66399 -0.94756,-2.84824 -0.0856,-0.13167 -0.66375,-0.13137 -0.76669,0 -0.0437,0.0559 -0.2012,0.48617 -0.35,0.95606 -0.14881,0.46989 -0.35471,1.06972 -0.45756,1.33295 -0.10285,0.26323 -0.16616,0.51233 -0.14069,0.55354 0.0255,0.0412 0.19739,0.0639 0.38203,0.0503 0.31425,-0.0231 0.3403,-0.0442 0.40745,-0.32978 z m 0.29967,-1.00768 c 0,-0.14035 0.19592,-0.68072 0.24681,-0.68072 0.0321,0 0.0786,0.10069 0.10347,0.22376 0.0248,0.12307 0.0699,0.28783 0.10025,0.36615 0.0452,0.11688 0.01,0.14239 -0.19772,0.14239 -0.13905,0 -0.25281,-0.0232 -0.25281,-0.0516 z m 2.76648,0.78389 c 0,-0.51826 0.0149,-0.56957 0.16528,-0.56957 0.0909,0 0.18867,0.0641 0.21724,0.14239 0.0286,0.0783 0.17343,0.33462 0.3219,0.56957 0.26058,0.41232 0.28272,0.42717 0.63712,0.42717 0.22096,0 0.36716,-0.037 0.36716,-0.0929 0,-0.0511 -0.14646,-0.32482 -0.32546,-0.60826 -0.17901,-0.28344 -0.32547,-0.54472 -0.32547,-0.58062 0,-0.0359 0.0722,-0.12712 0.1605,-0.20271 0.22129,-0.18947 0.28491,-0.5069 0.17506,-0.87353 -0.14058,-0.46921 -0.39509,-0.59097 -1.32927,-0.63595 l -0.79637,-0.0383 v 1.51617 1.51616 h 0.36616 0.36615 z m 0,-1.46717 c 0,-0.27436 0.13915,-0.36689 0.43872,-0.2917 0.43674,0.10961 0.30621,0.53836 -0.1639,0.53836 -0.25175,0 -0.27482,-0.0207 -0.27482,-0.24666 z m 3.84088,1.95211 c 0.60108,-0.16694 0.82485,-0.81557 0.43939,-1.27366 -0.19271,-0.22902 -0.19316,-0.23378 -0.0407,-0.42209 0.22891,-0.28269 0.19579,-0.60655 -0.0914,-0.89372 -0.28054,-0.28054 -0.64675,-0.36099 -1.4631,-0.32143 l -0.52889,0.0256 -0.0224,1.38025 c -0.0123,0.75914 -0.004,1.42737 0.0178,1.48495 0.0499,0.12993 1.24265,0.14411 1.68926,0.0201 z m -0.91167,-0.84618 c 0,-0.28411 0.006,-0.2897 0.32802,-0.2897 0.57017,0 0.54178,0.5054 -0.0311,0.55414 -0.29074,0.0247 -0.29688,0.0192 -0.29688,-0.26444 z m 0,-1.14405 c 0,-0.24696 0.0261,-0.28479 0.19676,-0.28479 0.31665,0 0.45417,0.086 0.45417,0.28401 0,0.12329 -0.0612,0.20161 -0.18307,0.23428 -0.39174,0.10497 -0.46786,0.067 -0.46786,-0.2335 z m 3.98964,1.95143 c 0.39815,-0.20589 0.51554,-0.53872 0.55198,-1.56508 0.0437,-1.23156 0.0168,-1.32207 -0.39346,-1.32207 h -0.32391 v 1.04222 c 0,1.18432 -0.0582,1.34454 -0.48821,1.34454 -0.43035,0 -0.4882,-0.15987 -0.4882,-1.34922 v -1.0469 l -0.34581,0.025 -0.34581,0.025 -0.025,1.01709 c -0.0299,1.21644 0.0526,1.57214 0.41591,1.79366 0.32121,0.19585 1.09574,0.21503 1.44249,0.0357 z m 3.1201,-0.12402 c 0.43055,-0.29309 0.56161,-0.62851 0.52544,-1.34475 -0.0519,-1.02702 -0.47103,-1.37584 -1.65471,-1.37699 l -0.7323,-8.2e-4 -0.0224,1.38026 c -0.0123,0.75913 -0.003,1.4317 0.0215,1.49459 0.0347,0.0904 0.2037,0.10737 0.80622,0.081 0.64278,-0.0281 0.80843,-0.0647 1.05625,-0.23341 z m -1.11571,-0.45774 c -0.0298,-0.0298 -0.0542,-0.39713 -0.0542,-0.81622 0,-0.85752 0.0417,-0.91766 0.52556,-0.75797 0.20957,0.0692 0.30133,0.15443 0.33639,0.31255 0.0265,0.11959 0.065,0.27971 0.0855,0.35582 0.0745,0.27626 -0.13142,0.80045 -0.34664,0.88227 -0.23852,0.0907 -0.46952,0.10065 -0.54661,0.0236 z m 5.54065,0.48785 c 0.20632,-0.15404 0.44992,-0.72066 0.37007,-0.86078 -0.0191,-0.0336 -0.18023,-0.061 -0.358,-0.061 -0.23434,0 -0.3371,0.0392 -0.37372,0.14239 -0.0747,0.21067 -0.27973,0.42718 -0.40452,0.42718 -0.0602,0 -0.18267,-0.0732 -0.27217,-0.16274 -0.13381,-0.1338 -0.16274,-0.27122 -0.16274,-0.77298 0,-0.50177 0.0289,-0.63919 0.16274,-0.77299 0.26407,-0.26407 0.49948,-0.19493 0.6457,0.18965 0.0762,0.20048 0.122,0.22407 0.39158,0.20176 0.26347,-0.0218 0.30874,-0.0553 0.33061,-0.24476 0.0183,-0.15828 -0.0522,-0.30412 -0.25265,-0.52284 -0.2504,-0.27323 -0.3256,-0.30641 -0.75764,-0.33421 -0.61904,-0.0399 -0.95067,0.15206 -1.18734,0.68708 -0.32446,0.73349 -0.0696,1.86553 0.49137,2.18222 0.30739,0.17355 1.08739,0.11805 1.37671,-0.098 z m 2.93303,0.0526 c 0.78412,-0.47806 0.77393,-2.20918 -0.0158,-2.69077 -0.36988,-0.22554 -1.0814,-0.21093 -1.44147,0.0296 -0.39771,0.2657 -0.56098,0.64478 -0.56113,1.30287 -1.6e-4,0.65628 0.12924,1.00517 0.48325,1.30305 0.22243,0.18716 0.33631,0.21992 0.76371,0.21966 0.36008,0 0.57852,-0.0468 0.77148,-0.16442 z m -1.02935,-0.55476 c -0.3205,-0.3205 -0.27477,-1.45642 0.066,-1.63877 0.22876,-0.12243 0.31452,-0.10369 0.53517,0.11696 0.17051,0.17051 0.19972,0.27601 0.19972,0.72133 0,0.4045 -0.0379,0.56975 -0.16864,0.736 -0.19763,0.25125 -0.42251,0.27418 -0.63222,0.0645 z m 2.93416,-0.23658 0.0229,-0.95606 0.28166,0.85435 c 0.15491,0.4699 0.31656,0.902 0.35922,0.96022 0.0427,0.0582 0.18923,0.0948 0.32572,0.0814 0.27268,-0.0269 0.28785,-0.0556 0.63765,-1.20432 l 0.18583,-0.61025 0.0407,0.89503 0.0407,0.89504 h 0.32547 0.32547 v -1.4646 -1.46461 l -0.4388,-0.025 c -0.24133,-0.0138 -0.47482,0.011 -0.51885,0.0551 -0.044,0.044 -0.20062,0.47635 -0.34798,0.96071 -0.14736,0.48437 -0.28723,0.82575 -0.31081,0.75862 -0.0236,-0.0671 -0.16009,-0.49896 -0.30335,-0.95963 l -0.26048,-0.83759 -0.49652,0.0239 -0.49652,0.0239 -0.0224,1.38025 c -0.0123,0.75914 -0.004,1.42737 0.0178,1.48495 0.0222,0.0577 0.16785,0.10469 0.32493,0.10469 h 0.28475 z m 4.03413,0.40684 0.0242,-0.50855 h 0.39913 c 0.54309,0 0.7692,-0.12163 0.98609,-0.53049 0.16536,-0.3117 0.17399,-0.38041 0.0851,-0.67711 -0.16343,-0.54548 -0.45809,-0.69376 -1.39028,-0.69962 l -0.77942,-0.005 -0.0224,1.38025 c -0.0123,0.75914 -0.003,1.42959 0.0197,1.48989 0.0276,0.0719 0.14739,0.10094 0.34785,0.0844 l 0.30578,-0.0253 z m 0.0707,-1.13236 c -0.0298,-0.0298 -0.0542,-0.1946 -0.0542,-0.36615 0,-0.28059 0.021,-0.31191 0.20876,-0.31191 0.3199,0 0.52354,0.14432 0.52354,0.37103 0,0.14258 -0.0618,0.22607 -0.20871,0.28193 -0.24407,0.0928 -0.39366,0.10078 -0.46935,0.0251 z m 2.47775,1.35612 0.0975,-0.32547 h 0.42582 c 0.39646,0 0.42968,0.0154 0.48186,0.2233 0.0308,0.12282 0.0942,0.26928 0.14083,0.32547 0.0837,0.10086 0.64628,0.14456 0.73384,0.057 0.0523,-0.0523 -0.81572,-2.71166 -0.93475,-2.86371 -0.0653,-0.0834 -0.79199,-0.15553 -0.79199,-0.0786 0,0.0127 -0.20139,0.62147 -0.44752,1.35279 -0.24614,0.73132 -0.44752,1.3983 -0.44752,1.48218 0,0.12342 0.0615,0.1525 0.3222,0.1525 0.30541,0 0.32729,-0.017 0.41972,-0.32546 z m 0.31952,-1.1188 c 0.002,-0.0783 0.0504,-0.25208 0.10759,-0.38615 l 0.10392,-0.24375 0.13157,0.38614 0.13157,0.38615 h -0.23916 c -0.17492,0 -0.23817,-0.0382 -0.23549,-0.14239 z m 2.69912,0.52889 0.023,-0.91538 0.49457,0.89503 0.49457,0.89504 0.33578,0.0248 0.33578,0.0248 0.024,-1.43655 c 0.0132,-0.7901 0.002,-1.47223 -0.0252,-1.51582 -0.0271,-0.0436 -0.17353,-0.0674 -0.32546,-0.0529 l -0.27626,0.0264 -0.0407,0.79949 -0.0407,0.79948 -0.25334,-0.43333 c -0.13934,-0.23833 -0.35142,-0.60726 -0.47129,-0.81983 -0.20904,-0.37068 -0.23279,-0.38649 -0.58067,-0.38649 h -0.36273 v 1.45104 c 0,0.79808 0.0244,1.47546 0.0543,1.50529 0.0298,0.0298 0.1751,0.0542 0.3228,0.0542 h 0.26856 z m 3.87097,0.24664 c 0.0229,-0.60641 0.0404,-0.6554 0.50655,-1.42184 0.26556,-0.43659 0.45194,-0.8247 0.41418,-0.86245 -0.0378,-0.0378 -0.21019,-0.057 -0.38318,-0.0428 -0.29328,0.0241 -0.3335,0.0603 -0.59542,0.53557 -0.1545,0.28033 -0.30866,0.48171 -0.34259,0.44752 -0.0339,-0.0342 -0.16891,-0.26355 -0.29996,-0.50968 -0.22599,-0.42445 -0.25615,-0.44884 -0.58517,-0.47308 -0.19079,-0.0141 -0.3762,0.004 -0.41202,0.0407 -0.0358,0.0364 0.15223,0.42467 0.41789,0.86275 0.47283,0.77973 0.48302,0.80904 0.48302,1.39003 0,0.32642 0.0261,0.61962 0.0581,0.65157 0.0319,0.0319 0.20586,0.0472 0.38649,0.0339 l 0.32842,-0.0242 z m -46.7702,-4.44332 c 0.35552,-0.2638 0.40551,-0.46803 0.40679,-1.66175 l 0.001,-1.11879 h -0.32546 -0.32547 v 0.99898 c 0,1.11481 -0.0842,1.36066 -0.46607,1.36066 -0.44606,0 -0.51034,-0.16556 -0.51034,-1.31448 v -1.04516 h -0.36615 -0.36615 v 1.1271 c 0,1.03899 0.0145,1.14872 0.18589,1.40358 0.10337,0.15374 0.31108,0.32165 0.46786,0.37821 0.36535,0.13182 1.03676,0.0654 1.2979,-0.12835 z m 58.25609,-0.0113 c 0.24948,-0.17764 0.44073,-0.55818 0.39684,-0.78961 -0.0203,-0.10697 -0.11453,-0.15597 -0.33514,-0.17423 -0.27867,-0.0231 -0.31493,-0.002 -0.39395,0.22426 -0.11314,0.32455 -0.42704,0.41675 -0.65221,0.19158 -0.22442,-0.22442 -0.29078,-0.94716 -0.12367,-1.34709 0.1048,-0.25084 0.16814,-0.30453 0.35922,-0.30453 0.26549,0 0.42726,0.12939 0.42726,0.34174 0,0.11993 0.0682,0.14646 0.37632,0.14646 h 0.37632 l -0.0518,-0.26444 c -0.0775,-0.39588 -0.3095,-0.65845 -0.69042,-0.78155 -0.62233,-0.20109 -1.27722,0.0965 -1.52678,0.69377 -0.12954,0.31003 -0.14522,1.00692 -0.0316,1.40321 0.22605,0.78818 1.20467,1.13388 1.86957,0.66043 z m -56.44727,-0.69496 0.0231,-0.85498 0.49378,0.83464 c 0.49302,0.83333 0.49429,0.83464 0.81367,0.83464 h 0.31988 l 0.0222,-1.44904 0.0222,-1.44903 -0.3477,0.0251 -0.34771,0.0251 -0.0238,0.77299 -0.0238,0.77298 -0.32007,-0.52888 c -0.17604,-0.29089 -0.38344,-0.64958 -0.4609,-0.7971 -0.13154,-0.25055 -0.16516,-0.26662 -0.51044,-0.2441 l -0.36963,0.0241 -0.0224,1.33943 c -0.0123,0.73669 -0.004,1.38661 0.0178,1.44427 0.0235,0.0613 0.17517,0.10483 0.3655,0.10483 h 0.32527 z m 4.26879,0.64408 c 0.12622,-0.0936 0.31495,-0.295 0.4194,-0.44751 0.16644,-0.24303 0.18651,-0.35466 0.16236,-0.90296 -0.0249,-0.56427 -0.0515,-0.65106 -0.27128,-0.88471 -0.35637,-0.37881 -0.67197,-0.48313 -1.46162,-0.48313 h -0.69423 v 1.47223 1.47223 l 0.80794,-0.028 c 0.66421,-0.023 0.84877,-0.0582 1.03743,-0.19818 z m -1.11307,-1.25371 v -0.81367 h 0.28479 c 0.44237,0 0.61025,0.22385 0.61025,0.81367 0,0.58983 -0.16788,0.81367 -0.61025,0.81367 h -0.28479 z m 4.35314,1.13914 v -0.28478 l -0.65028,-0.0407 c -0.62831,-0.0393 -0.6503,-0.0476 -0.65094,-0.2441 -6.5e-4,-0.19202 0.029,-0.20569 0.52823,-0.2441 l 0.52889,-0.0407 0.0252,-0.30513 0.0253,-0.30512 h -0.53379 -0.5338 v -0.24054 -0.24054 l 0.58991,-0.0239 0.58991,-0.0239 0.0252,-0.30513 0.0253,-0.30512 h -0.98132 -0.98131 v 1.46711 1.46711 l 0.99674,-0.0229 0.99675,-0.0228 z m 1.44054,-0.22376 c 0.0313,-0.71455 0.16409,-0.71939 0.55851,-0.0203 0.29422,0.52148 0.30367,0.52924 0.6753,0.55369 0.47366,0.0312 0.4777,-0.0346 0.043,-0.69994 l -0.33392,-0.51105 0.20268,-0.18783 c 0.27344,-0.25341 0.34204,-0.61124 0.18792,-0.98013 -0.16848,-0.40323 -0.50919,-0.53438 -1.38817,-0.53438 h -0.69423 v 1.4646 1.46461 h 0.36243 0.36243 z m -0.0166,-1.42579 c 0,-0.34917 0.0289,-0.37481 0.34853,-0.30943 0.22369,0.0457 0.26172,0.0885 0.26172,0.29429 0,0.21948 -0.027,0.243 -0.30513,0.26603 -0.29761,0.0246 -0.30512,0.0184 -0.30512,-0.25089 z m 3.2424,1.83263 c 0.0411,-0.0783 0.15918,-0.50855 0.2623,-0.95606 l 0.1875,-0.81367 0.23925,0.96022 0.23926,0.96023 0.33531,-0.0245 0.33531,-0.0245 0.34109,-1.30188 c 0.1876,-0.71603 0.34321,-1.36594 0.34581,-1.44426 0.004,-0.11227 -0.063,-0.14239 -0.31526,-0.14239 -0.35832,0 -0.32531,-0.0573 -0.53624,0.93015 -0.15685,0.73429 -0.18372,0.71848 -0.44717,-0.26306 l -0.1813,-0.67547 -0.33447,0.0245 -0.33448,0.0245 -0.16648,0.70764 c -0.0916,0.3892 -0.18844,0.7296 -0.21528,0.75644 -0.0269,0.0268 -0.0744,-0.0902 -0.10569,-0.26012 -0.0313,-0.16991 -0.11491,-0.51946 -0.18584,-0.77678 l -0.12896,-0.46786 h -0.35281 c -0.25663,0 -0.35281,0.0327 -0.35281,0.11995 0,0.066 0.11312,0.55113 0.25139,1.07812 0.13826,0.52698 0.28624,1.10142 0.32885,1.27653 0.10617,0.43635 0.1238,0.45461 0.43878,0.45461 0.18118,0 0.30302,-0.0493 0.35194,-0.14239 z m 3.11384,-0.18308 0.0975,-0.32547 h 0.43137 0.43137 l 0.0987,0.32935 c 0.0983,0.32824 0.0999,0.32928 0.47113,0.30513 0.20484,-0.0133 0.36522,-0.0608 0.35639,-0.10559 -0.009,-0.0448 -0.22474,-0.6964 -0.47979,-1.44811 l -0.46374,-1.36673 -0.39907,0.0242 -0.39908,0.0242 -0.44272,1.34256 c -0.2435,0.7384 -0.443,1.38832 -0.44335,1.44426 -4e-4,0.0643 0.11773,0.10171 0.32158,0.10171 0.30541,0 0.32729,-0.017 0.41972,-0.32547 z m 0.31585,-0.94037 c 0,-0.13295 0.18897,-0.76922 0.21941,-0.73877 0.0197,0.0197 0.0865,0.20416 0.1484,0.40995 l 0.11261,0.37415 h -0.24021 c -0.13212,0 -0.24021,-0.0204 -0.24021,-0.0453 z m 3.07387,0.11073 0.0226,-1.11443 0.38423,-0.0247 c 0.38016,-0.0245 0.38449,-0.0279 0.40947,-0.32984 l 0.0253,-0.30512 h -1.23033 -1.23033 l 0.0252,0.30512 c 0.025,0.30225 0.0291,0.30551 0.43209,0.34581 l 0.40684,0.0407 0.0171,1.05777 c 0.009,0.58177 0.0185,1.08734 0.0203,1.12347 0.002,0.0361 0.15891,0.0544 0.3491,0.0407 l 0.34581,-0.025 z m 3.23207,0.82964 v -0.28478 l -0.63059,-0.0238 -0.6306,-0.0238 v -0.23679 c 0,-0.23365 0.007,-0.23712 0.50855,-0.26103 l 0.50854,-0.0242 0.0253,-0.30513 0.0253,-0.30512 h -0.5338 -0.5338 v -0.24068 -0.24068 l 0.6306,-0.0238 0.63059,-0.0238 v -0.28478 -0.28479 l -0.95606,-0.0229 -0.95606,-0.0229 v 1.46977 1.46978 l 0.95606,-0.0229 0.95606,-0.0229 z m 1.42392,-0.25006 c 0,-0.50338 0.0178,-0.57212 0.14178,-0.54824 0.078,0.015 0.28382,0.27401 0.45745,0.57553 l 0.31568,0.54824 h 0.3969 c 0.21829,0 0.3969,-0.021 0.3969,-0.0468 0,-0.0257 -0.16503,-0.30188 -0.36672,-0.61367 l -0.36672,-0.56688 0.20902,-0.17979 c 0.13877,-0.11937 0.22206,-0.28912 0.24785,-0.50513 0.085,-0.71224 -0.34979,-1.01664 -1.45248,-1.01684 l -0.71196,-1.2e-4 v 1.4646 1.46461 h 0.36615 0.36615 z m 0,-1.41796 c 0,-0.27067 0.014,-0.28479 0.28192,-0.28479 0.20156,0 0.30755,0.0479 0.3718,0.16794 0.12555,0.23459 -0.032,0.40163 -0.3789,0.40163 -0.25983,0 -0.27482,-0.0155 -0.27482,-0.28478 z m 3.88024,1.68836 0.0722,-0.30512 h 0.43721 c 0.42724,0 0.43938,0.007 0.53267,0.28478 0.0894,0.26663 0.12033,0.2864 0.48554,0.31001 0.46443,0.03 0.46891,0.12775 -0.0628,-1.36778 -0.61121,-1.71921 -0.50535,-1.54597 -0.94468,-1.54597 h -0.38437 l -0.46202,1.4112 c -0.25411,0.77617 -0.46202,1.43524 -0.46202,1.46461 0,0.0294 0.16113,0.0534 0.35806,0.0534 0.3467,0 0.36037,-0.01 0.43023,-0.30513 z m 0.29668,-1.03165 c 0.0245,-0.0639 0.0691,-0.24702 0.0991,-0.40683 0.0651,-0.34698 0.16036,-0.37493 0.22769,-0.0668 0.0269,0.12307 0.0723,0.30615 0.10103,0.40684 0.0464,0.16277 0.0231,0.18307 -0.21017,0.18307 -0.19393,0 -0.25066,-0.0303 -0.21768,-0.11627 z m 2.72203,0.4902 0.0234,-0.80589 0.3751,0.64316 c 0.20631,0.35374 0.42545,0.72554 0.48698,0.82623 0.0858,0.14042 0.18729,0.18308 0.43547,0.18308 h 0.32359 v -1.46461 -1.4646 h -0.32262 -0.32262 l -0.0232,0.83401 -0.0232,0.83401 -0.47244,-0.83401 -0.47244,-0.83401 h -0.36157 -0.36157 v 1.46928 1.46929 l 0.34581,-0.025 0.34581,-0.025 z m 4.38338,0.55407 c 0.35386,-0.28518 0.5067,-0.63873 0.5067,-1.1721 0,-0.53347 -0.15286,-0.88695 -0.50687,-1.17209 -0.30352,-0.24448 -0.33677,-0.25183 -1.13914,-0.25183 h -0.8265 l -0.0224,1.33943 c -0.0123,0.73669 -0.003,1.39003 0.0207,1.45188 0.0337,0.0879 0.21896,0.10635 0.84912,0.0845 0.75989,-0.0264 0.82383,-0.0423 1.11842,-0.27978 z m -1.1996,-0.39197 c -0.0186,-0.0185 -0.0222,-0.3846 -0.008,-0.81367 l 0.0259,-0.78013 h 0.27329 c 0.36642,0 0.61098,0.30642 0.60947,0.76362 -0.002,0.49077 -0.07,0.6702 -0.2944,0.77244 -0.19793,0.0902 -0.54055,0.1228 -0.60631,0.0577 z m 4.08474,0.35901 0.0975,-0.32547 h 0.4315 0.4315 l 0.0876,0.32547 c 0.0856,0.31798 0.096,0.32547 0.45066,0.32547 0.21085,0 0.36301,-0.0377 0.36301,-0.0899 0,-0.0495 -0.20749,-0.71026 -0.46109,-1.46839 l -0.4611,-1.37844 -0.40276,0.0241 -0.40277,0.0241 -0.43428,1.30187 c -0.23886,0.71603 -0.43596,1.36595 -0.43801,1.44427 -0.003,0.11227 0.0644,0.14239 0.31847,0.14239 0.30541,0 0.32729,-0.017 0.41972,-0.32547 z m 0.31631,-0.99674 c 2.4e-4,-0.0559 0.0419,-0.24817 0.0926,-0.42718 l 0.0921,-0.32547 0.10463,0.28479 c 0.16429,0.44719 0.14573,0.56956 -0.0864,0.56956 -0.11188,0 -0.20321,-0.0458 -0.20296,-0.1017 z m 3.25422,0.18753 v -1.13468 l 0.38649,-0.0248 c 0.38274,-0.0246 0.3865,-0.0276 0.3865,-0.30958 v -0.28479 l -1.20017,-0.0225 -1.20016,-0.0225 v 0.32764 0.32764 h 0.40684 0.40683 v 1.13914 1.13914 h 0.40684 0.40683 z m 1.96958,0.54477 0.0239,-0.58991 h 0.44116 0.44116 l 0.006,0.56957 0.006,0.56957 h 0.36615 0.36615 l 0.0222,-1.4488 0.0222,-1.4488 -0.38839,0.0249 -0.38839,0.0249 -0.0241,0.55335 -0.0241,0.55335 -0.42337,-0.0245 -0.42336,-0.0245 -0.0241,-0.54922 -0.0241,-0.54923 h -0.36244 -0.36243 v 1.4646 1.46461 h 0.36259 0.36258 l 0.0239,-0.58991 z m 4.29568,0.26444 v -0.32547 h -0.56728 -0.56727 l -0.0226,-1.11879 -0.0226,-1.1188 -0.34581,-0.025 -0.34581,-0.025 v 1.46929 1.46928 h 0.93572 0.93572 z m 2.56306,0 v -0.28478 l -0.6306,-0.0238 -0.63059,-0.0238 v -0.23679 c 0,-0.23365 0.007,-0.23712 0.50854,-0.26103 l 0.50855,-0.0242 0.0253,-0.30513 0.0253,-0.30512 h -0.53379 -0.5338 v -0.2441 -0.24411 h 0.61025 0.61025 v -0.32805 -0.32805 l -0.95606,0.0229 -0.95606,0.0229 -0.0224,1.33943 c -0.0123,0.73669 -0.004,1.38778 0.0188,1.44686 0.0316,0.0824 0.26406,0.10209 0.99885,0.0845 l 0.95762,-0.0229 z m 1.97541,-0.82964 0.0226,-1.11443 0.38423,-0.0247 c 0.38016,-0.0245 0.38422,-0.0277 0.38422,-0.30949 v -0.28479 h -1.17982 -1.17982 v 0.28479 c 0,0.28201 0.004,0.28502 0.38649,0.30958 l 0.3865,0.0248 v 1.13914 1.13914 l 0.38649,-0.0248 0.38649,-0.0248 z m 2.05225,-0.31396 v -1.46906 l -0.38649,0.0248 -0.38649,0.0248 -0.0224,1.33943 c -0.0123,0.73669 -0.004,1.38661 0.0178,1.44427 0.0246,0.0642 0.18317,0.10483 0.40894,0.10483 h 0.3687 z m -55.57239,-4.14765 c 0.56803,-0.14886 1.03272,-0.52465 1.29757,-1.04932 0.21348,-0.4229 0.24715,-0.57771 0.24715,-1.13612 0,-1.29022 -0.44347,-1.83647 -2.37778,-2.92884 -0.61096,-0.34502 -0.79553,-0.58659 -0.79553,-1.0412 0,-0.6089 0.44342,-0.88797 1.12206,-0.70618 0.24219,0.0649 0.42392,0.42448 0.42392,0.83886 v 0.32951 h 0.69161 c 0.3804,0 0.71909,-0.009 0.75265,-0.0203 0.0978,-0.0326 0.0581,-0.96761 -0.0556,-1.30885 -0.14215,-0.42654 -0.54474,-0.86348 -0.96821,-1.05081 -0.81062,-0.35858 -2.24896,-0.2323 -2.86145,0.25122 -0.15663,0.12365 -0.38548,0.42178 -0.50855,0.6625 -0.1862,0.36424 -0.22362,0.54107 -0.22296,1.05369 10e-4,1.11373 0.41579,1.67732 1.87064,2.5444 0.86644,0.51639 1.1143,0.72146 1.22549,1.01393 0.0872,0.22936 0.10057,0.68355 0.0258,0.87828 -0.0787,0.20511 -0.4739,0.3698 -0.88739,0.3698 -0.30759,0 -0.41996,-0.0435 -0.6143,-0.23785 -0.19415,-0.19415 -0.23784,-0.3068 -0.23784,-0.6133 v -0.37546 l -0.75264,0.0234 -0.75265,0.0234 0.007,0.49226 c 0.0124,0.88134 0.48864,1.63037 1.21394,1.90925 0.62273,0.23945 1.42929,0.26853 2.15711,0.0778 z m 46.01147,-0.0531 c 0.41467,-0.14554 0.81048,-0.52576 1.08568,-1.04293 l 0.21649,-0.40683 v -2.56306 c 0,-2.52206 -0.003,-2.56988 -0.1928,-2.98956 -0.2245,-0.49661 -0.67068,-0.93104 -1.11877,-1.08931 -0.18901,-0.0668 -0.6424,-0.11063 -1.12943,-0.1093 -0.65599,0.002 -0.88463,0.0356 -1.17983,0.17451 -0.48077,0.22622 -0.79471,0.53659 -1.00697,0.99552 -0.16446,0.35559 -0.17285,0.49604 -0.17285,2.89609 0,2.85737 0.0279,3.02033 0.62918,3.67262 0.57927,0.62844 1.82435,0.82902 2.8693,0.46225 z m -1.6211,-1.37408 c -0.18642,-0.18642 -0.1978,-0.30086 -0.23413,-2.35396 -0.0401,-2.26577 0.005,-2.77225 0.26313,-2.98159 0.27643,-0.22385 0.77778,-0.20007 1.02653,0.0487 l 0.19972,0.19971 v 2.40773 2.40772 l -0.19972,0.19972 c -0.23989,0.23989 -0.84627,0.28124 -1.05553,0.072 z m 13.24968,1.42591 c 0.9903,-0.30587 1.50927,-1.00405 1.57627,-2.12056 0.0329,-0.54788 0.0111,-0.67691 -0.18929,-1.12353 -0.2802,-0.62438 -0.61934,-0.92953 -1.85032,-1.66488 -0.99159,-0.59236 -1.11612,-0.73361 -1.11612,-1.26604 0,-0.42665 0.20387,-0.65529 0.63596,-0.71325 0.6011,-0.0806 0.91002,0.23292 0.91002,0.92363 v 0.27264 l 0.46786,0.0124 c 1.18026,0.0312 1.10767,0.0671 1.05379,-0.52093 -0.0659,-0.71906 -0.18979,-1.07897 -0.48866,-1.41938 -0.52034,-0.59263 -1.62469,-0.82544 -2.66033,-0.56082 -0.65843,0.16824 -1.03398,0.45865 -1.32222,1.02246 -0.18664,0.3651 -0.22346,0.53986 -0.22197,1.05369 0.003,1.08736 0.39621,1.62202 1.86187,2.53261 0.91843,0.57061 0.98883,0.62401 1.171,0.88832 0.16151,0.23434 0.18212,0.8746 0.0344,1.06706 -0.16727,0.21786 -0.43651,0.31842 -0.85258,0.31842 -0.51432,0 -0.766,-0.24152 -0.82978,-0.79625 l -0.0441,-0.38357 -0.71196,-0.0235 c -0.53505,-0.0177 -0.71447,0.003 -0.72207,0.0814 -0.006,0.0577 -0.002,0.30626 0.007,0.5524 0.043,1.0969 0.68814,1.78596 1.82893,1.95347 0.68435,0.10049 0.89994,0.0879 1.4619,-0.0857 z m -53.32885,-1.49188 v -1.41422 l 0.75265,-0.0336 c 1.61768,-0.0723 2.25793,-0.80502 2.25793,-2.5841 0,-1.09212 -0.15124,-1.56798 -0.65295,-2.05448 -0.22873,-0.22179 -0.52294,-0.41712 -0.70401,-0.4674 -0.17108,-0.0475 -0.97929,-0.0866 -1.79601,-0.0868 l -1.48495,-4.6e-4 v 4.02767 4.02766 h 0.81367 0.81367 z m 0,-4.0276 v -1.23028 h 0.40301 c 0.82085,0 1.02413,0.29654 0.96781,1.41182 -0.0407,0.80514 -0.17716,0.96241 -0.87946,1.01321 l -0.49136,0.0355 z m 4.84363,4.91293 c 0.0537,-0.26851 0.12256,-0.62551 0.15306,-0.79333 l 0.0554,-0.30513 h 0.92006 0.92007 l 0.15405,0.81367 0.15405,0.81367 h 0.83432 c 0.56918,0 0.83432,-0.0294 0.83432,-0.0926 0,-0.0509 -0.1438,-0.68251 -0.31955,-1.40358 -0.30652,-1.25755 -0.67034,-2.80252 -1.25718,-5.33869 l -0.273,-1.17982 -1.02416,-0.0227 -1.02416,-0.0227 -0.0824,0.30753 c -0.0453,0.16914 -0.13927,0.58214 -0.20878,0.91778 -0.0695,0.33564 -0.25601,1.15948 -0.41445,1.83075 -0.15844,0.67128 -0.43361,1.84296 -0.61149,2.60375 -0.17787,0.76078 -0.37707,1.58702 -0.44265,1.83609 -0.0656,0.24907 -0.11924,0.4792 -0.11924,0.51139 0,0.0322 0.37216,0.0481 0.82703,0.0353 l 0.82704,-0.0232 z m 0.52718,-2.66477 c 8.6e-4,-0.1478 0.56846,-2.93547 0.60516,-2.97218 0.017,-0.017 0.0676,0.16417 0.11242,0.40267 0.0448,0.23849 0.15971,0.8547 0.25537,1.36935 0.0957,0.51464 0.19432,1.0181 0.21926,1.11879 0.044,0.17779 0.0275,0.18308 -0.57373,0.18308 -0.44132,0 -0.6189,-0.0292 -0.61848,-0.10171 z m 5.85783,1.56631 v -1.62734 h 0.27608 c 0.15185,0 0.29333,0.0458 0.31441,0.10171 0.0211,0.0559 0.28573,0.78824 0.58811,1.62734 l 0.54977,1.52563 h 0.84452 c 0.46449,0 0.84453,-0.0336 0.84453,-0.0746 0,-0.041 -0.0765,-0.25158 -0.17005,-0.46786 -0.0935,-0.21628 -0.2539,-0.61293 -0.35639,-0.88144 -0.10249,-0.26851 -0.31973,-0.81014 -0.48276,-1.20362 l -0.29642,-0.71543 0.39457,-0.38431 c 0.50831,-0.49511 0.66695,-0.94667 0.66695,-1.89848 0,-0.92754 -0.19475,-1.47468 -0.68611,-1.9276 -0.19505,-0.17978 -0.49577,-0.36607 -0.66827,-0.41397 -0.17255,-0.0479 -1.0183,-0.0873 -1.87996,-0.0875 l -1.56632,-4.6e-4 v 4.02767 4.02766 h 0.81367 0.81367 z m 0,-3.9463 v -1.09845 h 0.53515 c 0.48298,0 0.55832,0.0232 0.77298,0.23784 0.22145,0.22145 0.23785,0.28078 0.23785,0.86061 0,0.57984 -0.0164,0.63917 -0.23785,0.86062 -0.21466,0.21466 -0.29,0.23784 -0.77298,0.23784 h -0.53515 z m 6.99756,2.2376 v -3.33605 h 0.73076 c 0.84481,0 0.84358,0.001 0.79944,-0.85774 l -0.0249,-0.48481 -2.38329,-0.0216 -2.3833,-0.0216 0.0236,0.67252 0.0237,0.67251 0.75264,0.0234 0.75265,0.0234 v 3.33299 3.33299 h 0.85435 0.85435 z m 3.16135,2.52237 0.1835,-0.81367 h 0.88515 c 0.97249,0 0.9083,-0.036 1.01598,0.56957 0.0279,0.15663 0.0892,0.45871 0.13624,0.67128 l 0.0856,0.38649 h 0.85494 c 0.65012,0 0.84578,-0.0244 0.81669,-0.10171 -0.058,-0.15403 -0.90701,-3.73134 -1.27943,-5.39056 -0.18081,-0.80553 -0.38723,-1.71176 -0.45872,-2.01383 l -0.12997,-0.54923 h -1.03273 -1.03273 l -0.10166,0.50855 c -0.0559,0.27969 -0.2084,0.96623 -0.33886,1.52563 -0.60984,2.615 -0.99834,4.25711 -1.18194,4.99576 -0.11009,0.44295 -0.20017,0.85487 -0.20017,0.91538 0,0.0849 0.1816,0.11001 0.79731,0.11001 h 0.7973 z m 0.44258,-2.38562 c 0.0227,-0.059 0.15918,-0.69065 0.30339,-1.40358 0.1442,-0.71293 0.28809,-1.34457 0.31974,-1.40364 0.0317,-0.0591 0.17491,0.50845 0.31833,1.26118 0.14342,0.75273 0.27441,1.43268 0.29108,1.51099 0.0269,0.12629 -0.0434,0.1424 -0.62171,0.1424 -0.50646,0 -0.64282,-0.024 -0.61083,-0.10735 z m 5.73527,0.75824 c -0.0125,-1.34258 -0.004,-2.441 0.018,-2.44092 0.0437,1.6e-4 0.21856,0.3866 1.17803,2.6037 0.33892,0.78315 0.70642,1.61615 0.81667,1.8511 l 0.20044,0.42717 h 0.77387 0.77387 v -4.02766 -4.02767 h -0.7323 -0.7323 l -0.007,2.50204 c -0.004,1.37612 -0.036,2.41049 -0.0714,2.29861 -0.0632,-0.19953 -0.23709,-0.60376 -1.10285,-2.56306 -0.23729,-0.53702 -0.548,-1.26017 -0.69047,-1.60699 l -0.25903,-0.6306 h -0.84676 -0.84676 v 4.02767 4.02766 h 0.77532 0.77532 l -0.0227,-2.44105 z m 6.6901,1.02498 v -1.41606 l 0.75264,-0.0282 c 0.61696,-0.0231 0.82599,-0.0663 1.15948,-0.23979 0.85354,-0.44392 1.26261,-1.44955 1.13855,-2.79898 -0.0898,-0.97702 -0.49206,-1.62626 -1.21659,-1.96364 -0.38425,-0.17893 -0.50655,-0.19105 -1.93579,-0.19179 l -1.52563,-8e-4 v 4.02767 4.02766 h 0.81367 0.81367 z m 0,-4.03552 v -1.2205 h 0.44086 c 0.24247,0 0.50013,0.0227 0.57258,0.0505 0.25213,0.0968 0.36979,0.48268 0.36979,1.21287 0,0.66731 -0.0117,0.71364 -0.23784,0.93976 -0.20601,0.20601 -0.29856,0.23784 -0.69162,0.23784 h -0.45377 z m 13.43706,5.35716 c 0.44687,-0.13388 0.91968,-0.56994 1.16774,-1.07696 l 0.21278,-0.43489 -0.0247,-2.51463 -0.0247,-2.51463 -0.2619,-0.40793 c -0.56532,-0.88053 -0.9498,-1.01186 -2.96233,-1.01186 h -1.53574 v 4.02767 4.02766 h 1.55688 c 0.94621,0 1.6805,-0.037 1.87205,-0.0944 z m -1.80159,-3.93323 v -2.64443 h 0.53515 c 0.48298,0 0.55832,0.0232 0.77298,0.23784 l 0.23784,0.23784 v 2.12585 c 0,2.70479 0.007,2.68732 -1.02374,2.68732 h -0.52223 z"
           style="fill:#030202;stroke-width:0.081367"
           id="path1336" /></g></g></g></svg>
