<?xml version="1.0" encoding="UTF-8" standalone="no"?>
<!-- Created with Inkscape (http://www.inkscape.org/) -->

<svg
   xml:space="preserve"
   id="svg5"
   version="1.1"
   viewBox="0 0 19.436767 28.397432"
   height="28.397432mm"
   width="19.436768mm"
   xmlns="http://www.w3.org/2000/svg"
   xmlns:svg="http://www.w3.org/2000/svg"><defs
     id="defs2" /><g
     id="layer1"
     transform="translate(-350.5487,-516.17576)"><g
       id="g1639"
       transform="translate(61.552209,53.890401)"><path
         style="fill:#ff0000;stroke-width:0.0333035"
         d="m 308.22888,480.21153 c -0.48111,-0.21852 -0.95917,-0.65105 -1.20249,-1.08795 -0.38035,-0.68294 -0.50093,-1.52214 -0.50143,-3.48994 -3.1e-4,-1.46883 -0.0693,-1.88913 -0.40971,-2.49778 -0.20578,-0.36797 -0.72012,-0.87472 -1.07219,-1.05638 l -0.26643,-0.13747 -0.0644,-0.22734 c -0.50843,-1.79402 -1.90013,-3.41096 -3.73238,-4.3364 -0.68249,-0.34472 -1.49158,-0.59777 -2.31441,-0.72386 -0.56742,-0.0869 -1.54872,-0.0769 -2.08148,0.0213 -0.21981,0.0405 -0.43835,0.0807 -0.48566,0.0894 -0.018,0.003 -0.0812,0.0145 -0.0812,0.0145 0,0 -0.0402,-0.0997 -0.14891,-0.40981 -0.43978,-1.25407 -1.03468,-2.45505 -1.60338,-3.23693 -0.0913,-0.12557 -0.1614,-0.23195 -0.1557,-0.2364 0.022,-0.0172 1.0236,-0.28667 1.29256,-0.3478 0.1557,-0.0354 0.44045,-0.0887 0.63277,-0.11844 0.19233,-0.0298 0.39007,-0.0605 0.43941,-0.0683 0.0642,-0.0101 0.0943,0.002 0.10595,0.0429 0.0559,0.1966 0.20358,1.21138 0.30383,2.08743 0.0293,0.25579 0.0579,0.46974 0.0636,0.47544 0.006,0.006 0.003,-0.58789 -0.006,-1.31908 l -0.0167,-1.32942 0.39604,-0.0249 c 0.52841,-0.0332 1.93708,0.0323 1.99764,0.0929 0.0102,0.0102 -0.39887,2.77606 -0.43964,2.97209 -0.0114,0.055 -0.0133,0.0924 -0.004,0.0833 0.009,-0.009 0.1155,-0.39132 0.23637,-0.84924 0.2759,-1.04528 0.57193,-2.11044 0.59216,-2.13066 0.0697,-0.0697 2.18221,0.5778 2.33812,0.71665 0.0155,0.0138 -0.16589,0.38263 -0.4032,0.81951 -0.54383,1.00114 -0.86097,1.61308 -0.79138,1.527 0.0296,-0.0366 0.39256,-0.53524 0.80655,-1.10801 0.63423,-0.8775 0.76292,-1.03816 0.81766,-1.02079 0.22692,0.072 1.07928,0.60484 1.44757,0.90489 l 0.14039,0.11438 -0.32485,0.40489 c -0.17867,0.2227 -0.45071,0.56976 -0.60454,0.77124 -0.15382,0.20149 -0.35523,0.46376 -0.44757,0.58282 l -0.16789,0.21647 0.3323,-0.30535 c 0.18277,-0.16794 0.40724,-0.38272 0.49882,-0.47729 0.0916,-0.0946 0.35796,-0.35259 0.59193,-0.57339 l 0.4254,-0.40145 0.4191,0.41249 c 0.48409,0.47646 1.04573,1.15223 1.35684,1.63257 l 0.0568,0.0877 -0.62576,0.39867 c -0.80752,0.51447 -1.30849,0.84308 -1.30849,0.85829 0,0.007 0.10117,-0.0339 0.2248,-0.0901 0.44166,-0.20074 1.91504,-0.8288 1.92187,-0.81924 0.0601,0.0842 0.28802,0.49335 0.44135,0.79237 0.18841,0.3674 0.55464,1.19943 0.53522,1.21594 -0.005,0.004 -0.34654,0.0994 -0.75867,0.21125 -0.81491,0.22108 -1.31915,0.37904 -1.13233,0.35472 0.24387,-0.0318 1.42858,-0.14898 1.71979,-0.17018 l 0.30439,-0.0222 0.0515,0.17935 c 0.12359,0.43012 0.2315,0.90517 0.3048,1.34169 0.0858,0.51095 0.13891,1.12361 0.10252,1.18248 -0.0139,0.0224 -0.0731,-0.0266 -0.15063,-0.12472 -0.19119,-0.24186 -0.35526,-0.362 -0.65057,-0.47636 -0.24512,-0.0949 -0.84671,-0.24206 -0.87481,-0.21395 -0.007,0.007 0.0676,0.0381 0.16496,0.0699 0.30997,0.10128 0.58668,0.23971 0.78646,0.39344 0.24212,0.18631 0.54354,0.50946 0.65907,0.7066 l 0.0878,0.14989 -0.0229,0.60673 c -0.0262,0.69602 -0.0624,1.08074 -0.14167,1.50592 l -0.0559,0.29974 -0.0283,-0.16652 c -0.11096,-0.65259 -0.22481,-0.99575 -0.45895,-1.38326 -0.18031,-0.29843 -0.2163,-0.31903 -0.11294,-0.0647 0.1198,0.29482 0.23793,0.81505 0.26585,1.17075 0.0134,0.17076 0.0264,1.04482 0.0289,1.94235 0.004,1.41604 0.0121,1.66272 0.0615,1.86501 0.15723,0.6437 0.3482,1.06221 0.68767,1.50699 0.12932,0.16944 0.22393,0.3072 0.21026,0.30614 -0.0137,-9.1e-4 -0.10489,-0.0383 -0.20271,-0.0827 z m -12.17659,-15.06371 c -0.17594,-0.6941 -0.47884,-1.4454 -0.68672,-1.70333 -0.0369,-0.0458 0.0156,0.0842 0.11669,0.28885 0.2051,0.41523 0.39542,0.94284 0.53853,1.4929 0.0524,0.20149 0.10014,0.34199 0.10606,0.31223 0.006,-0.0298 -0.0276,-0.20555 -0.0746,-0.39065 z"
         id="path1799-0-9" /><rect
         style="fill:#800080;stroke:#800080;stroke-width:0.0371662;stroke-linecap:square"
         id="rect2054-2-1-7"
         width="2.0275397"
         height="2.0275397"
         x="289.01508"
         y="488.63666" /></g></g></svg>
