<?xml version="1.0" encoding="UTF-8" standalone="no"?>
<!-- Created with Inkscape (http://www.inkscape.org/) -->

<svg
   xml:space="preserve"
   id="svg5"
   version="1.1"
   viewBox="0 0 16.500854 23.546386"
   height="23.546387mm"
   width="16.500854mm"
   xmlns="http://www.w3.org/2000/svg"
   xmlns:svg="http://www.w3.org/2000/svg"><defs
     id="defs2" /><g
     id="layer1"
     transform="translate(-349.71194,-521.0268)"><g
       id="g1639"
       transform="translate(61.552209,53.890401)"><path
         id="path1645-06-6"
         style="fill:#ffffff;stroke-width:0.0333035"
         d="m 294.57606,487.28123 c 0,-0.006 0.0449,-0.12794 0.0998,-0.27046 0.39373,-1.0225 0.38207,-1.84924 -0.0361,-2.5584 l -0.0922,-0.15642 0.35161,-0.22204 c 0.95891,-0.60552 1.82646,-1.28493 3.22797,-2.52793 l 0.33482,-0.29695 -0.0158,-1.31828 c -0.0172,-1.44067 0.005,-1.75808 0.14173,-2.05758 0.13641,-0.29795 0.38541,-0.63976 0.68398,-0.93891 0.28715,-0.28771 0.24591,-0.28847 -0.11656,-0.002 -0.35306,0.27889 -0.71669,0.70101 -0.87632,1.01729 -0.13266,0.26285 -0.18198,0.79483 -0.19424,2.09514 l -0.0113,1.19893 -0.32496,0.29702 c -0.42944,0.3925 -1.16885,1.00752 -1.62381,1.35064 -0.76609,0.57778 -2.18076,1.48208 -3.17937,2.03235 -1.18056,0.65053 -2.96165,1.29432 -3.92391,1.41833 l -0.17611,0.0227 0.0715,-0.1793 c 0.77095,-1.93379 1.17406,-3.05625 1.23297,-3.43318 0.0419,-0.26785 -0.008,-0.50773 -0.1745,-0.8333 -0.19453,-0.38128 -0.12688,-0.67857 0.20711,-0.91002 l 0.13024,-0.0903 -0.14189,-0.09 c -0.34571,-0.21924 -0.38985,-0.38444 -0.22407,-0.83868 0.0548,-0.15024 0.0933,-0.2795 0.0856,-0.28725 -0.0223,-0.0223 -0.88822,0.37298 -1.41146,0.64433 -0.34603,0.17945 -0.4723,0.23129 -0.4603,0.18896 0.009,-0.0321 0.077,-0.28312 0.15083,-0.55788 0.0739,-0.27475 0.32803,-1.15147 0.56482,-1.94826 0.82326,-2.77026 1.34346,-4.51692 1.55725,-5.22868 0.29219,-0.97279 0.91702,-2.86412 0.94622,-2.86412 0.013,0 0.11571,0.11128 0.22822,0.2473 0.1125,0.13601 0.38053,0.40462 0.59562,0.59691 1.53583,1.37308 3.30915,2.30321 5.345,2.80354 0.79872,0.1963 1.67203,0.32056 2.1897,0.31158 l 0.21647,-0.004 -0.29542,-0.0461 c -1.56424,-0.24392 -3.13349,-0.75225 -4.62147,-1.49704 -0.9561,-0.47857 -1.65781,-0.91797 -2.15968,-1.35236 l -0.27716,-0.2399 0.38001,-0.36958 c 0.83264,-0.80981 1.9023,-1.34163 3.16045,-1.57132 0.45871,-0.0837 1.6971,-0.0838 2.11358,-1.6e-4 1.7456,0.35068 3.23518,1.55063 4.0993,3.30226 0.27067,0.54868 0.38268,0.89353 0.48679,1.49867 0.15166,0.88159 -0.001,2.55004 -0.33561,3.65985 l -0.0992,0.32949 0.0785,0.15342 c 0.40066,0.78291 1.32343,1.8604 1.94581,2.27203 0.26076,0.17247 0.26745,0.18004 0.17882,0.20261 -0.27344,0.0696 -1.09533,0.16323 -1.59073,0.18119 -0.70279,0.0255 -1.23068,-0.0205 -1.96862,-0.17143 -0.30739,-0.0629 -0.56369,-0.10951 -0.56956,-0.10364 -0.0193,0.0193 0.76695,0.31308 1.0731,0.40094 0.36533,0.10484 0.77799,0.18587 0.94652,0.18587 0.11837,0 0.12722,0.008 0.1665,0.14155 0.0637,0.21745 0.33928,0.72283 0.5713,1.04777 0.11494,0.16098 0.39124,0.47409 0.61401,0.6958 l 0.40502,0.4031 -0.65244,0.02 c -0.37308,0.0114 -0.83898,0.0482 -1.0881,0.0858 -1.15682,0.17471 -2.45338,0.62407 -3.50037,1.21315 -0.58019,0.32644 -1.93117,1.24963 -3.1077,2.12365 -0.60686,0.45083 -0.8666,0.62939 -1.04906,0.72119 -0.13816,0.0695 -0.28309,0.12174 -0.28309,0.10203 z m -3.93538,-2.94053 c 0.49428,-1.46939 0.80395,-3.28868 0.80497,-4.72912 l 3e-4,-0.49956 0.49099,-0.23681 c 1.15234,-0.55581 1.96317,-1.29503 2.40691,-2.19435 0.0904,-0.18318 0.17307,-0.37166 0.18376,-0.41887 l 0.0194,-0.0858 -0.24313,0.029 c -0.13372,0.016 -0.2536,0.0471 -0.26639,0.0692 -0.35412,0.61115 -0.67412,0.95772 -1.22771,1.32962 -0.31253,0.20996 -0.42748,0.2366 -0.94221,0.21836 -0.42068,-0.0149 -0.42681,-0.0141 -0.40717,0.0545 0.011,0.0383 0.0373,0.18352 0.0585,0.32279 0.0471,0.30943 0.0175,0.39986 -0.20314,0.62053 l -0.15289,0.1529 -0.004,0.88543 c -0.006,1.15953 -0.0815,1.9562 -0.29926,3.15009 -0.0863,0.47315 -0.29679,1.35806 -0.41474,1.74362 -0.15531,0.50773 -0.0118,0.20656 0.19614,-0.41148 z m -0.44632,-5.80893 c 0.19358,-0.33745 0.35196,-0.6251 0.35196,-0.63921 0,-0.0403 -0.27938,-0.19653 -0.30389,-0.16988 -0.0332,0.0361 -0.28219,0.75082 -0.37636,1.0803 -0.0457,0.15973 -0.10765,0.33957 -0.13778,0.39964 l -0.0548,0.10923 0.0844,-0.0833 c 0.0464,-0.0458 0.24282,-0.35936 0.4364,-0.69682 z m 0.60053,-1.58858 c 0.6062,-0.14691 1.49239,-0.63928 2.49898,-1.38845 0.66505,-0.49497 1.31566,-0.72854 2.02725,-0.7278 0.18083,2e-4 0.31571,-0.012 0.29974,-0.0271 -0.0539,-0.051 -0.58669,-0.20224 -0.83329,-0.23654 -0.16752,-0.0233 -0.32293,-0.0232 -0.49227,3e-4 -0.40969,0.057 -0.59345,0.1482 -1.05818,0.52521 -1.11131,0.90157 -1.39617,1.10227 -1.91888,1.35196 -0.2811,0.13428 -0.39173,0.16946 -0.57396,0.1825 -0.21169,0.0151 -0.23139,0.0105 -0.31648,-0.0746 -0.088,-0.088 -0.0901,-0.0988 -0.0706,-0.36229 0.0111,-0.14935 0.0806,-0.54839 0.15458,-0.88676 0.18382,-0.84118 0.1789,-0.84749 -0.0649,-0.0832 -0.3087,0.96785 -0.39044,1.37914 -0.30559,1.53768 0.021,0.0392 0.0936,0.11707 0.16139,0.17292 0.13177,0.10861 0.11314,0.108 0.49217,0.0161 z m 12.07746,-4.50414 c -0.31305,-0.90224 -0.9338,-1.87732 -1.59684,-2.50828 -0.54221,-0.51598 -1.40355,-1.02336 -2.05358,-1.20967 -0.70857,-0.2031 -1.08828,-0.25969 -1.7651,-0.26308 -0.34802,-0.002 -0.74604,0.008 -0.88448,0.0226 l -0.25171,0.0258 -0.17061,-0.34217 c -0.0938,-0.18819 -0.2435,-0.43606 -0.32157,-0.55819 -0.0715,-0.11191 -0.15273,-0.21005 -0.12719,-0.2384 0.0285,-0.0316 0.64435,-0.14898 1.00623,-0.19658 0.39911,-0.0525 1.24968,-0.0441 1.67799,0.0165 1.52209,0.21548 2.85402,0.87647 3.99607,1.98312 0.73549,0.71268 1.27864,1.54761 1.52775,2.3484 0.14131,0.45428 0.14223,0.4276 -0.0175,0.50553 -0.18876,0.0921 -0.51064,0.33766 -0.72934,0.55637 l -0.17885,0.17885 z" /><rect
         style="fill:#800080;stroke:#800080;stroke-width:0.0371662;stroke-linecap:square"
         id="rect2054-2-1-7"
         width="2.0275397"
         height="2.0275397"
         x="289.01508"
         y="488.63666" /></g></g></svg>
