<?xml version="1.0" encoding="UTF-8" standalone="no"?>
<!-- Created with Inkscape (http://www.inkscape.org/) -->

<svg
   width="94.846863mm"
   height="84.082474mm"
   viewBox="0 0 94.846862 84.082473"
   version="1.1"
   id="svg5"
   xml:space="preserve"
   inkscape:version="1.2.2 (732a01da63, 2022-12-09)"
   sodipodi:docname="drawing.svg"
   xmlns:inkscape="http://www.inkscape.org/namespaces/inkscape"
   xmlns:sodipodi="http://sodipodi.sourceforge.net/DTD/sodipodi-0.dtd"
   xmlns="http://www.w3.org/2000/svg"
   xmlns:svg="http://www.w3.org/2000/svg"><sodipodi:namedview
     id="namedview7"
     pagecolor="#ffffff"
     bordercolor="#000000"
     borderopacity="0.25"
     inkscape:showpageshadow="2"
     inkscape:pageopacity="0.0"
     inkscape:pagecheckerboard="0"
     inkscape:deskcolor="#d1d1d1"
     inkscape:document-units="mm"
     showgrid="false"
     inkscape:zoom="2.8284271"
     inkscape:cx="439.46686"
     inkscape:cy="379.71634"
     inkscape:window-width="1920"
     inkscape:window-height="1009"
     inkscape:window-x="1912"
     inkscape:window-y="-8"
     inkscape:window-maximized="1"
     inkscape:current-layer="g1639" /><defs
     id="defs2" /><g
     inkscape:label="Layer 1"
     inkscape:groupmode="layer"
     id="layer1"
     transform="translate(-440.88222,-164.13593)"><g
       id="g1639"
       transform="translate(61.552209,53.890401)"><path
         id="path1645-0"
         style="fill:#ffffff;stroke-width:0.109283"
         d="m 417.81532,176.34939 c 0,-0.0204 0.14735,-0.41983 0.32744,-0.88752 1.29198,-3.35523 1.25374,-6.06814 -0.11836,-8.39519 l -0.30264,-0.5133 1.15382,-0.72859 c 3.14656,-1.98698 5.99338,-4.21641 10.59234,-8.29521 l 1.09867,-0.97441 -0.0518,-4.32585 c -0.0566,-4.72746 0.0152,-5.76902 0.46507,-6.75179 0.44761,-0.97772 1.26468,-2.09932 2.24442,-3.08098 0.94227,-0.9441 0.80694,-0.9466 -0.38248,-0.007 -1.15854,0.91513 -2.35176,2.30029 -2.87558,3.33816 -0.43532,0.8625 -0.59717,2.60817 -0.63739,6.87504 l -0.0371,3.93421 -1.06634,0.97462 c -1.40919,1.28798 -3.83547,3.30611 -5.3284,4.43205 -2.51387,1.89594 -7.15603,4.86334 -10.43289,6.66899 -3.87392,2.13466 -9.71843,4.24721 -12.876,4.65415 l -0.57791,0.0745 0.23457,-0.58837 c 2.52981,-6.3456 3.85258,-10.02886 4.04587,-11.26573 0.13736,-0.87891 -0.0275,-1.66606 -0.57257,-2.73442 -0.63836,-1.25113 -0.41634,-2.22665 0.67962,-2.98616 l 0.42738,-0.29617 -0.46563,-0.2953 c -1.13443,-0.71943 -1.27924,-1.2615 -0.73527,-2.75206 0.17993,-0.49299 0.30633,-0.91716 0.28089,-0.9426 -0.0732,-0.0732 -2.91462,1.22391 -4.63159,2.11433 -1.13548,0.58886 -1.54982,0.75895 -1.51044,0.62006 0.0298,-0.10526 0.25255,-0.92905 0.49493,-1.83064 0.24237,-0.90159 1.07641,-3.77848 1.85341,-6.39309 2.70147,-9.09038 4.40849,-14.82193 5.11001,-17.15752 0.95878,-3.19214 3.00914,-9.39839 3.10495,-9.39839 0.0427,0 0.3797,0.36517 0.74887,0.81148 0.36919,0.44632 1.24871,1.32775 1.95449,1.95874 5.03973,4.50565 10.85873,7.55781 17.53924,9.19961 2.62094,0.64412 5.48663,1.05188 7.18534,1.02241 l 0.71034,-0.0123 -0.9694,-0.15116 c -5.13295,-0.80042 -10.28234,-2.46847 -15.16504,-4.91245 -3.13737,-1.57037 -5.43998,-3.01223 -7.08681,-4.43765 l -0.90948,-0.78722 1.24695,-1.21277 c 2.73225,-2.65732 6.24227,-4.40243 10.37081,-5.15614 1.5052,-0.2748 5.56889,-0.27514 6.93555,-5.5e-4 5.72804,1.15073 10.61598,5.08829 13.45152,10.83614 0.88821,1.80045 1.25576,2.93203 1.59738,4.91776 0.49767,2.89288 -0.004,8.36777 -1.10128,12.00954 l -0.32565,1.08119 0.25762,0.50342 c 1.31473,2.56909 4.34273,6.10477 6.38501,7.45552 0.85568,0.56595 0.87761,0.59079 0.58678,0.66484 -0.89725,0.22843 -3.59422,0.53563 -5.21988,0.59457 -2.30613,0.0836 -4.03837,-0.0672 -6.45988,-0.56253 -1.00867,-0.20631 -1.8497,-0.35936 -1.86895,-0.34011 -0.0634,0.0634 2.51669,1.02738 3.52131,1.31567 1.19879,0.34401 2.55293,0.60993 3.10595,0.60993 0.38841,0 0.41746,0.0247 0.54634,0.46446 0.20912,0.71357 1.11334,2.37193 1.87467,3.4382 0.37718,0.52825 1.28385,1.55569 2.01483,2.2832 l 1.32906,1.32274 -2.14094,0.0656 c -1.22425,0.0375 -2.75306,0.158 -3.57054,0.28146 -3.796,0.5733 -8.05056,2.04784 -11.48618,3.98086 -1.90388,1.07119 -6.33699,4.10056 -10.1977,6.96861 -1.99137,1.47935 -2.8437,2.06529 -3.44243,2.36652 -0.45334,0.22808 -0.92891,0.39949 -0.92891,0.3348 z m -12.91367,-9.64914 c 1.62194,-4.82171 2.63808,-10.79155 2.64143,-15.51826 l 0.001,-1.63926 1.61115,-0.7771 c 3.78132,-1.82384 6.44198,-4.24954 7.89808,-7.2006 0.29658,-0.60106 0.56793,-1.21956 0.603,-1.37446 l 0.0638,-0.28162 -0.79782,0.0953 c -0.4388,0.0524 -0.83215,0.15455 -0.87411,0.22698 -1.16202,2.00548 -2.21207,3.14269 -4.02867,4.36308 -1.02553,0.68895 -1.40273,0.77636 -3.09177,0.71651 -1.38042,-0.0489 -1.40055,-0.0462 -1.33611,0.17867 0.036,0.12558 0.12239,0.60223 0.192,1.05922 0.15468,1.01538 0.0575,1.3121 -0.66659,2.03623 l -0.50171,0.50171 -0.0145,2.90549 c -0.019,3.80491 -0.26733,6.41912 -0.98197,10.33678 -0.28322,1.5526 -0.97392,4.45638 -1.36095,5.72158 -0.50967,1.66606 -0.0386,0.67779 0.64361,-1.35024 z m -1.46458,-19.06157 c 0.63522,-1.10734 1.15494,-2.05122 1.15494,-2.09752 0,-0.13243 -0.91677,-0.64492 -0.99721,-0.55745 -0.10891,0.11847 -0.92597,2.46375 -1.23498,3.54491 -0.14981,0.52415 -0.35325,1.11428 -0.4521,1.3114 l -0.17974,0.35841 0.27708,-0.27321 c 0.15239,-0.15026 0.79679,-1.17921 1.43201,-2.28654 z m 1.97062,-5.21281 c 1.98919,-0.48207 4.89715,-2.09775 8.20021,-4.55611 2.18231,-1.62421 4.31723,-2.39066 6.65227,-2.38821 0.59336,6.6e-4 1.03595,-0.0394 0.98356,-0.089 -0.17684,-0.16735 -1.92516,-0.66364 -2.73437,-0.77619 -0.54971,-0.0765 -1.05969,-0.0761 -1.61536,0.001 -1.34434,0.18698 -1.94737,0.48629 -3.47233,1.72344 -3.64668,2.95842 -4.58144,3.617 -6.29665,4.43635 -0.92244,0.44063 -1.28544,0.55605 -1.88342,0.59884 -0.69464,0.0497 -0.75928,0.0345 -1.0385,-0.24477 -0.28891,-0.2889 -0.2958,-0.32429 -0.23165,-1.18883 0.0363,-0.49009 0.26463,-1.79952 0.50725,-2.90985 0.60318,-2.76027 0.58706,-2.78097 -0.21285,-0.27306 -1.01298,3.17595 -1.28121,4.52557 -1.00278,5.04579 0.0689,0.12882 0.30726,0.38417 0.52959,0.56744 0.43237,0.35639 0.37126,0.35439 1.61503,0.053 z m 39.63129,-14.78001 c -1.02725,-2.96064 -3.06423,-6.16028 -5.23993,-8.23073 -1.7792,-1.69315 -4.60566,-3.35808 -6.73867,-3.96945 -2.32512,-0.66643 -3.57112,-0.85215 -5.79204,-0.86328 -1.142,-0.006 -2.44808,0.0277 -2.90235,0.0742 l -0.82597,0.0846 -0.55985,-1.12281 c -0.30792,-0.61755 -0.79904,-1.43091 -1.05522,-1.83166 -0.23474,-0.36723 -0.50117,-0.68928 -0.41735,-0.78229 0.0934,-0.10362 2.11437,-0.48886 3.30187,-0.64507 1.30965,-0.17228 4.10071,-0.14484 5.5062,0.0541 4.99461,0.70708 9.36525,2.87609 13.11282,6.50747 2.41341,2.3386 4.19576,5.07837 5.01319,7.70613 0.4637,1.49066 0.46672,1.40311 -0.0573,1.65885 -0.61941,0.30229 -1.67561,1.10799 -2.3933,1.82568 l -0.58686,0.58687 z"
         sodipodi:nodetypes="ssscsscscsssscsssscsscscsssscscssscsscssscsscssccssssssssssscssssssscccssccssssssscsssccssssscsssscsscsssscsscsssssssscssssssssscs"
         inkscape:export-filename="SilkS.svg"
         inkscape:export-xdpi="96"
         inkscape:export-ydpi="96" /><path
         style="fill:#cf191a;stroke-width:0.109257"
         d="m 385.3293,190.37336 c -1.39107,-0.36283 -2.04787,-1.21107 -2.13757,-2.76063 l -0.0497,-0.85878 h 1.05198 1.05199 v 0.38591 c 0,0.48395 0.22383,1.02327 0.54268,1.30757 0.18711,0.16685 0.39959,0.21852 0.89859,0.21852 0.58061,0 0.68296,-0.0342 0.91722,-0.30655 0.20261,-0.23556 0.26368,-0.43291 0.26368,-0.85217 0,-0.95688 -0.29926,-1.26942 -2.23977,-2.33919 -1.06804,-0.5888 -1.84715,-1.39265 -2.06686,-2.13252 -0.32494,-1.09419 -0.20423,-2.19163 0.32508,-2.95542 1.07106,-1.54554 4.21388,-1.75842 5.55705,-0.37641 0.53216,0.54755 0.71891,1.0707 0.71891,2.01388 v 0.67428 l -0.9988,-0.0314 -0.9988,-0.0314 -0.13231,-0.52211 c -0.19389,-0.76512 -0.51784,-1.06212 -1.15848,-1.06212 -0.7217,0 -1.19117,0.38935 -1.19117,0.98789 0,0.8181 0.24613,1.06698 2.13053,2.15433 1.60489,0.92607 2.2916,1.83609 2.41955,3.20638 0.16854,1.80478 -0.84214,3.06745 -2.69599,3.36823 -0.94952,0.15405 -1.33839,0.1385 -2.2078,-0.0883 z m 67.18988,0.0978 c -1.20217,-0.21735 -2.12545,-0.98117 -2.43142,-2.01148 -0.20986,-0.70667 -0.23566,-6.95011 -0.0315,-7.63141 0.18332,-0.61187 0.95126,-1.42268 1.64234,-1.73403 0.48302,-0.21762 0.75446,-0.26 1.66938,-0.26067 1.42228,-8.2e-4 2.08963,0.22105 2.80057,0.93199 0.83734,0.83734 0.88007,1.09983 0.83928,5.15587 l -0.0344,3.41673 -0.29669,0.56255 c -0.35516,0.67339 -0.93721,1.17943 -1.61185,1.40136 -0.63209,0.20793 -1.87446,0.29045 -2.54572,0.16909 z m 1.65001,-2.04523 c 0.51004,-0.31886 0.56448,-0.68273 0.5643,-3.77169 -2.2e-4,-3.25669 -0.0441,-3.47105 -0.78554,-3.83346 -0.33213,-0.16234 -0.4785,-0.17688 -0.82939,-0.0824 -0.23435,0.0631 -0.51456,0.2125 -0.62269,0.33198 -0.28084,0.31032 -0.41313,1.98645 -0.36417,4.61413 0.0367,1.97044 0.0593,2.17955 0.26601,2.45829 0.40179,0.54186 1.16301,0.66354 1.77148,0.28315 z m 15.24686,2.00511 c -1.34722,-0.34465 -2.08654,-1.13458 -2.18402,-2.33355 -0.0283,-0.34836 -0.0711,-0.79317 -0.095,-0.98847 l -0.0435,-0.35508 h 1.0185 1.01848 l 0.0752,0.60204 c 0.10026,0.80244 0.44583,1.218 1.09364,1.31514 1.27935,0.19185 1.9207,-0.68176 1.37796,-1.87697 -0.2174,-0.47874 -0.6185,-0.79726 -1.883,-1.49528 -1.72215,-0.95065 -2.38359,-1.8021 -2.47118,-3.18103 -0.0928,-1.4606 0.38403,-2.34171 1.57472,-2.90997 1.30516,-0.6229 3.03321,-0.53719 4.13646,0.20515 0.61193,0.41175 1.0286,1.27484 1.06489,2.20582 l 0.0277,0.71017 -1.01248,0.0314 c -1.09701,0.0341 -1.04965,0.0603 -1.16681,-0.64742 -0.0363,-0.21911 -0.19895,-0.53062 -0.36254,-0.69421 -0.26667,-0.26668 -0.35684,-0.29175 -0.88992,-0.24755 -0.74265,0.0616 -1.10244,0.41025 -1.10244,1.06838 0,0.5396 0.38684,1.0008 1.27295,1.51768 2.71533,1.58387 3.32315,2.34641 3.31107,4.15393 -0.009,1.31846 -0.46723,2.09027 -1.56149,2.62897 -0.5762,0.28367 -0.85322,0.34804 -1.66563,0.38704 -0.60042,0.0288 -1.18908,-0.008 -1.53351,-0.0962 z m -77.61463,-5.80762 v -5.73601 h 1.76648 c 2.14504,0 2.95214,0.12684 3.71535,0.5839 0.45497,0.27247 0.64286,0.47623 0.89582,0.97151 0.30404,0.59529 0.32064,0.69943 0.33089,2.07589 0.0103,1.38003 -0.004,1.47915 -0.29791,2.07781 -0.51531,1.04942 -1.37659,1.5079 -3.01338,1.60413 l -1.04821,0.0616 -0.0297,2.04858 -0.0297,2.04857 h -1.1448 -1.14479 z m 3.73229,-0.44712 c 0.32872,-0.0961 0.55913,-0.60763 0.61302,-1.36085 0.0994,-1.38927 -0.31192,-1.96141 -1.41009,-1.96141 h -0.64081 v 1.68589 c 0,1.6605 0.004,1.68665 0.24583,1.73647 0.24589,0.0506 0.85042,-2.2e-4 1.19205,-0.1001 z m 3.15093,6.12004 c 0,-0.0347 0.44408,-1.93987 0.98685,-4.23372 0.54278,-2.29385 1.1416,-4.84666 1.33073,-5.67292 l 0.34386,-1.50229 h 1.45534 c 0.80044,0 1.45534,0.0195 1.45534,0.0434 0,0.0238 0.58408,2.44526 1.29794,5.38092 0.71387,2.93566 1.33235,5.49735 1.3744,5.69265 l 0.0765,0.35509 h -1.20277 -1.20276 l -0.12661,-0.62823 c -0.0696,-0.34553 -0.18479,-0.89864 -0.25591,-1.22914 l -0.1293,-0.60092 -1.273,-0.0307 c -1.14305,-0.0276 -1.27849,-0.0108 -1.32682,0.16389 -0.0296,0.10702 -0.14075,0.67396 -0.24699,1.25985 l -0.19317,1.06526 h -1.1818 c -0.64998,0 -1.18179,-0.0284 -1.18179,-0.0631 z m 4.96969,-4.44378 c -0.0332,-0.1352 -0.24947,-1.22914 -0.48068,-2.43097 -0.2312,-1.20183 -0.44764,-2.1114 -0.48098,-2.02126 -0.0786,0.21264 -0.70809,3.50403 -0.79921,4.17909 l -0.0701,0.51897 h 0.94562 c 0.92568,0 0.94435,-0.005 0.88532,-0.24583 z m 4.5357,-1.22914 v -5.73601 h 1.94656 c 2.70494,0 3.59052,0.19473 4.30198,0.94599 0.56142,0.59282 0.73895,1.17771 0.74092,2.44099 8.2e-4,0.63096 -0.0508,1.33672 -0.11516,1.56835 -0.13739,0.49482 -0.84174,1.30013 -1.30492,1.49199 -0.17877,0.074 -0.32503,0.15865 -0.32503,0.18801 0,0.0294 0.44249,1.10231 0.98332,2.38434 0.54082,1.28203 0.98331,2.35827 0.98331,2.39166 0,0.0334 -0.5316,0.0607 -1.18134,0.0607 h -1.18134 l -0.92186,-2.23872 c -0.90873,-2.20683 -1.05596,-2.43852 -1.45276,-2.28625 -0.15809,0.0607 -0.17928,0.33213 -0.17928,2.29688 v 2.22809 h -1.1472 -1.1472 z m 4.23591,-0.90522 c 0.37536,-0.35063 0.52434,-0.97603 0.41161,-1.72779 -0.12976,-0.86529 -0.69352,-1.23631 -1.88878,-1.24302 l -0.46434,-0.002 v 1.63886 1.63886 h 0.80788 c 0.73298,0 0.83807,-0.0282 1.13363,-0.30431 z m 5.92502,1.88853 v -4.75269 h -1.25646 -1.25646 v -0.98332 -0.98331 h 3.55087 3.55086 v 0.97962 0.97962 l -1.17452,0.031 -1.17452,0.031 v 4.72539 4.7254 l -1.11988,-1e-5 -1.11989,-3e-5 z m 4.43526,4.5615 c 0.59601,-2.56023 2.58055,-10.95106 2.62284,-11.08962 0.0516,-0.16914 0.22021,-0.1912 1.46082,-0.1912 h 1.40248 l 0.396,1.63768 c 0.21779,0.90073 0.83709,3.43624 1.37622,5.63447 0.53913,2.19824 0.98023,4.04249 0.98023,4.09833 0,0.0564 -0.53139,0.10154 -1.19408,0.10154 h -1.19409 l -0.12661,-0.62823 c -0.0696,-0.34553 -0.18479,-0.89864 -0.2559,-1.22914 l -0.1293,-0.60092 -1.26659,-0.0306 -1.26658,-0.0306 -0.24757,1.2598 -0.24758,1.2598 h -1.1774 c -1.06545,0 -1.17317,-0.0182 -1.13289,-0.1912 z m 4.91984,-4.26104 c -0.0307,-0.10516 -0.24004,-1.16222 -0.46526,-2.34903 -0.22523,-1.18681 -0.43699,-2.15765 -0.47058,-2.15743 -0.0336,2.2e-4 -0.26084,1.05729 -0.50501,2.34903 l -0.44394,2.34863 h 0.97027 c 0.87248,0 0.96466,-0.0193 0.91452,-0.1912 z m 4.52059,-1.28377 v -5.73601 h 1.14025 1.14025 l 0.47668,1.01063 c 0.26217,0.55585 0.99049,2.14825 1.61849,3.53867 l 1.14182,2.52804 0.0288,-3.53867 0.0288,-3.53867 h 0.98182 0.98183 v 5.73601 5.73601 h -1.07925 -1.07924 l -1.11846,-2.43098 c -0.61515,-1.33703 -1.34634,-2.94121 -1.62487,-3.56484 l -0.50643,-1.13386 -0.0288,3.56484 -0.0288,3.56484 h -1.03645 -1.03645 z m 9.61464,-0.0114 v -5.74741 l 2.15783,0.0466 c 1.90761,0.0412 2.23028,0.075 2.78253,0.29106 0.72827,0.28496 1.39758,0.96884 1.59585,1.63062 0.19187,0.6404 0.16568,2.94735 -0.0401,3.53091 -0.39879,1.13102 -1.46022,1.7476 -3.13646,1.82196 l -1.06526,0.0473 v 2.06318 2.06318 h -1.1472 -1.1472 z m 3.72789,-0.49208 c 0.35614,-0.13958 0.52055,-0.48963 0.6028,-1.2834 0.13948,-1.34606 -0.3085,-1.9825 -1.39547,-1.9825 h -0.64081 v 1.68548 c 0,1.51209 0.0197,1.69095 0.1912,1.73874 0.24241,0.0675 0.87014,-0.0125 1.24228,-0.15832 z m 13.31626,0.50348 v -5.73601 l 1.61154,0.002 c 2.65311,0.004 3.75356,0.26281 4.54124,1.06984 0.7181,0.73576 0.77041,1.01896 0.81514,4.41291 0.0329,2.50167 0.01,3.14597 -0.13381,3.71475 -0.31694,1.25566 -1.02816,1.91155 -2.34321,2.16094 -0.3231,0.0613 -1.46573,0.11141 -2.53918,0.11141 h -1.95172 z m 4.32623,3.40691 0.26258,-0.30526 v -3.03838 c 0,-2.89546 -0.0105,-3.05174 -0.22349,-3.3225 -0.2576,-0.32748 -0.80944,-0.50867 -1.55194,-0.50954 l -0.51898,-4.1e-4 v 3.78095 3.78094 l 0.88463,-0.0402 c 0.80887,-0.0367 0.90712,-0.0663 1.1472,-0.34543 z"
         id="path1643-1-2"
         sodipodi:nodetypes="sscccsssssssssscccsssssssssssscsscssssssssssssssscccsssssssscsssssssssssccsssscsccccccssscsssssscsssscccsscssscssssssscssccsscsssssscssscccccsccccscccccccccccccccccccssscsssscsscccccssssssscssccccsscccccccccssccccccccsssssccccccssscssscccsssssccccssccccscc" /><rect
         style="fill:#800080;stroke:#800080;stroke-width:0.0371662;stroke-linecap:square"
         id="rect2054-2-3"
         width="2.0275397"
         height="2.0275397"
         x="379.3486"
         y="192.28189" /></g></g></svg>
